B612-Italic.ufo
<glyph name="dollar" format="1">
  <advance width="1100"/>
  <unicode hex="0024"/>
  <outline>
    <contour>
      <point x="1098" y="1252" type="line"/>
      <point x="1044" y="1295"/>
      <point x="941" y="1343"/>
      <point x="883" y="1348" type="qcurve"/>
      <point x="793" y="836" type="line"/>
      <point x="847" y="807"/>
      <point x="950" y="739"/>
      <point x="1031" y="645"/>
      <point x="1081" y="518"/>
      <point x="1081" y="432" type="qcurve"/>
      <point x="1081" y="340"/>
      <point x="1012" y="189"/>
      <point x="893" y="76"/>
      <point x="734" y="3"/>
      <point x="643" y="-10" type="qcurve"/>
      <point x="610" y="-199" type="line"/>
      <point x="464" y="-199" type="line"/>
      <point x="496" y="-17" type="line"/>
      <point x="485" y="-17" type="line"/>
      <point x="367" y="-9"/>
      <point x="178" y="75"/>
      <point x="108" y="134" type="qcurve"/>
      <point x="226" y="284" type="line"/>
      <point x="250" y="262"/>
      <point x="308" y="218"/>
      <point x="376" y="180"/>
      <point x="455" y="153"/>
      <point x="500" y="148" type="qcurve"/>
      <point x="506" y="147"/>
      <point x="518" y="146"/>
      <point x="525" y="146" type="qcurve"/>
      <point x="624" y="707" type="line"/>
      <point x="567" y="738"/>
      <point x="455" y="809"/>
      <point x="366" y="904"/>
      <point x="311" y="1030"/>
      <point x="311" y="1116" type="qcurve"/>
      <point x="311" y="1207"/>
      <point x="385" y="1348"/>
      <point x="510" y="1447"/>
      <point x="675" y="1505"/>
      <point x="766" y="1513" type="qcurve"/>
      <point x="799" y="1701" type="line"/>
      <point x="949" y="1721" type="line"/>
      <point x="912" y="1512" type="line"/>
      <point x="961" y="1505"/>
      <point x="1049" y="1476"/>
      <point x="1125" y="1438"/>
      <point x="1188" y="1393"/>
      <point x="1214" y="1371" type="qcurve"/>
    </contour>
    <contour>
      <point x="687" y="896" type="line"/>
      <point x="766" y="1342" type="line"/>
      <point x="714" y="1332"/>
      <point x="621" y="1290"/>
      <point x="552" y="1228"/>
      <point x="512" y="1148"/>
      <point x="514" y="1101" type="qcurve"/>
      <point x="515" y="1063"/>
      <point x="542" y="1004"/>
      <point x="588" y="954"/>
      <point x="650" y="912"/>
      <point x="685" y="893" type="qcurve"/>
    </contour>
    <contour>
      <point x="877" y="433" type="qcurve"/>
      <point x="877" y="470"/>
      <point x="854" y="531"/>
      <point x="814" y="582"/>
      <point x="760" y="626"/>
      <point x="729" y="646" type="qcurve"/>
      <point x="643" y="157" type="line"/>
      <point x="688" y="168"/>
      <point x="773" y="212"/>
      <point x="838" y="280"/>
      <point x="877" y="373"/>
    </contour>
  </outline>
</glyph>
<glyph name="quotesingle" format="1">
  <advance width="400"/>
  <unicode hex="0027"/>
  <outline>
    <contour>
      <point x="414" y="1500" type="line"/>
      <point x="589" y="1500" type="line"/>
      <point x="571" y="1400" type="line"/>
      <point x="558" y="1326"/>
      <point x="457" y="1155"/>
      <point x="372" y="1067" type="qcurve"/>
      <point x="328" y="1067" type="line"/>
      <point x="343" y="1143"/>
      <point x="358" y="1209" type="qcurve"/>
      <point x="364" y="1237"/>
      <point x="375" y="1295"/>
      <point x="386" y="1346"/>
      <point x="394" y="1388"/>
      <point x="396" y="1400" type="qcurve"/>
    </contour>
  </outline>
</glyph>
<glyph name="plus" format="1">
  <advance width="1200"/>
  <unicode hex="002B"/>
  <outline>
    <contour>
      <point x="223" y="700" type="line"/>
      <point x="596" y="700" type="line"/>
      <point x="671" y="1123" type="line"/>
      <point x="826" y="1123" type="line"/>
      <point x="751" y="700" type="line"/>
      <point x="1123" y="700" type="line"/>
      <point x="1096" y="545" type="line"/>
      <point x="724" y="545" type="line"/>
      <point x="649" y="122" type="line"/>
      <point x="494" y="122" type="line"/>
      <point x="569" y="545" type="line"/>
      <point x="196" y="545" type="line"/>
    </contour>
  </outline>
</glyph>
<glyph name="slash" format="1">
  <advance width="1100"/>
  <unicode hex="002F"/>
  <outline>
    <contour>
      <point x="267" y="-100" type="line"/>
      <point x="57" y="-100" type="line"/>
      <point x="1067" y="1600" type="line"/>
      <point x="1267" y="1600" type="line"/>
    </contour>
  </outline>
</glyph>
<glyph name="four" format="1">
  <advance width="1300"/>
  <unicode hex="0034"/>
  <outline>
    <contour>
      <point x="1127" y="300" type="line"/>
      <point x="947" y="300" type="line"/>
      <point x="895" y="0" type="line"/>
      <point x="695" y="0" type="line"/>
      <point x="747" y="300" type="line"/>
      <point x="152" y="300" type="line"/>
      <point x="183" y="471" type="line"/>
      <point x="852" y="1520" type="line"/>
      <point x="1037" y="1500" type="line"/>
      <point x="463" y="600" type="line"/>
      <point x="346" y="460" type="line"/>
      <point x="776" y="460" type="line"/>
      <point x="847" y="867" type="line"/>
      <point x="1044" y="850" type="line"/>
      <point x="976" y="460" type="line"/>
      <point x="1171" y="460" type="line"/>
    </contour>
  </outline>
</glyph>
<glyph name="six" format="1">
  <advance width="1300"/>
  <unicode hex="0036"/>
  <outline>
    <contour>
      <point x="1165" y="1344" type="line"/>
      <point x="1159" y="1346"/>
      <point x="1132" y="1347"/>
      <point x="1121" y="1347" type="qcurve"/>
      <point x="1033" y="1347"/>
      <point x="878" y="1302"/>
      <point x="744" y="1220"/>
      <point x="631" y="1106"/>
      <point x="540" y="969"/>
      <point x="471" y="813"/>
      <point x="448" y="730" type="qcurve"/>
      <point x="552" y="847" type="line"/>
      <point x="580" y="863"/>
      <point x="652" y="894"/>
      <point x="730" y="917"/>
      <point x="808" y="930"/>
      <point x="842" y="927" type="qcurve"/>
      <point x="928" y="921"/>
      <point x="1067" y="873"/>
      <point x="1164" y="776"/>
      <point x="1213" y="624"/>
      <point x="1210" y="513" type="qcurve"/>
      <point x="1208" y="440"/>
      <point x="1163" y="301"/>
      <point x="1086" y="179"/>
      <point x="980" y="79"/>
      <point x="851" y="10"/>
      <point x="703" y="-23"/>
      <point x="623" y="-17" type="qcurve"/>
      <point x="534" y="-10"/>
      <point x="405" y="58"/>
      <point x="316" y="161"/>
      <point x="263" y="291"/>
      <point x="237" y="428"/>
      <point x="234" y="563"/>
      <point x="239" y="620" type="qcurve"/>
      <point x="249" y="740"/>
      <point x="325" y="966"/>
      <point x="446" y="1165"/>
      <point x="611" y="1331"/>
      <point x="808" y="1450"/>
      <point x="1036" y="1517"/>
      <point x="1160" y="1517" type="qcurve"/>
      <point x="1175" y="1517"/>
      <point x="1211" y="1516"/>
      <point x="1220" y="1514" type="qcurve"/>
    </contour>
    <contour>
      <point x="434" y="597" type="qcurve"/>
      <point x="429" y="569"/>
      <point x="422" y="523"/>
      <point x="419" y="479"/>
      <point x="419" y="434"/>
      <point x="421" y="407" type="qcurve"/>
      <point x="424" y="362"/>
      <point x="456" y="278"/>
      <point x="514" y="209"/>
      <point x="598" y="161"/>
      <point x="655" y="153" type="qcurve"/>
      <point x="723" y="143"/>
      <point x="846" y="186"/>
      <point x="941" y="279"/>
      <point x="1002" y="417"/>
      <point x="1010" y="503" type="qcurve"/>
      <point x="1019" y="608"/>
      <point x="908" y="746"/>
      <point x="797" y="757" type="qcurve"/>
      <point x="683" y="768"/>
      <point x="500" y="688"/>
    </contour>
  </outline>
</glyph>
<glyph name="seven" format="1">
  <advance width="1300"/>
  <unicode hex="0037"/>
  <outline>
    <contour>
      <point x="464" y="1500" type="line"/>
      <point x="1357" y="1500" type="line"/>
      <point x="1334" y="1370" type="line"/>
      <point x="1326" y="1328"/>
      <point x="1239" y="1203"/>
      <point x="1111" y="1046"/>
      <point x="959" y="861"/>
      <point x="816" y="657"/>
      <point x="699" y="440"/>
      <point x="669" y="329" type="qcurve"/>
      <point x="658" y="288"/>
      <point x="637" y="200"/>
      <point x="619" y="115"/>
      <point x="604" y="34"/>
      <point x="598" y="0" type="qcurve"/>
      <point x="400" y="0" type="line"/>
      <point x="405" y="30"/>
      <point x="425" y="130"/>
      <point x="450" y="242"/>
      <point x="478" y="352"/>
      <point x="491" y="392" type="qcurve"/>
      <point x="526" y="501"/>
      <point x="638" y="710"/>
      <point x="769" y="901"/>
      <point x="904" y="1069"/>
      <point x="1020" y="1207"/>
      <point x="1103" y="1310"/>
      <point x="1115" y="1340" type="qcurve"/>
      <point x="436" y="1340" type="line"/>
    </contour>
  </outline>
</glyph>
<glyph name="eight" format="1">
  <advance width="1300"/>
  <unicode hex="0038"/>
  <outline>
    <contour>
      <point x="878" y="1517" type="qcurve"/>
      <point x="965" y="1513"/>
      <point x="1102" y="1463"/>
      <point x="1194" y="1371"/>
      <point x="1236" y="1240"/>
      <point x="1228" y="1155" type="qcurve"/>
      <point x="1222" y="1095"/>
      <point x="1175" y="1002"/>
      <point x="1104" y="930"/>
      <point x="1014" y="872"/>
      <point x="966" y="846" type="qcurve"/>
      <point x="1034" y="813"/>
      <point x="1127" y="728"/>
      <point x="1183" y="622"/>
      <point x="1201" y="490"/>
      <point x="1194" y="410" type="qcurve"/>
      <point x="1187" y="335"/>
      <point x="1133" y="210"/>
      <point x="1047" y="112"/>
      <point x="936" y="40"/>
      <point x="812" y="-5"/>
      <point x="679" y="-22"/>
      <point x="614" y="-17" type="qcurve"/>
      <point x="520" y="-10"/>
      <point x="363" y="49"/>
      <point x="255" y="157"/>
      <point x="203" y="316"/>
      <point x="213" y="424" type="qcurve"/>
      <point x="220" y="505"/>
      <point x="284" y="635"/>
      <point x="383" y="738"/>
      <point x="509" y="819"/>
      <point x="578" y="850" type="qcurve"/>
      <point x="537" y="879"/>
      <point x="473" y="942"/>
      <point x="431" y="1013"/>
      <point x="413" y="1095"/>
      <point x="416" y="1144" type="qcurve"/>
      <point x="423" y="1242"/>
      <point x="510" y="1386"/>
      <point x="640" y="1478"/>
      <point x="799" y="1520"/>
    </contour>
    <contour>
      <point x="734" y="760" type="qcurve"/>
      <point x="666" y="733"/>
      <point x="547" y="669"/>
      <point x="457" y="587"/>
      <point x="401" y="482"/>
      <point x="398" y="414" type="qcurve"/>
      <point x="395" y="352"/>
      <point x="429" y="258"/>
      <point x="494" y="192"/>
      <point x="587" y="154"/>
      <point x="643" y="147" type="qcurve"/>
      <point x="706" y="139"/>
      <point x="834" y="172"/>
      <point x="938" y="243"/>
      <point x="1005" y="349"/>
      <point x="1007" y="415" type="qcurve"/>
      <point x="1009" y="484"/>
      <point x="966" y="589"/>
      <point x="891" y="671"/>
      <point x="790" y="734"/>
    </contour>
    <contour>
      <point x="803" y="923" type="qcurve"/>
      <point x="853" y="944"/>
      <point x="941" y="992"/>
      <point x="1007" y="1050"/>
      <point x="1046" y="1121"/>
      <point x="1047" y="1163" type="qcurve"/>
      <point x="1048" y="1214"/>
      <point x="1018" y="1283"/>
      <point x="967" y="1326"/>
      <point x="902" y="1348"/>
      <point x="868" y="1352" type="qcurve"/>
      <point x="822" y="1357"/>
      <point x="728" y="1331"/>
      <point x="652" y="1279"/>
      <point x="603" y="1207"/>
      <point x="603" y="1167" type="qcurve"/>
      <point x="603" y="1120"/>
      <point x="632" y="1049"/>
      <point x="684" y="992"/>
      <point x="758" y="945"/>
    </contour>
  </outline>
</glyph>
<glyph name="less" format="1">
  <advance width="1300"/>
  <unicode hex="003C"/>
  <outline>
    <contour>
      <point x="1307" y="1187" type="line"/>
      <point x="1276" y="1012" type="line"/>
      <point x="524" y="646" type="line"/>
      <point x="443" y="626" type="line"/>
      <point x="516" y="606" type="line"/>
      <point x="1140" y="242" type="line"/>
      <point x="1109" y="67" type="line"/>
      <point x="292" y="524" type="line"/>
      <point x="329" y="733" type="line"/>
    </contour>
  </outline>
</glyph>
<glyph name="equal" format="1">
  <advance width="1100"/>
  <unicode hex="003D"/>
  <outline>
    <contour>
      <point x="341" y="800" type="line"/>
      <point x="1041" y="800" type="line"/>
      <point x="1013" y="645" type="line"/>
      <point x="313" y="645" type="line"/>
    </contour>
    <contour>
      <point x="270" y="400" type="line"/>
      <point x="970" y="400" type="line"/>
      <point x="943" y="245" type="line"/>
      <point x="243" y="245" type="line"/>
    </contour>
  </outline>
</glyph>
<glyph name="at" format="1">
  <advance width="2000"/>
  <unicode hex="0040"/>
  <outline>
    <contour>
      <point x="1355" y="930" type="line"/>
      <point x="1337" y="938"/>
      <point x="1286" y="950"/>
      <point x="1263" y="953" type="qcurve"/>
      <point x="1236" y="957"/>
      <point x="1207" y="958" type="qcurve"/>
      <point x="1105" y="958"/>
      <point x="953" y="888"/>
      <point x="847" y="766"/>
      <point x="785" y="604"/>
      <point x="774" y="512" type="qcurve"/>
      <point x="763" y="420"/>
      <point x="782" y="283"/>
      <point x="831" y="190"/>
      <point x="906" y="144"/>
      <point x="951" y="144" type="qcurve"/>
      <point x="1003" y="144"/>
      <point x="1091" y="172"/>
      <point x="1164" y="218"/>
      <point x="1225" y="276"/>
      <point x="1249" y="306" type="qcurve"/>
    </contour>
    <contour>
      <point x="1409" y="180" type="line"/>
      <point x="1405" y="153"/>
      <point x="1419" y="118"/>
      <point x="1448" y="96"/>
      <point x="1487" y="86"/>
      <point x="1507" y="85" type="qcurve"/>
      <point x="1553" y="82"/>
      <point x="1629" y="153"/>
      <point x="1688" y="276"/>
      <point x="1730" y="438"/>
      <point x="1753" y="617"/>
      <point x="1756" y="800"/>
      <point x="1736" y="963"/>
      <point x="1694" y="1094"/>
      <point x="1660" y="1132" type="qcurve"/>
      <point x="1616" y="1181"/>
      <point x="1528" y="1250"/>
      <point x="1428" y="1293"/>
      <point x="1307" y="1315"/>
      <point x="1229" y="1317" type="qcurve"/>
      <point x="1072" y="1321"/>
      <point x="819" y="1213"/>
      <point x="631" y="1014"/>
      <point x="508" y="737"/>
      <point x="482" y="573" type="qcurve"/>
      <point x="465" y="467"/>
      <point x="464" y="262"/>
      <point x="501" y="78"/>
      <point x="576" y="-79"/>
      <point x="695" y="-193"/>
      <point x="860" y="-259"/>
      <point x="967" y="-260" type="qcurve"/>
      <point x="1017" y="-261"/>
      <point x="1113" y="-246"/>
      <point x="1197" y="-222"/>
      <point x="1265" y="-193"/>
      <point x="1287" y="-179" type="qcurve"/>
      <point x="1340" y="-329" type="line"/>
      <point x="1244" y="-376"/>
      <point x="1043" y="-421"/>
      <point x="930" y="-420" type="qcurve"/>
      <point x="800" y="-420"/>
      <point x="592" y="-346"/>
      <point x="435" y="-216"/>
      <point x="327" y="-38"/>
      <point x="266" y="172"/>
      <point x="251" y="407"/>
      <point x="265" y="528" type="qcurve"/>
      <point x="279" y="649"/>
      <point x="357" y="886"/>
      <point x="482" y="1101"/>
      <point x="652" y="1284"/>
      <point x="865" y="1414"/>
      <point x="1119" y="1483"/>
      <point x="1265" y="1478" type="qcurve"/>
      <point x="1356" y="1475"/>
      <point x="1509" y="1447"/>
      <point x="1640" y="1391"/>
      <point x="1754" y="1304"/>
      <point x="1805" y="1241" type="qcurve"/>
      <point x="1851" y="1185"/>
      <point x="1914" y="1040"/>
      <point x="1949" y="876"/>
      <point x="1958" y="697"/>
      <point x="1942" y="518"/>
      <point x="1903" y="342"/>
      <point x="1872" y="263" type="qcurve"/>
      <point x="1834" y="166"/>
      <point x="1742" y="42"/>
      <point x="1635" y="-27"/>
      <point x="1513" y="-50"/>
      <point x="1446" y="-45" type="qcurve"/>
      <point x="1365" y="-40"/>
      <point x="1247" y="59"/>
      <point x="1224" y="162" type="qcurve"/>
      <point x="1109" y="49" type="line"/>
      <point x="1088" y="32"/>
      <point x="1047" y="7"/>
      <point x="998" y="-9"/>
      <point x="934" y="-17"/>
      <point x="890" y="-17" type="qcurve"/>
      <point x="808" y="-17"/>
      <point x="685" y="66"/>
      <point x="608" y="214"/>
      <point x="581" y="416"/>
      <point x="595" y="536" type="qcurve"/>
      <point x="608" y="647"/>
      <point x="701" y="857"/>
      <point x="861" y="1020"/>
      <point x="1090" y="1118"/>
      <point x="1240" y="1118" type="qcurve"/>
      <point x="1301" y="1113"/>
      <point x="1360" y="1105" type="qcurve"/>
      <point x="1411" y="1098"/>
      <point x="1520" y="1078"/>
      <point x="1561" y="1063" type="qcurve"/>
    </contour>
  </outline>
</glyph>
<glyph name="A" format="1">
  <advance width="1300"/>
  <unicode hex="0041"/>
  <outline>
    <contour>
      <point x="61" y="0" type="line"/>
      <point x="713" y="1300" type="line"/>
      <point x="783" y="1500" type="line"/>
      <point x="1005" y="1520" type="line"/>
      <point x="1235" y="0" type="line"/>
      <point x="1045" y="0" type="line"/>
      <point x="976" y="450" type="line"/>
      <point x="481" y="450" type="line"/>
      <point x="256" y="0" type="line"/>
    </contour>
    <contour>
      <point x="888" y="1360" type="line"/>
      <point x="806" y="1100" type="line"/>
      <point x="556" y="600" type="line"/>
      <point x="953" y="600" type="line"/>
      <point x="878" y="1100" type="line"/>
    </contour>
  </outline>
</glyph>
<glyph name="J" format="1">
  <advance width="900"/>
  <unicode hex="004A"/>
  <outline>
    <contour>
      <point x="543" y="1497" type="line"/>
      <point x="968" y="1520" type="line"/>
      <point x="775" y="430" type="line"/>
      <point x="756" y="322"/>
      <point x="687" y="155"/>
      <point x="574" y="42"/>
      <point x="411" y="-17"/>
      <point x="299" y="-17" type="qcurve"/>
      <point x="258" y="-17"/>
      <point x="177" y="10"/>
      <point x="105" y="50"/>
      <point x="47" y="96"/>
      <point x="30" y="115" type="qcurve"/>
      <point x="143" y="233" type="line"/>
      <point x="152" y="223"/>
      <point x="186" y="196"/>
      <point x="233" y="172"/>
      <point x="291" y="156"/>
      <point x="324" y="156" type="qcurve"/>
      <point x="393" y="156"/>
      <point x="481" y="195"/>
      <point x="536" y="273"/>
      <point x="568" y="391"/>
      <point x="582" y="470" type="qcurve"/>
      <point x="702" y="1148" type="line"/>
      <point x="755" y="1338" type="line"/>
      <point x="533" y="1325" type="line"/>
    </contour>
  </outline>
</glyph>
<glyph name="K" format="1">
  <advance width="1200"/>
  <unicode hex="004B"/>
  <outline>
    <contour>
      <point x="200" y="0" type="line"/>
      <point x="427" y="1290" type="line"/>
      <point x="434" y="1500" type="line"/>
      <point x="668" y="1520" type="line"/>
      <point x="550" y="856" type="line"/>
      <point x="1205" y="1500" type="line"/>
      <point x="1427" y="1500" type="line"/>
      <point x="784" y="865" type="line"/>
      <point x="604" y="802" type="line"/>
      <point x="768" y="744" type="line"/>
      <point x="1190" y="0" type="line"/>
      <point x="953" y="0" type="line"/>
      <point x="531" y="746" type="line"/>
      <point x="400" y="0" type="line"/>
    </contour>
  </outline>
</glyph>
<glyph name="M" format="1">
  <advance width="1800"/>
  <unicode hex="004D"/>
  <outline>
    <contour>
      <point x="1400" y="0" type="line"/>
      <point x="1576" y="1000" type="line"/>
      <point x="1676" y="1320" type="line"/>
      <point x="1671" y="1321" type="line"/>
      <point x="1517" y="1020" type="line"/>
      <point x="1357" y="769"/>
      <point x="1232" y="572" type="qcurve"/>
      <point x="1178" y="488"/>
      <point x="1076" y="327"/>
      <point x="995" y="203"/>
      <point x="946" y="128"/>
      <point x="945" y="130" type="qcurve"/>
      <point x="876" y="130" type="line"/>
      <point x="647" y="920" type="line"/>
      <point x="585" y="1321" type="line"/>
      <point x="579" y="1320" type="line"/>
      <point x="558" y="901" type="line"/>
      <point x="400" y="0" type="line"/>
      <point x="208" y="0" type="line"/>
      <point x="435" y="1290" type="line"/>
      <point x="444" y="1500" type="line"/>
      <point x="674" y="1520" type="line"/>
      <point x="947" y="580" type="line"/>
      <point x="956" y="320" type="line"/>
      <point x="1057" y="580" type="line"/>
      <point x="1648" y="1500" type="line"/>
      <point x="1868" y="1520" type="line"/>
      <point x="1600" y="0" type="line"/>
    </contour>
  </outline>
</glyph>
<glyph name="P" format="1">
  <advance width="1200"/>
  <unicode hex="0050"/>
  <outline>
    <contour>
      <point x="510" y="624" type="qcurve"/>
      <point x="400" y="0" type="line"/>
      <point x="200" y="0" type="line"/>
      <point x="427" y="1290" type="line"/>
      <point x="427" y="1490" type="line"/>
      <point x="458" y="1495"/>
      <point x="544" y="1503"/>
      <point x="639" y="1509"/>
      <point x="734" y="1512"/>
      <point x="773" y="1512" type="qcurve"/>
      <point x="888" y="1512"/>
      <point x="1084" y="1465"/>
      <point x="1222" y="1366"/>
      <point x="1291" y="1211"/>
      <point x="1279" y="1104" type="qcurve"/>
      <point x="1262" y="953"/>
      <point x="1132" y="758"/>
      <point x="928" y="649"/>
      <point x="662" y="615"/>
    </contour>
    <contour>
      <point x="602" y="1147" type="line"/>
      <point x="534" y="765" type="line"/>
      <point x="669" y="755"/>
      <point x="870" y="784"/>
      <point x="1007" y="865"/>
      <point x="1083" y="999"/>
      <point x="1093" y="1095" type="qcurve"/>
      <point x="1100" y="1168"/>
      <point x="1048" y="1274"/>
      <point x="959" y="1343"/>
      <point x="846" y="1375"/>
      <point x="794" y="1375" type="qcurve"/>
      <point x="777" y="1375"/>
      <point x="730" y="1372"/>
      <point x="681" y="1368"/>
      <point x="635" y="1362"/>
      <point x="619" y="1359" type="qcurve"/>
    </contour>
  </outline>
</glyph>
<glyph name="R" format="1">
  <advance width="1300"/>
  <unicode hex="0052"/>
  <outline>
    <contour>
      <point x="508" y="619" type="line"/>
      <point x="400" y="0" type="line"/>
      <point x="200" y="0" type="line"/>
      <point x="427" y="1290" type="line"/>
      <point x="427" y="1490" type="line"/>
      <point x="461" y="1494"/>
      <point x="552" y="1502"/>
      <point x="650" y="1508"/>
      <point x="750" y="1511"/>
      <point x="793" y="1512" type="qcurve"/>
      <point x="926" y="1514"/>
      <point x="1117" y="1453"/>
      <point x="1235" y="1343"/>
      <point x="1285" y="1190"/>
      <point x="1278" y="1099" type="qcurve"/>
      <point x="1268" y="975"/>
      <point x="1173" y="801"/>
      <point x="1032" y="690"/>
      <point x="857" y="635"/>
      <point x="768" y="629" type="qcurve"/>
      <point x="894" y="593" type="line"/>
      <point x="1233" y="0" type="line"/>
      <point x="1010" y="0" type="line"/>
      <point x="671" y="600" type="line"/>
      <point x="663" y="614"/>
      <point x="636" y="619"/>
      <point x="628" y="619" type="qcurve"/>
    </contour>
    <contour>
      <point x="602" y="1147" type="line"/>
      <point x="534" y="763" type="line"/>
      <point x="682" y="763" type="line"/>
      <point x="865" y="763"/>
      <point x="1072" y="924"/>
      <point x="1095" y="1083" type="qcurve"/>
      <point x="1105" y="1149"/>
      <point x="1059" y="1256"/>
      <point x="972" y="1333"/>
      <point x="855" y="1375"/>
      <point x="794" y="1375" type="qcurve"/>
      <point x="752" y="1375"/>
      <point x="655" y="1371"/>
      <point x="620" y="1364" type="qcurve"/>
    </contour>
  </outline>
</glyph>
<glyph name="S" format="1">
  <advance width="1100"/>
  <unicode hex="0053"/>
  <outline>
    <contour>
      <point x="1098" y="1252" type="line"/>
      <point x="1033" y="1304"/>
      <point x="910" y="1352"/>
      <point x="836" y="1350" type="qcurve"/>
      <point x="773" y="1348"/>
      <point x="655" y="1311"/>
      <point x="565" y="1246"/>
      <point x="512" y="1156"/>
      <point x="514" y="1101" type="qcurve"/>
      <point x="515" y="1049"/>
      <point x="565" y="974"/>
      <point x="646" y="913"/>
      <point x="747" y="861"/>
      <point x="853" y="804"/>
      <point x="954" y="735"/>
      <point x="1033" y="642"/>
      <point x="1081" y="517"/>
      <point x="1081" y="432" type="qcurve"/>
      <point x="1081" y="321"/>
      <point x="982" y="147"/>
      <point x="816" y="30"/>
      <point x="601" y="-25"/>
      <point x="485" y="-17" type="qcurve"/>
      <point x="367" y="-9"/>
      <point x="178" y="75"/>
      <point x="108" y="134" type="qcurve"/>
      <point x="226" y="284" type="line"/>
      <point x="250" y="262"/>
      <point x="308" y="218"/>
      <point x="376" y="180"/>
      <point x="455" y="153"/>
      <point x="500" y="148" type="qcurve"/>
      <point x="557" y="141"/>
      <point x="690" y="165"/>
      <point x="803" y="233"/>
      <point x="877" y="349"/>
      <point x="877" y="433" type="qcurve"/>
      <point x="877" y="488"/>
      <point x="828" y="571"/>
      <point x="748" y="638"/>
      <point x="646" y="695"/>
      <point x="540" y="755"/>
      <point x="439" y="824"/>
      <point x="359" y="916"/>
      <point x="311" y="1036"/>
      <point x="311" y="1116" type="qcurve"/>
      <point x="311" y="1216"/>
      <point x="400" y="1367"/>
      <point x="548" y="1467"/>
      <point x="739" y="1517"/>
      <point x="841" y="1517" type="qcurve"/>
      <point x="903" y="1517"/>
      <point x="1013" y="1491"/>
      <point x="1107" y="1449"/>
      <point x="1184" y="1397"/>
      <point x="1214" y="1371" type="qcurve"/>
    </contour>
  </outline>
</glyph>
<glyph name="U" format="1">
  <advance width="1400"/>
  <unicode hex="0055"/>
  <outline>
    <contour>
      <point x="1476" y="1500" type="line"/>
      <point x="1304" y="523" type="line"/>
      <point x="1277" y="367"/>
      <point x="1160" y="154"/>
      <point x="997" y="26"/>
      <point x="795" y="-23"/>
      <point x="682" y="-17" type="qcurve"/>
      <point x="575" y="-11"/>
      <point x="408" y="72"/>
      <point x="302" y="221"/>
      <point x="265" y="435"/>
      <point x="289" y="573" type="qcurve"/>
      <point x="415" y="1290" type="line"/>
      <point x="422" y="1500" type="line"/>
      <point x="653" y="1520" type="line"/>
      <point x="482" y="554" type="line"/>
      <point x="468" y="473"/>
      <point x="476" y="351"/>
      <point x="509" y="263"/>
      <point x="563" y="205"/>
      <point x="626" y="170"/>
      <point x="692" y="155"/>
      <point x="721" y="153" type="qcurve"/>
      <point x="799" y="149"/>
      <point x="927" y="198"/>
      <point x="1025" y="293"/>
      <point x="1089" y="425"/>
      <point x="1103" y="504" type="qcurve"/>
      <point x="1279" y="1500" type="line"/>
    </contour>
  </outline>
</glyph>
<glyph name="V" format="1">
  <advance width="1300"/>
  <unicode hex="0056"/>
  <outline>
    <contour>
      <point x="673" y="500" type="line"/>
      <point x="697" y="140" type="line"/>
      <point x="801" y="454" type="line"/>
      <point x="1315" y="1500" type="line"/>
      <point x="1504" y="1500" type="line"/>
      <point x="852" y="180" type="line"/>
      <point x="791" y="-20" type="line"/>
      <point x="549" y="0" type="line"/>
      <point x="331" y="1500" type="line"/>
      <point x="530" y="1520" type="line"/>
    </contour>
  </outline>
</glyph>
<glyph name="W" format="1">
  <advance width="1900"/>
  <unicode hex="0057"/>
  <outline>
    <contour>
      <point x="1136" y="1500" type="line"/>
      <point x="1293" y="1500" type="line"/>
      <point x="1369" y="460" type="line"/>
      <point x="1369" y="100" type="line"/>
      <point x="1373" y="100" type="line"/>
      <point x="1460" y="460" type="line"/>
      <point x="1903" y="1500" type="line"/>
      <point x="2078" y="1500" type="line"/>
      <point x="1440" y="0" type="line"/>
      <point x="1208" y="0" type="line"/>
      <point x="1143" y="885" type="line"/>
      <point x="1177" y="1243" type="line"/>
      <point x="1050" y="885" type="line"/>
      <point x="673" y="0" type="line"/>
      <point x="441" y="0" type="line"/>
      <point x="331" y="1500" type="line"/>
      <point x="526" y="1520" type="line"/>
      <point x="603" y="460" type="line"/>
      <point x="603" y="100" type="line"/>
      <point x="607" y="100" type="line"/>
      <point x="693" y="460" type="line"/>
    </contour>
  </outline>
</glyph>
<glyph name="Y" format="1">
  <advance width="1200"/>
  <unicode hex="0059"/>
  <outline>
    <contour>
      <point x="814" y="935" type="line"/>
      <point x="1202" y="1500" type="line"/>
      <point x="1394" y="1500" type="line"/>
      <point x="808" y="646" type="line"/>
      <point x="695" y="0" type="line"/>
      <point x="495" y="0" type="line"/>
      <point x="608" y="645" type="line"/>
      <point x="323" y="1500" type="line"/>
      <point x="531" y="1520" type="line"/>
      <point x="709" y="954" type="line"/>
      <point x="744" y="705" type="line"/>
    </contour>
  </outline>
</glyph>
<glyph name="bracketleft" format="1">
  <advance width="900"/>
  <unicode hex="005B"/>
  <outline>
    <contour>
      <point x="354" y="1320" type="line"/>
      <point x="368" y="1520" type="line"/>
      <point x="934" y="1520" type="line"/>
      <point x="907" y="1370" type="line"/>
      <point x="535" y="1370" type="line"/>
      <point x="520" y="1170" type="line"/>
      <point x="301" y="-70" type="line"/>
      <point x="246" y="-270" type="line"/>
      <point x="618" y="-270" type="line"/>
      <point x="591" y="-420" type="line"/>
      <point x="25" y="-420" type="line"/>
      <point x="83" y="-220" type="line"/>
    </contour>
  </outline>
</glyph>
<glyph name="backslash" format="1">
  <advance width="1100"/>
  <unicode hex="005C"/>
  <outline>
    <contour>
      <point x="363" y="1600" type="line"/>
      <point x="557" y="1600" type="line"/>
      <point x="967" y="-100" type="line"/>
      <point x="763" y="-100" type="line"/>
    </contour>
  </outline>
</glyph>
<glyph name="bracketright" format="1">
  <advance width="1000"/>
  <unicode hex="005D"/>
  <outline>
    <contour>
      <point x="633" y="-220" type="line"/>
      <point x="619" y="-420" type="line"/>
      <point x="53" y="-420" type="line"/>
      <point x="80" y="-270" type="line"/>
      <point x="452" y="-270" type="line"/>
      <point x="467" y="-70" type="line"/>
      <point x="686" y="1170" type="line"/>
      <point x="741" y="1370" type="line"/>
      <point x="369" y="1370" type="line"/>
      <point x="396" y="1520" type="line"/>
      <point x="962" y="1520" type="line"/>
      <point x="904" y="1320" type="line"/>
    </contour>
  </outline>
</glyph>
<glyph name="grave" format="1">
  <advance width="1100"/>
  <unicode hex="0060"/>
  <outline>
    <contour>
      <point x="871" y="1200" type="line"/>
      <point x="721" y="1200" type="line"/>
      <point x="549" y="1500" type="line"/>
      <point x="757" y="1520" type="line"/>
    </contour>
  </outline>
</glyph>
<glyph name="a" format="1">
  <advance width="1100"/>
  <unicode hex="0061"/>
  <outline>
    <contour>
      <point x="927" y="930" type="line"/>
      <point x="909" y="938"/>
      <point x="858" y="950"/>
      <point x="835" y="953" type="qcurve"/>
      <point x="808" y="957"/>
      <point x="779" y="958" type="qcurve"/>
      <point x="677" y="958"/>
      <point x="525" y="888"/>
      <point x="419" y="766"/>
      <point x="357" y="604"/>
      <point x="346" y="512" type="qcurve"/>
      <point x="335" y="420"/>
      <point x="354" y="283"/>
      <point x="403" y="190"/>
      <point x="478" y="144"/>
      <point x="523" y="144" type="qcurve"/>
      <point x="575" y="144"/>
      <point x="663" y="172"/>
      <point x="736" y="218"/>
      <point x="797" y="276"/>
      <point x="821" y="306" type="qcurve"/>
    </contour>
    <contour>
      <point x="768" y="0" type="line"/>
      <point x="796" y="162" type="line"/>
      <point x="681" y="49" type="line"/>
      <point x="660" y="32"/>
      <point x="619" y="7"/>
      <point x="570" y="-9"/>
      <point x="506" y="-17"/>
      <point x="462" y="-17" type="qcurve"/>
      <point x="380" y="-17"/>
      <point x="257" y="66"/>
      <point x="180" y="214"/>
      <point x="153" y="416"/>
      <point x="167" y="536" type="qcurve"/>
      <point x="180" y="647"/>
      <point x="273" y="857"/>
      <point x="433" y="1020"/>
      <point x="662" y="1118"/>
      <point x="812" y="1118" type="qcurve"/>
      <point x="873" y="1113"/>
      <point x="932" y="1105" type="qcurve"/>
      <point x="983" y="1098"/>
      <point x="1092" y="1078"/>
      <point x="1133" y="1063" type="qcurve"/>
      <point x="981" y="180" type="line"/>
      <point x="970" y="0" type="line"/>
    </contour>
  </outline>
</glyph>
<glyph name="b" format="1">
  <advance width="1200"/>
  <unicode hex="0062"/>
  <outline>
    <contour>
      <point x="412" y="171" type="line"/>
      <point x="430" y="165"/>
      <point x="479" y="155"/>
      <point x="534" y="147"/>
      <point x="593" y="143"/>
      <point x="621" y="143" type="qcurve"/>
      <point x="725" y="142"/>
      <point x="863" y="225"/>
      <point x="951" y="357"/>
      <point x="996" y="521"/>
      <point x="1007" y="601" type="qcurve"/>
      <point x="1018" y="682"/>
      <point x="1001" y="814"/>
      <point x="953" y="907"/>
      <point x="880" y="957"/>
      <point x="835" y="957" type="qcurve"/>
      <point x="792" y="957"/>
      <point x="717" y="948"/>
      <point x="645" y="923"/>
      <point x="571" y="879"/>
      <point x="530" y="845" type="qcurve"/>
    </contour>
    <contour>
      <point x="450" y="1420" type="line"/>
      <point x="462" y="1600" type="line"/>
      <point x="667" y="1620" type="line"/>
      <point x="553" y="974" type="line"/>
      <point x="654" y="1065" type="line"/>
      <point x="710" y="1089"/>
      <point x="818" y="1117"/>
      <point x="874" y="1117" type="qcurve"/>
      <point x="957" y="1117"/>
      <point x="1085" y="1038"/>
      <point x="1167" y="898"/>
      <point x="1201" y="707"/>
      <point x="1189" y="596" type="qcurve"/>
      <point x="1174" y="457"/>
      <point x="1076" y="231"/>
      <point x="919" y="70"/>
      <point x="706" y="-17"/>
      <point x="576" y="-17" type="qcurve"/>
      <point x="551" y="-17"/>
      <point x="485" y="-13"/>
      <point x="412" y="-5"/>
      <point x="337" y="5"/>
      <point x="272" y="16"/>
      <point x="220" y="29"/>
      <point x="206" y="35" type="qcurve"/>
    </contour>
  </outline>
</glyph>
<glyph name="d" format="1">
  <advance width="1200"/>
  <unicode hex="0064"/>
  <outline>
    <contour>
      <point x="821" y="940" type="line"/>
      <point x="719" y="940"/>
      <point x="565" y="872"/>
      <point x="457" y="754"/>
      <point x="396" y="594"/>
      <point x="388" y="502" type="qcurve"/>
      <point x="380" y="411"/>
      <point x="400" y="276"/>
      <point x="448" y="188"/>
      <point x="520" y="144"/>
      <point x="565" y="144" type="qcurve"/>
      <point x="617" y="144"/>
      <point x="705" y="172"/>
      <point x="778" y="218"/>
      <point x="839" y="276"/>
      <point x="863" y="306" type="qcurve"/>
      <point x="975" y="940" type="line"/>
    </contour>
    <contour>
      <point x="810" y="0" type="line"/>
      <point x="838" y="162" type="line"/>
      <point x="723" y="49" type="line"/>
      <point x="702" y="32"/>
      <point x="661" y="7"/>
      <point x="612" y="-9"/>
      <point x="548" y="-17"/>
      <point x="504" y="-17" type="qcurve"/>
      <point x="422" y="-17"/>
      <point x="302" y="64"/>
      <point x="227" y="208"/>
      <point x="199" y="407"/>
      <point x="209" y="526" type="qcurve"/>
      <point x="218" y="638"/>
      <point x="310" y="845"/>
      <point x="472" y="1004"/>
      <point x="704" y="1100"/>
      <point x="854" y="1100" type="qcurve"/>
      <point x="1003" y="1100" type="line"/>
      <point x="1095" y="1620" type="line"/>
      <point x="1274" y="1600" type="line"/>
      <point x="1023" y="180" type="line"/>
      <point x="1012" y="0" type="line"/>
    </contour>
  </outline>
</glyph>
<glyph name="g" format="1">
  <advance width="1200"/>
  <unicode hex="0067"/>
  <outline>
    <contour>
      <point x="841" y="135" type="line"/>
      <point x="735" y="25" type="line"/>
      <point x="725" y="19"/>
      <point x="692" y="3"/>
      <point x="644" y="-11"/>
      <point x="582" y="-19"/>
      <point x="543" y="-17" type="qcurve"/>
      <point x="455" y="-12"/>
      <point x="322" y="76"/>
      <point x="237" y="224"/>
      <point x="202" y="426"/>
      <point x="212" y="545" type="qcurve"/>
      <point x="222" y="663"/>
      <point x="312" y="876"/>
      <point x="459" y="1035"/>
      <point x="658" y="1124"/>
      <point x="778" y="1117" type="qcurve"/>
      <point x="815" y="1115"/>
      <point x="902" y="1090"/>
      <point x="931" y="1070" type="qcurve"/>
      <point x="986" y="958" type="line"/>
      <point x="1015" y="1120" type="line"/>
      <point x="1193" y="1100" type="line"/>
      <point x="991" y="-46" type="line"/>
      <point x="971" y="-158"/>
      <point x="875" y="-340"/>
      <point x="731" y="-466"/>
      <point x="541" y="-527"/>
      <point x="428" y="-517" type="qcurve"/>
      <point x="350" y="-510"/>
      <point x="237" y="-469"/>
      <point x="200" y="-446" type="qcurve"/>
      <point x="157" y="-420"/>
      <point x="128" y="-388" type="qcurve"/>
      <point x="245" y="-278" type="line"/>
      <point x="271" y="-296"/>
      <point x="304" y="-312" type="qcurve"/>
      <point x="332" y="-326"/>
      <point x="410" y="-352"/>
      <point x="458" y="-357" type="qcurve"/>
      <point x="527" y="-365"/>
      <point x="645" y="-324"/>
      <point x="737" y="-237"/>
      <point x="798" y="-109"/>
      <point x="812" y="-31" type="qcurve"/>
    </contour>
    <contour>
      <point x="965" y="834" type="line"/>
      <point x="938" y="866"/>
      <point x="905" y="892" type="qcurve"/>
      <point x="876" y="915"/>
      <point x="796" y="953"/>
      <point x="747" y="957" type="qcurve"/>
      <point x="689" y="961"/>
      <point x="594" y="930"/>
      <point x="518" y="869"/>
      <point x="460" y="786"/>
      <point x="420" y="689"/>
      <point x="395" y="584"/>
      <point x="391" y="533" type="qcurve"/>
      <point x="376" y="360"/>
      <point x="465" y="159"/>
      <point x="579" y="144" type="qcurve"/>
      <point x="630" y="137"/>
      <point x="714" y="155"/>
      <point x="784" y="193"/>
      <point x="841" y="246"/>
      <point x="866" y="275" type="qcurve"/>
    </contour>
  </outline>
</glyph>
<glyph name="k" format="1">
  <advance width="1100"/>
  <unicode hex="006B"/>
  <outline>
    <contour>
      <point x="200" y="0" type="line"/>
      <point x="450" y="1420" type="line"/>
      <point x="462" y="1600" type="line"/>
      <point x="667" y="1620" type="line"/>
      <point x="503" y="690" type="line"/>
      <point x="945" y="1100" type="line"/>
      <point x="1174" y="1100" type="line"/>
      <point x="732" y="690" type="line"/>
      <point x="553" y="627" type="line"/>
      <point x="710" y="567" type="line"/>
      <point x="1092" y="0" type="line"/>
      <point x="856" y="0" type="line"/>
      <point x="480" y="557" type="line"/>
      <point x="382" y="0" type="line"/>
    </contour>
  </outline>
</glyph>
<glyph name="n" format="1">
  <advance width="1200"/>
  <unicode hex="006E"/>
  <outline>
    <contour>
      <point x="382" y="0" type="line"/>
      <point x="200" y="0" type="line"/>
      <point x="393" y="1100" type="line"/>
      <point x="579" y="1120" type="line"/>
      <point x="547" y="937" type="line"/>
      <point x="627" y="1044" type="line"/>
      <point x="652" y="1061"/>
      <point x="702" y="1090"/>
      <point x="763" y="1111"/>
      <point x="841" y="1120"/>
      <point x="895" y="1117" type="qcurve"/>
      <point x="966" y="1112"/>
      <point x="1063" y="1052"/>
      <point x="1117" y="953"/>
      <point x="1129" y="823"/>
      <point x="1116" y="750" type="qcurve"/>
      <point x="984" y="0" type="line"/>
      <point x="802" y="0" type="line"/>
      <point x="934" y="750" type="line"/>
      <point x="950" y="842"/>
      <point x="889" y="952"/>
      <point x="810" y="957" type="qcurve"/>
      <point x="776" y="959"/>
      <point x="704" y="944"/>
      <point x="631" y="913"/>
      <point x="561" y="870"/>
      <point x="530" y="844" type="qcurve"/>
    </contour>
  </outline>
</glyph>
<glyph name="o" format="1">
  <advance width="1200"/>
  <unicode hex="006F"/>
  <outline>
    <contour>
      <point x="596" y="-17" type="qcurve"/>
      <point x="486" y="-10"/>
      <point x="326" y="78"/>
      <point x="228" y="227"/>
      <point x="192" y="430"/>
      <point x="205" y="553" type="qcurve"/>
      <point x="218" y="675"/>
      <point x="320" y="887"/>
      <point x="478" y="1041"/>
      <point x="681" y="1124"/>
      <point x="795" y="1117" type="qcurve"/>
      <point x="905" y="1111"/>
      <point x="1065" y="1024"/>
      <point x="1164" y="877"/>
      <point x="1202" y="675"/>
      <point x="1189" y="553" type="qcurve"/>
      <point x="1176" y="428"/>
      <point x="1072" y="214"/>
      <point x="913" y="59"/>
      <point x="709" y="-24"/>
    </contour>
    <contour>
      <point x="999" y="500" type="qcurve"/>
      <point x="1014" y="580"/>
      <point x="1018" y="730"/>
      <point x="977" y="852"/>
      <point x="883" y="938"/>
      <point x="800" y="955" type="qcurve"/>
      <point x="720" y="971"/>
      <point x="581" y="919"/>
      <point x="475" y="815"/>
      <point x="405" y="673"/>
      <point x="393" y="599" type="qcurve"/>
      <point x="380" y="516"/>
      <point x="377" y="365"/>
      <point x="416" y="244"/>
      <point x="508" y="161"/>
      <point x="591" y="146" type="qcurve"/>
      <point x="669" y="131"/>
      <point x="806" y="184"/>
      <point x="913" y="287"/>
      <point x="985" y="427"/>
    </contour>
  </outline>
</glyph>
<glyph name="p" format="1">
  <advance width="1200"/>
  <unicode hex="0070"/>
  <outline>
    <contour>
      <point x="574" y="160" type="line"/>
      <point x="682" y="160"/>
      <point x="832" y="219"/>
      <point x="932" y="329"/>
      <point x="989" y="483"/>
      <point x="1003" y="578" type="qcurve"/>
      <point x="1015" y="660"/>
      <point x="1001" y="794"/>
      <point x="955" y="891"/>
      <point x="880" y="949"/>
      <point x="830" y="957" type="qcurve"/>
      <point x="785" y="964"/>
      <point x="704" y="950"/>
      <point x="630" y="914"/>
      <point x="561" y="860"/>
      <point x="527" y="827" type="qcurve"/>
      <point x="410" y="160" type="line"/>
    </contour>
    <contour>
      <point x="293" y="-500" type="line"/>
      <point x="111" y="-500" type="line"/>
      <point x="393" y="1100" type="line"/>
      <point x="579" y="1120" type="line"/>
      <point x="548" y="944" type="line"/>
      <point x="643" y="1047" type="line"/>
      <point x="663" y="1060"/>
      <point x="705" y="1085"/>
      <point x="754" y="1105"/>
      <point x="815" y="1117"/>
      <point x="854" y="1117" type="qcurve"/>
      <point x="938" y="1117"/>
      <point x="1077" y="1043"/>
      <point x="1168" y="902"/>
      <point x="1202" y="697"/>
      <point x="1183" y="565" type="qcurve"/>
      <point x="1165" y="443"/>
      <point x="1071" y="236"/>
      <point x="909" y="85"/>
      <point x="676" y="0"/>
      <point x="519" y="0" type="qcurve"/>
      <point x="382" y="0" type="line"/>
    </contour>
  </outline>
</glyph>
<glyph name="q" format="1">
  <advance width="1200"/>
  <unicode hex="0071"/>
  <outline>
    <contour>
      <point x="982" y="935" type="line"/>
      <point x="946" y="943"/>
      <point x="835" y="955"/>
      <point x="780" y="957" type="qcurve"/>
      <point x="711" y="960"/>
      <point x="604" y="925"/>
      <point x="522" y="860"/>
      <point x="463" y="772"/>
      <point x="423" y="674"/>
      <point x="400" y="571"/>
      <point x="395" y="524" type="qcurve"/>
      <point x="385" y="429"/>
      <point x="400" y="292"/>
      <point x="443" y="201"/>
      <point x="513" y="150"/>
      <point x="558" y="143" type="qcurve"/>
      <point x="597" y="137"/>
      <point x="677" y="151"/>
      <point x="756" y="187"/>
      <point x="831" y="239"/>
      <point x="865" y="270" type="qcurve"/>
    </contour>
    <contour>
      <point x="841" y="136" type="line"/>
      <point x="718" y="29" type="line"/>
      <point x="690" y="17"/>
      <point x="644" y="0"/>
      <point x="599" y="-12"/>
      <point x="550" y="-17"/>
      <point x="519" y="-17" type="qcurve"/>
      <point x="438" y="-17"/>
      <point x="313" y="57"/>
      <point x="232" y="196"/>
      <point x="197" y="397"/>
      <point x="208" y="524" type="qcurve"/>
      <point x="220" y="663"/>
      <point x="324" y="889"/>
      <point x="486" y="1046"/>
      <point x="695" y="1124"/>
      <point x="812" y="1117" type="qcurve"/>
      <point x="875" y="1113"/>
      <point x="968" y="1105"/>
      <point x="1050" y="1094"/>
      <point x="1134" y="1077"/>
      <point x="1187" y="1065" type="qcurve"/>
      <point x="911" y="-500" type="line"/>
      <point x="729" y="-500" type="line"/>
    </contour>
  </outline>
</glyph>
<glyph name="s" format="1">
  <advance width="900"/>
  <unicode hex="0073"/>
  <outline>
    <contour>
      <point x="823" y="919" type="line"/>
      <point x="806" y="928"/>
      <point x="761" y="948"/>
      <point x="710" y="965"/>
      <point x="657" y="976"/>
      <point x="632" y="976" type="qcurve"/>
      <point x="519" y="978"/>
      <point x="404" y="903"/>
      <point x="402" y="835" type="qcurve"/>
      <point x="401" y="792"/>
      <point x="434" y="741"/>
      <point x="502" y="702"/>
      <point x="604" y="664"/>
      <point x="672" y="635" type="qcurve"/>
      <point x="716" y="616"/>
      <point x="787" y="557"/>
      <point x="837" y="483"/>
      <point x="861" y="397"/>
      <point x="858" y="351" type="qcurve"/>
      <point x="850" y="249"/>
      <point x="763" y="103"/>
      <point x="629" y="13"/>
      <point x="460" y="-24"/>
      <point x="371" y="-17" type="qcurve"/>
      <point x="337" y="-14"/>
      <point x="253" y="-1"/>
      <point x="171" y="21"/>
      <point x="98" y="51"/>
      <point x="76" y="69" type="qcurve"/>
      <point x="165" y="201" type="line"/>
      <point x="187" y="189"/>
      <point x="247" y="165"/>
      <point x="313" y="146"/>
      <point x="379" y="133"/>
      <point x="406" y="133" type="qcurve"/>
      <point x="464" y="133"/>
      <point x="561" y="155"/>
      <point x="632" y="200"/>
      <point x="674" y="271"/>
      <point x="677" y="320" type="qcurve"/>
      <point x="680" y="366"/>
      <point x="658" y="426"/>
      <point x="599" y="474"/>
      <point x="498" y="521"/>
      <point x="422" y="553" type="qcurve"/>
      <point x="376" y="572"/>
      <point x="307" y="620"/>
      <point x="262" y="685"/>
      <point x="242" y="773"/>
      <point x="244" y="832" type="qcurve"/>
      <point x="246" y="896"/>
      <point x="303" y="1007"/>
      <point x="409" y="1086"/>
      <point x="561" y="1124"/>
      <point x="659" y="1117" type="qcurve"/>
      <point x="697" y="1114"/>
      <point x="769" y="1101"/>
      <point x="833" y="1083"/>
      <point x="885" y="1060"/>
      <point x="903" y="1047" type="qcurve"/>
    </contour>
  </outline>
</glyph>
<glyph name="t" format="1">
  <advance width="800"/>
  <unicode hex="0074"/>
  <outline>
    <contour>
      <point x="448" y="376" type="line"/>
      <point x="431" y="299"/>
      <point x="428" y="208"/>
      <point x="451" y="158"/>
      <point x="494" y="143"/>
      <point x="522" y="143" type="qcurve"/>
      <point x="540" y="143"/>
      <point x="577" y="148"/>
      <point x="591" y="152" type="qcurve"/>
      <point x="608" y="156"/>
      <point x="623" y="161" type="qcurve"/>
      <point x="671" y="40" type="line"/>
      <point x="657" y="32"/>
      <point x="627" y="11"/>
      <point x="584" y="-7"/>
      <point x="520" y="-19"/>
      <point x="474" y="-17" type="qcurve"/>
      <point x="394" y="-14"/>
      <point x="299" y="53"/>
      <point x="255" y="165"/>
      <point x="255" y="314"/>
      <point x="270" y="400" type="qcurve"/>
      <point x="365" y="940" type="line"/>
      <point x="215" y="940" type="line"/>
      <point x="243" y="1100" type="line"/>
      <point x="393" y="1100" type="line"/>
      <point x="430" y="1309" type="line"/>
      <point x="627" y="1420" type="line"/>
      <point x="570" y="1100" type="line"/>
      <point x="910" y="1100" type="line"/>
      <point x="862" y="940" type="line"/>
      <point x="547" y="940" type="line"/>
    </contour>
  </outline>
</glyph>
<glyph name="u" format="1">
  <advance width="1200"/>
  <unicode hex="0075"/>
  <outline>
    <contour>
      <point x="1011" y="1100" type="line"/>
      <point x="1197" y="1120" type="line"/>
      <point x="1000" y="0" type="line"/>
      <point x="818" y="0" type="line"/>
      <point x="846" y="163" type="line"/>
      <point x="783" y="79" type="line"/>
      <point x="766" y="57"/>
      <point x="715" y="18"/>
      <point x="649" y="-9"/>
      <point x="567" y="-21"/>
      <point x="518" y="-17" type="qcurve"/>
      <point x="438" y="-10"/>
      <point x="334" y="61"/>
      <point x="279" y="168"/>
      <point x="269" y="302"/>
      <point x="281" y="372" type="qcurve"/>
      <point x="409" y="1100" type="line"/>
      <point x="595" y="1120" type="line"/>
      <point x="463" y="372" type="line"/>
      <point x="455" y="328"/>
      <point x="462" y="251"/>
      <point x="496" y="191"/>
      <point x="557" y="150"/>
      <point x="603" y="143" type="qcurve"/>
      <point x="636" y="137"/>
      <point x="708" y="152"/>
      <point x="777" y="185"/>
      <point x="839" y="232"/>
      <point x="863" y="258" type="qcurve"/>
    </contour>
  </outline>
</glyph>
<glyph name="w" format="1">
  <advance width="1500"/>
  <unicode hex="0077"/>
  <outline>
    <contour>
      <point x="1081" y="480" type="line"/>
      <point x="1074" y="200" type="line"/>
      <point x="1163" y="480" type="line"/>
      <point x="1443" y="1100" type="line"/>
      <point x="1608" y="1117" type="line"/>
      <point x="1103" y="0" type="line"/>
      <point x="951" y="0" type="line"/>
      <point x="889" y="620" type="line"/>
      <point x="900" y="900" type="line"/>
      <point x="810" y="620" type="line"/>
      <point x="530" y="0" type="line"/>
      <point x="378" y="0" type="line"/>
      <point x="268" y="1100" type="line"/>
      <point x="444" y="1120" type="line"/>
      <point x="507" y="480" type="line"/>
      <point x="501" y="200" type="line"/>
      <point x="590" y="480" type="line"/>
      <point x="870" y="1100" type="line"/>
      <point x="1018" y="1100" type="line"/>
    </contour>
  </outline>
</glyph>
<glyph name="z" format="1">
  <advance width="1000"/>
  <unicode hex="007A"/>
  <outline>
    <contour>
      <point x="908" y="160" type="line"/>
      <point x="900" y="0" type="line"/>
      <point x="81" y="0" type="line"/>
      <point x="69" y="50" type="line"/>
      <point x="669" y="826" type="line"/>
      <point x="848" y="980" type="line"/>
      <point x="636" y="940" type="line"/>
      <point x="313" y="940" type="line"/>
      <point x="321" y="1100" type="line"/>
      <point x="1025" y="1100" type="line"/>
      <point x="1037" y="1051" type="line"/>
      <point x="452" y="280" type="line"/>
      <point x="273" y="120" type="line"/>
      <point x="485" y="160" type="line"/>
    </contour>
  </outline>
</glyph>
<glyph name="bar" format="1">
  <advance width="400"/>
  <unicode hex="007C"/>
  <outline>
    <contour>
      <point x="562" y="1520" type="line"/>
      <point x="223" y="-400" type="line"/>
      <point x="29" y="-400" type="line"/>
      <point x="364" y="1500" type="line"/>
    </contour>
  </outline>
</glyph>
<glyph name="exclamdown" format="1">
  <advance width="700"/>
  <unicode hex="00A1"/>
  <outline>
    <contour>
      <point x="166" y="-403" type="line"/>
      <point x="351" y="647" type="line"/>
      <point x="565" y="668" type="line"/>
      <point x="376" y="-403" type="line"/>
    </contour>
    <contour>
      <point x="643" y="977" type="qcurve"/>
      <point x="643" y="949"/>
      <point x="616" y="897"/>
      <point x="572" y="859"/>
      <point x="517" y="840"/>
      <point x="489" y="845" type="qcurve"/>
      <point x="435" y="855"/>
      <point x="379" y="930"/>
      <point x="380" y="977" type="qcurve"/>
      <point x="381" y="1006"/>
      <point x="408" y="1057"/>
      <point x="451" y="1095"/>
      <point x="505" y="1114"/>
      <point x="534" y="1111" type="qcurve"/>
      <point x="589" y="1104"/>
      <point x="644" y="1030"/>
    </contour>
  </outline>
</glyph>
<glyph name="sterling" format="1">
  <advance width="1100"/>
  <unicode hex="00A3"/>
  <outline>
    <contour>
      <point x="399" y="850" type="line"/>
      <point x="560" y="850" type="line"/>
      <point x="661" y="1165" type="line"/>
      <point x="694" y="1267"/>
      <point x="759" y="1403"/>
      <point x="844" y="1484"/>
      <point x="958" y="1519"/>
      <point x="1040" y="1520" type="qcurve"/>
      <point x="1091" y="1521"/>
      <point x="1173" y="1504"/>
      <point x="1206" y="1487" type="qcurve"/>
      <point x="1273" y="1454"/>
      <point x="1296" y="1428" type="qcurve"/>
      <point x="1188" y="1327" type="line"/>
      <point x="1180" y="1332"/>
      <point x="1150" y="1346"/>
      <point x="1114" y="1359"/>
      <point x="1076" y="1370"/>
      <point x="1060" y="1372" type="qcurve"/>
      <point x="1015" y="1378"/>
      <point x="951" y="1364"/>
      <point x="902" y="1311"/>
      <point x="859" y="1216"/>
      <point x="835" y="1141" type="qcurve"/>
      <point x="742" y="850" type="line"/>
      <point x="949" y="850" type="line"/>
      <point x="903" y="700" type="line"/>
      <point x="695" y="700" type="line"/>
      <point x="563" y="263"/>
      <point x="527" y="224" type="qcurve"/>
      <point x="418" y="104" type="line"/>
      <point x="587" y="147" type="line"/>
      <point x="1025" y="147" type="line"/>
      <point x="1000" y="0" type="line"/>
      <point x="54" y="0" type="line"/>
      <point x="99" y="147" type="line"/>
      <point x="237" y="147" type="line"/>
      <point x="272" y="147"/>
      <point x="320" y="197" type="qcurve"/>
      <point x="367" y="245"/>
      <point x="513" y="700" type="qcurve"/>
      <point x="373" y="700" type="line"/>
    </contour>
  </outline>
</glyph>
<glyph name="currency" format="1">
  <advance width="1200"/>
  <unicode hex="00A4"/>
  <outline>
    <contour>
      <point x="1101" y="222" type="line"/>
      <point x="982" y="121" type="line"/>
      <point x="854" y="278" type="line"/>
      <point x="841" y="260"/>
      <point x="786" y="230"/>
      <point x="714" y="211"/>
      <point x="631" y="204"/>
      <point x="549" y="216"/>
      <point x="475" y="249"/>
      <point x="448" y="278" type="qcurve"/>
      <point x="264" y="121" type="line"/>
      <point x="181" y="222" type="line"/>
      <point x="365" y="378" type="line"/>
      <point x="337" y="437"/>
      <point x="325" y="557"/>
      <point x="348" y="666"/>
      <point x="401" y="755"/>
      <point x="437" y="784" type="qcurve"/>
      <point x="307" y="940" type="line"/>
      <point x="426" y="1042" type="line"/>
      <point x="555" y="885" type="line"/>
      <point x="575" y="909"/>
      <point x="642" y="937"/>
      <point x="721" y="948"/>
      <point x="807" y="945"/>
      <point x="884" y="929"/>
      <point x="945" y="902"/>
      <point x="961" y="885" type="qcurve"/>
      <point x="1144" y="1042" type="line"/>
      <point x="1227" y="940" type="line"/>
      <point x="1044" y="784" type="line"/>
      <point x="1065" y="760"/>
      <point x="1087" y="663"/>
      <point x="1075" y="547"/>
      <point x="1023" y="426"/>
      <point x="972" y="378" type="qcurve"/>
    </contour>
    <contour>
      <point x="519" y="424" type="qcurve"/>
      <point x="553" y="386"/>
      <point x="635" y="353"/>
      <point x="722" y="356"/>
      <point x="807" y="392"/>
      <point x="843" y="424" type="qcurve"/>
      <point x="876" y="452"/>
      <point x="922" y="532"/>
      <point x="939" y="619"/>
      <point x="920" y="704"/>
      <point x="889" y="738" type="qcurve"/>
      <point x="856" y="773"/>
      <point x="772" y="798"/>
      <point x="685" y="791"/>
      <point x="604" y="759"/>
      <point x="575" y="738" type="qcurve"/>
      <point x="535" y="708"/>
      <point x="491" y="621"/>
      <point x="479" y="531"/>
      <point x="497" y="449"/>
    </contour>
  </outline>
</glyph>
<glyph name="yen" format="1">
  <advance width="1200"/>
  <unicode hex="00A5"/>
  <outline>
    <contour>
      <point x="196" y="550" type="line"/>
      <point x="591" y="550" type="line"/>
      <point x="608" y="645" type="line"/>
      <point x="590" y="700" type="line"/>
      <point x="223" y="700" type="line"/>
      <point x="249" y="850" type="line"/>
      <point x="539" y="850" type="line"/>
      <point x="323" y="1500" type="line"/>
      <point x="531" y="1520" type="line"/>
      <point x="719" y="954" type="line"/>
      <point x="754" y="705" type="line"/>
      <point x="824" y="935" type="line"/>
      <point x="1212" y="1500" type="line"/>
      <point x="1404" y="1500" type="line"/>
      <point x="958" y="850" type="line"/>
      <point x="1249" y="850" type="line"/>
      <point x="1223" y="700" type="line"/>
      <point x="855" y="700" type="line"/>
      <point x="818" y="646" type="line"/>
      <point x="801" y="550" type="line"/>
      <point x="1196" y="550" type="line"/>
      <point x="1170" y="400" type="line"/>
      <point x="775" y="400" type="line"/>
      <point x="705" y="0" type="line"/>
      <point x="495" y="0" type="line"/>
      <point x="565" y="400" type="line"/>
      <point x="170" y="400" type="line"/>
    </contour>
  </outline>
</glyph>
<glyph name="brokenbar" format="1">
  <advance width="400"/>
  <unicode hex="00A6"/>
  <outline>
    <contour>
      <point x="570" y="1520" type="line"/>
      <point x="425" y="700" type="line"/>
      <point x="225" y="700" type="line"/>
      <point x="366" y="1500" type="line"/>
    </contour>
    <contour>
      <point x="365" y="362" type="line"/>
      <point x="231" y="-400" type="line"/>
      <point x="31" y="-400" type="line"/>
      <point x="165" y="362" type="line"/>
    </contour>
  </outline>
</glyph>
<glyph name="registered" format="1">
  <advance width="1100"/>
  <unicode hex="00AE"/>
  <outline>
    <contour>
      <point x="817" y="1517" type="qcurve"/>
      <point x="915" y="1510"/>
      <point x="1070" y="1439"/>
      <point x="1173" y="1319"/>
      <point x="1217" y="1151"/>
      <point x="1204" y="1047" type="qcurve"/>
      <point x="1191" y="947"/>
      <point x="1091" y="768"/>
      <point x="940" y="637"/>
      <point x="751" y="568"/>
      <point x="651" y="577" type="qcurve"/>
      <point x="554" y="586"/>
      <point x="403" y="661"/>
      <point x="303" y="784"/>
      <point x="256" y="948"/>
      <point x="264" y="1047" type="qcurve"/>
      <point x="269" y="1114"/>
      <point x="316" y="1239"/>
      <point x="392" y="1347"/>
      <point x="493" y="1434"/>
      <point x="613" y="1494"/>
      <point x="746" y="1522"/>
    </contour>
    <contour>
      <point x="666" y="663" type="qcurve"/>
      <point x="707" y="659"/>
      <point x="805" y="683"/>
      <point x="904" y="732"/>
      <point x="998" y="804"/>
      <point x="1071" y="893"/>
      <point x="1116" y="993"/>
      <point x="1118" y="1047" type="qcurve"/>
      <point x="1121" y="1145"/>
      <point x="1078" y="1282"/>
      <point x="994" y="1372"/>
      <point x="875" y="1421"/>
      <point x="802" y="1431" type="qcurve"/>
      <point x="723" y="1442"/>
      <point x="566" y="1388"/>
      <point x="438" y="1281"/>
      <point x="354" y="1132"/>
      <point x="350" y="1047" type="qcurve"/>
      <point x="346" y="968"/>
      <point x="385" y="835"/>
      <point x="466" y="734"/>
      <point x="587" y="671"/>
    </contour>
    <contour>
      <point x="649" y="1006" type="line"/>
      <point x="613" y="802" type="line"/>
      <point x="547" y="802" type="line"/>
      <point x="622" y="1228" type="line"/>
      <point x="622" y="1294" type="line"/>
      <point x="633" y="1295"/>
      <point x="663" y="1298"/>
      <point x="695" y="1300"/>
      <point x="728" y="1301"/>
      <point x="743" y="1301" type="qcurve"/>
      <point x="787" y="1302"/>
      <point x="850" y="1281"/>
      <point x="889" y="1245"/>
      <point x="905" y="1195"/>
      <point x="903" y="1165" type="qcurve"/>
      <point x="899" y="1124"/>
      <point x="868" y="1066"/>
      <point x="822" y="1030"/>
      <point x="764" y="1012"/>
      <point x="734" y="1010" type="qcurve"/>
      <point x="776" y="998" type="line"/>
      <point x="888" y="802" type="line"/>
      <point x="814" y="802" type="line"/>
      <point x="702" y="1000" type="line"/>
      <point x="700" y="1005"/>
      <point x="691" y="1006"/>
      <point x="688" y="1006" type="qcurve"/>
    </contour>
    <contour>
      <point x="680" y="1181" type="line"/>
      <point x="657" y="1054" type="line"/>
      <point x="706" y="1054" type="line"/>
      <point x="766" y="1054"/>
      <point x="835" y="1107"/>
      <point x="842" y="1159" type="qcurve"/>
      <point x="846" y="1181"/>
      <point x="830" y="1216"/>
      <point x="802" y="1242"/>
      <point x="763" y="1256"/>
      <point x="743" y="1256" type="qcurve"/>
      <point x="729" y="1256"/>
      <point x="697" y="1254"/>
      <point x="686" y="1252" type="qcurve"/>
    </contour>
  </outline>
</glyph>
<glyph name="mu" format="1">
  <advance width="1300"/>
  <unicode hex="00B5"/>
  <outline>
    <contour>
      <point x="1248" y="36" type="line"/>
      <point x="1237" y="27"/>
      <point x="1197" y="9"/>
      <point x="1146" y="-7"/>
      <point x="1090" y="-17"/>
      <point x="1065" y="-17" type="qcurve"/>
      <point x="1032" y="-17"/>
      <point x="964" y="6"/>
      <point x="905" y="50"/>
      <point x="861" y="114"/>
      <point x="852" y="155" type="qcurve"/>
      <point x="815" y="86" type="line"/>
      <point x="794" y="61"/>
      <point x="730" y="18"/>
      <point x="651" y="-10"/>
      <point x="561" y="-22"/>
      <point x="515" y="-17" type="qcurve"/>
      <point x="496" y="-15"/>
      <point x="446" y="-11"/>
      <point x="396" y="-3"/>
      <point x="352" y="12"/>
      <point x="339" y="25" type="qcurve"/>
      <point x="350" y="-166" type="line"/>
      <point x="291" y="-500" type="line"/>
      <point x="111" y="-500" type="line"/>
      <point x="393" y="1100" type="line"/>
      <point x="577" y="1118" type="line"/>
      <point x="441" y="348" type="line"/>
      <point x="432" y="298"/>
      <point x="437" y="215"/>
      <point x="472" y="157"/>
      <point x="539" y="129"/>
      <point x="592" y="133" type="qcurve"/>
      <point x="624" y="136"/>
      <point x="683" y="153"/>
      <point x="742" y="180"/>
      <point x="805" y="218"/>
      <point x="842" y="241" type="qcurve"/>
      <point x="993" y="1100" type="line"/>
      <point x="1175" y="1118" type="line"/>
      <point x="1040" y="352" type="line"/>
      <point x="1026" y="276"/>
      <point x="1024" y="189"/>
      <point x="1042" y="144"/>
      <point x="1081" y="133"/>
      <point x="1109" y="133" type="qcurve"/>
      <point x="1133" y="133"/>
      <point x="1180" y="142"/>
      <point x="1203" y="150" type="qcurve"/>
    </contour>
  </outline>
</glyph>
<glyph name="paragraph" format="1">
  <advance width="1372"/>
  <unicode hex="00B6"/>
  <outline>
    <contour>
      <point x="844" y="647" type="line"/>
      <point x="807" y="649"/>
      <point x="747" y="661"/>
      <point x="696" y="677"/>
      <point x="651" y="694"/>
      <point x="630" y="702" type="qcurve"/>
      <point x="601" y="712"/>
      <point x="534" y="789"/>
      <point x="486" y="906"/>
      <point x="469" y="1058"/>
      <point x="490" y="1144" type="qcurve"/>
      <point x="514" y="1246"/>
      <point x="605" y="1388"/>
      <point x="734" y="1473"/>
      <point x="897" y="1506"/>
      <point x="994" y="1500" type="qcurve"/>
      <point x="1466" y="1500" type="line"/>
      <point x="1131" y="-400" type="line"/>
      <point x="962" y="-400" type="line"/>
      <point x="1270" y="1348" type="line"/>
      <point x="1136" y="1348" type="line"/>
      <point x="828" y="-400" type="line"/>
      <point x="659" y="-400" type="line"/>
    </contour>
  </outline>
</glyph>
<glyph name="cedilla" format="1">
  <advance width="1100"/>
  <unicode hex="00B8"/>
  <outline>
    <contour>
      <point x="524" y="0" type="line"/>
      <point x="542" y="-27"/>
      <point x="554" y="-59" type="qcurve"/>
      <point x="565" y="-86"/>
      <point x="577" y="-158"/>
      <point x="572" y="-198" type="qcurve"/>
      <point x="565" y="-248"/>
      <point x="519" y="-326"/>
      <point x="450" y="-379"/>
      <point x="361" y="-407"/>
      <point x="311" y="-407" type="qcurve"/>
      <point x="269" y="-407"/>
      <point x="182" y="-380"/>
      <point x="146" y="-363" type="qcurve"/>
      <point x="104" y="-344"/>
      <point x="65" y="-318" type="qcurve"/>
      <point x="154" y="-218" type="line"/>
      <point x="177" y="-235"/>
      <point x="203" y="-248" type="qcurve"/>
      <point x="225" y="-259"/>
      <point x="280" y="-279"/>
      <point x="309" y="-279" type="qcurve"/>
      <point x="352" y="-280"/>
      <point x="412" y="-238"/>
      <point x="420" y="-189" type="qcurve"/>
      <point x="425" y="-156"/>
      <point x="405" y="-88"/>
      <point x="390" y="-61" type="qcurve"/>
      <point x="372" y="-29"/>
      <point x="348" y="0" type="qcurve"/>
    </contour>
  </outline>
</glyph>
<glyph name="onesuperior" format="1">
  <advance width="600"/>
  <unicode hex="00B9"/>
  <outline>
    <contour>
      <point x="177" y="720" type="line"/>
      <point x="191" y="800" type="line"/>
      <point x="313" y="800" type="line"/>
      <point x="398" y="1283" type="line"/>
      <point x="447" y="1396" type="line"/>
      <point x="363" y="1303" type="line"/>
      <point x="240" y="1209" type="line"/>
      <point x="197" y="1270" type="line"/>
      <point x="463" y="1480" type="line"/>
      <point x="531" y="1470" type="line"/>
      <point x="413" y="800" type="line"/>
      <point x="536" y="800" type="line"/>
      <point x="522" y="720" type="line"/>
    </contour>
  </outline>
</glyph>
<glyph name="ordmasculine" format="1">
  <advance width="800"/>
  <unicode hex="00BA"/>
  <outline>
    <contour>
      <point x="241" y="800" type="line"/>
      <point x="641" y="800" type="line"/>
      <point x="623" y="700" type="line"/>
      <point x="223" y="700" type="line"/>
    </contour>
    <contour>
      <point x="441" y="950" type="qcurve"/>
      <point x="386" y="954"/>
      <point x="306" y="998"/>
      <point x="257" y="1072"/>
      <point x="239" y="1174"/>
      <point x="245" y="1235" type="qcurve"/>
      <point x="252" y="1296"/>
      <point x="303" y="1402"/>
      <point x="382" y="1479"/>
      <point x="483" y="1521"/>
      <point x="540" y="1517" type="qcurve"/>
      <point x="595" y="1514"/>
      <point x="675" y="1471"/>
      <point x="725" y="1397"/>
      <point x="744" y="1296"/>
      <point x="737" y="1235" type="qcurve"/>
      <point x="731" y="1173"/>
      <point x="679" y="1066"/>
      <point x="599" y="988"/>
      <point x="497" y="947"/>
    </contour>
    <contour>
      <point x="642" y="1209" type="qcurve"/>
      <point x="650" y="1249"/>
      <point x="652" y="1324"/>
      <point x="631" y="1385"/>
      <point x="584" y="1428"/>
      <point x="543" y="1436" type="qcurve"/>
      <point x="503" y="1444"/>
      <point x="433" y="1418"/>
      <point x="380" y="1366"/>
      <point x="345" y="1295"/>
      <point x="339" y="1258" type="qcurve"/>
      <point x="333" y="1217"/>
      <point x="331" y="1141"/>
      <point x="351" y="1081"/>
      <point x="397" y="1039"/>
      <point x="438" y="1032" type="qcurve"/>
      <point x="477" y="1024"/>
      <point x="546" y="1051"/>
      <point x="599" y="1102"/>
      <point x="635" y="1172"/>
    </contour>
  </outline>
</glyph>
<glyph name="onequarter" format="1">
  <advance width="1500"/>
  <unicode hex="00BC"/>
  <outline>
    <contour>
      <point x="454" y="0" type="line"/>
      <point x="319" y="0" type="line"/>
      <point x="1094" y="1500" type="line"/>
      <point x="1220" y="1500" type="line"/>
    </contour>
    <contour>
      <point x="175" y="720" type="line"/>
      <point x="189" y="800" type="line"/>
      <point x="311" y="800" type="line"/>
      <point x="396" y="1283" type="line"/>
      <point x="445" y="1396" type="line"/>
      <point x="361" y="1303" type="line"/>
      <point x="238" y="1209" type="line"/>
      <point x="195" y="1270" type="line"/>
      <point x="461" y="1480" type="line"/>
      <point x="529" y="1470" type="line"/>
      <point x="411" y="800" type="line"/>
      <point x="534" y="800" type="line"/>
      <point x="520" y="720" type="line"/>
    </contour>
    <contour>
      <point x="1416" y="150" type="line"/>
      <point x="1326" y="150" type="line"/>
      <point x="1300" y="0" type="line"/>
      <point x="1200" y="0" type="line"/>
      <point x="1226" y="150" type="line"/>
      <point x="929" y="150" type="line"/>
      <point x="944" y="235" type="line"/>
      <point x="1279" y="760" type="line"/>
      <point x="1371" y="750" type="line"/>
      <point x="1084" y="300" type="line"/>
      <point x="1026" y="230" type="line"/>
      <point x="1241" y="230" type="line"/>
      <point x="1276" y="433" type="line"/>
      <point x="1375" y="425" type="line"/>
      <point x="1341" y="230" type="line"/>
      <point x="1438" y="230" type="line"/>
    </contour>
  </outline>
</glyph>
<glyph name="onehalf" format="1">
  <advance width="1500"/>
  <unicode hex="00BD"/>
  <outline>
    <contour>
      <point x="454" y="0" type="line"/>
      <point x="319" y="0" type="line"/>
      <point x="1094" y="1500" type="line"/>
      <point x="1220" y="1500" type="line"/>
    </contour>
    <contour>
      <point x="175" y="720" type="line"/>
      <point x="189" y="800" type="line"/>
      <point x="311" y="800" type="line"/>
      <point x="396" y="1283" type="line"/>
      <point x="445" y="1396" type="line"/>
      <point x="361" y="1303" type="line"/>
      <point x="238" y="1209" type="line"/>
      <point x="195" y="1270" type="line"/>
      <point x="461" y="1480" type="line"/>
      <point x="529" y="1470" type="line"/>
      <point x="411" y="800" type="line"/>
      <point x="534" y="800" type="line"/>
      <point x="520" y="720" type="line"/>
    </contour>
    <contour>
      <point x="949" y="0" type="line"/>
      <point x="963" y="84" type="line"/>
      <point x="994" y="129"/>
      <point x="1063" y="207"/>
      <point x="1132" y="274"/>
      <point x="1198" y="329"/>
      <point x="1224" y="351" type="qcurve"/>
      <point x="1258" y="379"/>
      <point x="1318" y="428"/>
      <point x="1363" y="477"/>
      <point x="1388" y="528"/>
      <point x="1388" y="557" type="qcurve"/>
      <point x="1388" y="603"/>
      <point x="1339" y="664"/>
      <point x="1286" y="674" type="qcurve"/>
      <point x="1258" y="679"/>
      <point x="1210" y="666"/>
      <point x="1170" y="638"/>
      <point x="1138" y="600"/>
      <point x="1126" y="580" type="qcurve"/>
      <point x="1061" y="610" type="line"/>
      <point x="1079" y="647"/>
      <point x="1129" y="705"/>
      <point x="1192" y="743"/>
      <point x="1267" y="761"/>
      <point x="1309" y="758" type="qcurve"/>
      <point x="1356" y="755"/>
      <point x="1424" y="717"/>
      <point x="1468" y="659"/>
      <point x="1487" y="588"/>
      <point x="1485" y="552" type="qcurve"/>
      <point x="1483" y="513"/>
      <point x="1445" y="443"/>
      <point x="1391" y="381"/>
      <point x="1328" y="326"/>
      <point x="1300" y="302" type="qcurve"/>
      <point x="1269" y="276"/>
      <point x="1207" y="222"/>
      <point x="1150" y="167"/>
      <point x="1099" y="110"/>
      <point x="1080" y="80" type="qcurve"/>
      <point x="1415" y="80" type="line"/>
      <point x="1401" y="0" type="line"/>
    </contour>
  </outline>
</glyph>
<glyph name="threequarters" format="1">
  <advance width="1500"/>
  <unicode hex="00BE"/>
  <outline>
    <contour>
      <point x="454" y="0" type="line"/>
      <point x="319" y="0" type="line"/>
      <point x="1094" y="1500" type="line"/>
      <point x="1220" y="1500" type="line"/>
    </contour>
    <contour>
      <point x="225" y="1390" type="line"/>
      <point x="247" y="1470" type="line"/>
      <point x="612" y="1470" type="line"/>
      <point x="599" y="1400" type="line"/>
      <point x="590" y="1380"/>
      <point x="554" y="1336"/>
      <point x="507" y="1292"/>
      <point x="454" y="1249"/>
      <point x="428" y="1229" type="qcurve"/>
      <point x="355" y="1192" type="line"/>
      <point x="360" y="1193"/>
      <point x="376" y="1193"/>
      <point x="383" y="1194" type="qcurve"/>
      <point x="420" y="1195"/>
      <point x="492" y="1168"/>
      <point x="547" y="1116"/>
      <point x="578" y="1042"/>
      <point x="572" y="996" type="qcurve"/>
      <point x="566" y="944"/>
      <point x="521" y="862"/>
      <point x="452" y="801"/>
      <point x="363" y="758"/>
      <point x="262" y="732"/>
      <point x="153" y="720"/>
      <point x="100" y="720" type="qcurve"/>
      <point x="114" y="800" type="line"/>
      <point x="153" y="800"/>
      <point x="236" y="809"/>
      <point x="314" y="827"/>
      <point x="384" y="856"/>
      <point x="437" y="898"/>
      <point x="469" y="955"/>
      <point x="471" y="991" type="qcurve"/>
      <point x="473" y="1023"/>
      <point x="449" y="1071"/>
      <point x="402" y="1102"/>
      <point x="337" y="1116"/>
      <point x="297" y="1115" type="qcurve"/>
      <point x="281" y="1114"/>
      <point x="243" y="1113"/>
      <point x="228" y="1112" type="qcurve"/>
      <point x="242" y="1190" type="line"/>
      <point x="265" y="1205"/>
      <point x="320" y="1243"/>
      <point x="376" y="1284"/>
      <point x="430" y="1327"/>
      <point x="475" y="1365"/>
      <point x="507" y="1399"/>
      <point x="513" y="1410" type="qcurve"/>
      <point x="433" y="1390" type="line"/>
    </contour>
    <contour>
      <point x="1416" y="150" type="line"/>
      <point x="1326" y="150" type="line"/>
      <point x="1300" y="0" type="line"/>
      <point x="1200" y="0" type="line"/>
      <point x="1226" y="150" type="line"/>
      <point x="929" y="150" type="line"/>
      <point x="944" y="235" type="line"/>
      <point x="1279" y="760" type="line"/>
      <point x="1371" y="750" type="line"/>
      <point x="1084" y="300" type="line"/>
      <point x="1026" y="230" type="line"/>
      <point x="1241" y="230" type="line"/>
      <point x="1276" y="433" type="line"/>
      <point x="1375" y="425" type="line"/>
      <point x="1341" y="230" type="line"/>
      <point x="1438" y="230" type="line"/>
    </contour>
  </outline>
</glyph>
<glyph name="questiondown" format="1">
  <advance width="1100"/>
  <unicode hex="00BF"/>
  <outline>
    <contour>
      <point x="350" y="-46" type="qcurve"/>
      <point x="354" y="35"/>
      <point x="424" y="156"/>
      <point x="526" y="255"/>
      <point x="647" y="343"/>
      <point x="759" y="443"/>
      <point x="848" y="565"/>
      <point x="867" y="648" type="qcurve"/>
      <point x="1081" y="669" type="line"/>
      <point x="1063" y="581"/>
      <point x="1000" y="445"/>
      <point x="921" y="340"/>
      <point x="832" y="259"/>
      <point x="744" y="191"/>
      <point x="663" y="131"/>
      <point x="600" y="67"/>
      <point x="560" y="-7"/>
      <point x="558" y="-54" type="qcurve"/>
      <point x="555" y="-105"/>
      <point x="588" y="-179"/>
      <point x="648" y="-229"/>
      <point x="730" y="-253"/>
      <point x="778" y="-253" type="qcurve"/>
      <point x="866" y="-253"/>
      <point x="1031" y="-175"/>
      <point x="1102" y="-92" type="qcurve"/>
      <point x="1215" y="-202" type="line"/>
      <point x="1163" y="-264"/>
      <point x="1046" y="-347"/>
      <point x="921" y="-398"/>
      <point x="790" y="-419"/>
      <point x="724" y="-419" type="qcurve"/>
      <point x="646" y="-419"/>
      <point x="505" y="-375"/>
      <point x="402" y="-284"/>
      <point x="345" y="-143"/>
    </contour>
    <contour>
      <point x="1126" y="978" type="qcurve"/>
      <point x="1126" y="951"/>
      <point x="1099" y="899"/>
      <point x="1055" y="860"/>
      <point x="1000" y="841"/>
      <point x="972" y="846" type="qcurve"/>
      <point x="945" y="851"/>
      <point x="904" y="876"/>
      <point x="876" y="911"/>
      <point x="862" y="955"/>
      <point x="863" y="978" type="qcurve"/>
      <point x="864" y="1007"/>
      <point x="890" y="1058"/>
      <point x="934" y="1096"/>
      <point x="988" y="1115"/>
      <point x="1017" y="1112" type="qcurve"/>
      <point x="1071" y="1105"/>
      <point x="1127" y="1031"/>
    </contour>
  </outline>
</glyph>
<glyph name="Thorn" format="1">
  <advance width="1300"/>
  <unicode hex="00DE"/>
  <outline>
    <contour>
      <point x="444" y="1500" type="line"/>
      <point x="664" y="1500" type="line"/>
      <point x="629" y="1301" type="line"/>
      <point x="829" y="1301" type="line"/>
      <point x="854" y="1301"/>
      <point x="931" y="1286"/>
      <point x="1017" y="1250"/>
      <point x="1102" y="1189"/>
      <point x="1168" y="1097"/>
      <point x="1208" y="972"/>
      <point x="1206" y="889" type="qcurve"/>
      <point x="1205" y="855"/>
      <point x="1194" y="772"/>
      <point x="1168" y="685"/>
      <point x="1125" y="598"/>
      <point x="1060" y="520"/>
      <point x="969" y="456"/>
      <point x="908" y="435" type="qcurve"/>
      <point x="852" y="415"/>
      <point x="723" y="401"/>
      <point x="630" y="401" type="qcurve"/>
      <point x="470" y="401" type="line"/>
      <point x="400" y="0" type="line"/>
      <point x="200" y="0" type="line"/>
      <point x="429" y="1299" type="line"/>
    </contour>
    <contour>
      <point x="602" y="1151" type="line"/>
      <point x="498" y="557" type="line"/>
      <point x="687" y="557" type="line"/>
      <point x="768" y="557"/>
      <point x="894" y="605"/>
      <point x="981" y="692"/>
      <point x="1026" y="815"/>
      <point x="1026" y="889" type="qcurve"/>
      <point x="1026" y="934"/>
      <point x="996" y="1028"/>
      <point x="934" y="1103"/>
      <point x="837" y="1151"/>
      <point x="771" y="1151" type="qcurve"/>
    </contour>
  </outline>
</glyph>
<glyph name="igrave" format="1">
  <advance width="600"/>
  <unicode hex="00EC"/>
  <outline>
    <contour>
      <point x="390" y="0" type="line"/>
      <point x="208" y="0" type="line"/>
      <point x="394" y="1055" type="line"/>
      <point x="579" y="1075" type="line"/>
    </contour>
    <contour>
      <point x="572" y="1200" type="line"/>
      <point x="422" y="1200" type="line"/>
      <point x="250" y="1500" type="line"/>
      <point x="458" y="1520" type="line"/>
    </contour>
  </outline>
</glyph>
<glyph name="icircumflex" format="1">
  <advance width="600"/>
  <unicode hex="00EE"/>
  <outline>
    <contour>
      <point x="390" y="0" type="line"/>
      <point x="208" y="0" type="line"/>
      <point x="394" y="1055" type="line"/>
      <point x="579" y="1075" type="line"/>
    </contour>
    <contour>
      <point x="794" y="1220" type="line"/>
      <point x="644" y="1220" type="line"/>
      <point x="570" y="1372" type="line"/>
      <point x="556" y="1460" type="line"/>
      <point x="511" y="1373" type="line"/>
      <point x="383" y="1220" type="line"/>
      <point x="233" y="1220" type="line"/>
      <point x="458" y="1500" type="line"/>
      <point x="662" y="1520" type="line"/>
    </contour>
  </outline>
</glyph>
<glyph name="idieresis" format="1">
  <advance width="600"/>
  <unicode hex="00EF"/>
  <outline>
    <contour>
      <point x="390" y="0" type="line"/>
      <point x="208" y="0" type="line"/>
      <point x="394" y="1055" type="line"/>
      <point x="579" y="1075" type="line"/>
    </contour>
    <contour>
      <point x="264" y="1500" type="line"/>
      <point x="464" y="1500" type="line"/>
      <point x="429" y="1300" type="line"/>
      <point x="229" y="1300" type="line"/>
    </contour>
    <contour>
      <point x="664" y="1500" type="line"/>
      <point x="864" y="1500" type="line"/>
      <point x="829" y="1300" type="line"/>
      <point x="629" y="1300" type="line"/>
    </contour>
  </outline>
</glyph>
<glyph name="OE" format="1">
  <advance width="2000"/>
  <unicode hex="0152"/>
  <outline>
    <contour>
      <point x="797" y="-17" type="line"/>
      <point x="507" y="-17"/>
      <point x="238" y="376"/>
      <point x="262" y="750" type="qcurve"/>
      <point x="269" y="865"/>
      <point x="335" y="1073"/>
      <point x="441" y="1249"/>
      <point x="586" y="1388"/>
      <point x="760" y="1482"/>
      <point x="959" y="1525"/>
      <point x="1067" y="1517" type="qcurve"/>
      <point x="1232" y="1430" type="line"/>
      <point x="1234" y="1500" type="line"/>
      <point x="2066" y="1500" type="line"/>
      <point x="2038" y="1340" type="line"/>
      <point x="1408" y="1340" type="line"/>
      <point x="1394" y="1150" type="line"/>
      <point x="1348" y="885" type="line"/>
      <point x="1888" y="885" type="line"/>
      <point x="1862" y="740" type="line"/>
      <point x="1322" y="740" type="line"/>
      <point x="1251" y="340" type="line"/>
      <point x="1210" y="160" type="line"/>
      <point x="1865" y="160" type="line"/>
      <point x="1817" y="0" type="line"/>
      <point x="970" y="0" type="line"/>
      <point x="992" y="70" type="line"/>
    </contour>
    <contour>
      <point x="1220" y="1305" type="line"/>
      <point x="1209" y="1310"/>
      <point x="1190" y="1318"/>
      <point x="1181" y="1322" type="qcurve"/>
      <point x="1149" y="1335"/>
      <point x="1074" y="1345"/>
      <point x="1031" y="1347" type="qcurve"/>
      <point x="898" y="1354"/>
      <point x="698" y="1269"/>
      <point x="559" y="1113"/>
      <point x="480" y="903"/>
      <point x="470" y="785" type="qcurve"/>
      <point x="458" y="654"/>
      <point x="473" y="436"/>
      <point x="551" y="272"/>
      <point x="705" y="169"/>
      <point x="832" y="153" type="qcurve"/>
      <point x="873" y="148"/>
      <point x="948" y="164"/>
      <point x="983" y="175" type="qcurve"/>
      <point x="1023" y="190" type="line"/>
    </contour>
  </outline>
</glyph>
<glyph name="hungarumlaut" format="1">
  <advance width="1100"/>
  <unicode hex="02DD"/>
  <outline>
    <contour>
      <point x="642" y="1500" type="line"/>
      <point x="876" y="1520" type="line"/>
      <point x="502" y="1117" type="line"/>
      <point x="352" y="1117" type="line"/>
    </contour>
    <contour>
      <point x="1005" y="1500" type="line"/>
      <point x="1239" y="1520" type="line"/>
      <point x="865" y="1117" type="line"/>
      <point x="715" y="1117" type="line"/>
    </contour>
  </outline>
</glyph>
<glyph name="Gamma" format="1">
  <advance width="1100"/>
  <unicode hex="0393"/>
  <outline>
    <contour>
      <point x="602" y="1150" type="line"/>
      <point x="400" y="0" type="line"/>
      <point x="200" y="0" type="line"/>
      <point x="429" y="1300" type="line"/>
      <point x="447" y="1500" type="line"/>
      <point x="1284" y="1500" type="line"/>
      <point x="1258" y="1350" type="line"/>
      <point x="623" y="1350" type="line"/>
    </contour>
  </outline>
</glyph>
<glyph name="Deltagreek" format="1">
  <advance width="1500"/>
  <unicode hex="0394"/>
  <outline>
    <contour>
      <point x="1485" y="0" type="line"/>
      <point x="13" y="0" type="line"/>
      <point x="900" y="1500" type="line"/>
      <point x="1122" y="1523" type="line"/>
    </contour>
    <contour>
      <point x="1186" y="160" type="line"/>
      <point x="1300" y="108" type="line"/>
      <point x="1234" y="200" type="line"/>
      <point x="1004" y="1258" type="line"/>
      <point x="999" y="1425" type="line"/>
      <point x="934" y="1258" type="line"/>
      <point x="332" y="200" type="line"/>
      <point x="231" y="108" type="line"/>
      <point x="366" y="160" type="line"/>
    </contour>
  </outline>
</glyph>
<glyph name="Theta" format="1">
  <advance width="1600"/>
  <unicode hex="0398"/>
  <outline>
    <contour>
      <point x="667" y="835" type="line"/>
      <point x="1247" y="835" type="line"/>
      <point x="1197" y="665" type="line"/>
      <point x="617" y="665" type="line"/>
    </contour>
    <contour>
      <point x="797" y="-17" type="qcurve"/>
      <point x="651" y="-9"/>
      <point x="434" y="108"/>
      <point x="298" y="308"/>
      <point x="246" y="583"/>
      <point x="266" y="750" type="qcurve"/>
      <point x="286" y="921"/>
      <point x="411" y="1209"/>
      <point x="614" y="1415"/>
      <point x="893" y="1525"/>
      <point x="1067" y="1517" type="qcurve"/>
      <point x="1211" y="1511"/>
      <point x="1426" y="1394"/>
      <point x="1562" y="1193"/>
      <point x="1616" y="916"/>
      <point x="1598" y="750" type="qcurve"/>
      <point x="1579" y="576"/>
      <point x="1453" y="285"/>
      <point x="1248" y="80"/>
      <point x="969" y="-27"/>
    </contour>
    <contour>
      <point x="1394" y="719" type="qcurve"/>
      <point x="1405" y="840"/>
      <point x="1382" y="1059"/>
      <point x="1299" y="1228"/>
      <point x="1148" y="1336"/>
      <point x="1031" y="1347" type="qcurve"/>
      <point x="947" y="1354"/>
      <point x="804" y="1317"/>
      <point x="685" y="1240"/>
      <point x="590" y="1130"/>
      <point x="521" y="1000"/>
      <point x="478" y="857"/>
      <point x="470" y="785" type="qcurve"/>
      <point x="456" y="662"/>
      <point x="479" y="439"/>
      <point x="564" y="267"/>
      <point x="716" y="160"/>
      <point x="832" y="153" type="qcurve"/>
      <point x="922" y="148"/>
      <point x="1072" y="188"/>
      <point x="1192" y="266"/>
      <point x="1284" y="376"/>
      <point x="1349" y="505"/>
      <point x="1387" y="647"/>
    </contour>
  </outline>
</glyph>
<glyph name="Lambda" format="1">
  <advance width="1300"/>
  <unicode hex="039B"/>
  <outline>
    <contour>
      <point x="868" y="1100" type="line"/>
      <point x="878" y="1360" type="line"/>
      <point x="796" y="1100" type="line"/>
      <point x="246" y="0" type="line"/>
      <point x="62" y="0" type="line"/>
      <point x="714" y="1300" type="line"/>
      <point x="784" y="1500" type="line"/>
      <point x="1005" y="1520" type="line"/>
      <point x="1235" y="0" type="line"/>
      <point x="1035" y="0" type="line"/>
    </contour>
  </outline>
</glyph>
<glyph name="Xi" format="1">
  <advance width="1200"/>
  <unicode hex="039E"/>
  <outline>
    <contour>
      <point x="356" y="885" type="line"/>
      <point x="1156" y="885" type="line"/>
      <point x="1125" y="711" type="line"/>
      <point x="325" y="711" type="line"/>
    </contour>
    <contour>
      <point x="130" y="174" type="line"/>
      <point x="1130" y="174" type="line"/>
      <point x="1100" y="0" type="line"/>
      <point x="100" y="0" type="line"/>
    </contour>
    <contour>
      <point x="364" y="1500" type="line"/>
      <point x="1364" y="1500" type="line"/>
      <point x="1333" y="1326" type="line"/>
      <point x="333" y="1326" type="line"/>
    </contour>
  </outline>
</glyph>
<glyph name="gamma" format="1">
  <advance width="1100"/>
  <unicode hex="03B3"/>
  <outline>
    <contour>
      <point x="196" y="1117" type="line"/>
      <point x="231" y="1120"/>
      <point x="310" y="1116"/>
      <point x="382" y="1081"/>
      <point x="439" y="1006"/>
      <point x="452" y="940" type="qcurve"/>
      <point x="562" y="364" type="line"/>
      <point x="573" y="132" type="line"/>
      <point x="666" y="364" type="line"/>
      <point x="1064" y="1100" type="line"/>
      <point x="1247" y="1117" type="line"/>
      <point x="640" y="-17" type="line"/>
      <point x="554" y="-500" type="line"/>
      <point x="362" y="-500" type="line"/>
      <point x="442" y="-47" type="line"/>
      <point x="271" y="869" type="line"/>
      <point x="261" y="919"/>
      <point x="229" y="968"/>
      <point x="213" y="978" type="qcurve"/>
      <point x="195" y="989"/>
      <point x="174" y="987" type="qcurve"/>
    </contour>
  </outline>
</glyph>
<glyph name="delta" format="1">
  <advance width="1200"/>
  <unicode hex="03B4"/>
  <outline>
    <contour>
      <point x="622" y="127" type="qcurve"/>
      <point x="685" y="117"/>
      <point x="809" y="178"/>
      <point x="910" y="291"/>
      <point x="975" y="443"/>
      <point x="978" y="526" type="qcurve"/>
      <point x="980" y="592"/>
      <point x="968" y="721"/>
      <point x="922" y="829"/>
      <point x="836" y="907"/>
      <point x="765" y="921" type="qcurve"/>
      <point x="696" y="935"/>
      <point x="566" y="886"/>
      <point x="466" y="779"/>
      <point x="405" y="621"/>
      <point x="404" y="526" type="qcurve"/>
      <point x="403" y="449"/>
      <point x="419" y="313"/>
      <point x="466" y="208"/>
      <point x="552" y="138"/>
    </contour>
    <contour>
      <point x="1224" y="1500" type="line"/>
      <point x="1153" y="1342" type="line"/>
      <point x="801" y="1342" type="line"/>
      <point x="766" y="1342"/>
      <point x="707" y="1337"/>
      <point x="663" y="1325"/>
      <point x="635" y="1302"/>
      <point x="632" y="1284" type="qcurve"/>
      <point x="629" y="1267"/>
      <point x="659" y="1232"/>
      <point x="711" y="1198"/>
      <point x="777" y="1164"/>
      <point x="842" y="1133"/>
      <point x="898" y="1104"/>
      <point x="915" y="1091" type="qcurve"/>
      <point x="980" y="1041"/>
      <point x="1085" y="933"/>
      <point x="1157" y="799"/>
      <point x="1194" y="633"/>
      <point x="1192" y="526" type="qcurve"/>
      <point x="1191" y="454"/>
      <point x="1143" y="314"/>
      <point x="1061" y="188"/>
      <point x="950" y="82"/>
      <point x="819" y="9"/>
      <point x="675" y="-25"/>
      <point x="601" y="-17" type="qcurve"/>
      <point x="484" y="-4"/>
      <point x="331" y="95"/>
      <point x="240" y="245"/>
      <point x="203" y="435"/>
      <point x="204" y="539" type="qcurve"/>
      <point x="206" y="708"/>
      <point x="393" y="955"/>
      <point x="575" y="1015" type="qcurve"/>
      <point x="778" y="1015" type="line"/>
      <point x="685" y="1059" type="line"/>
      <point x="624" y="1080"/>
      <point x="536" y="1124"/>
      <point x="480" y="1177"/>
      <point x="454" y="1244"/>
      <point x="454" y="1289" type="qcurve"/>
      <point x="454" y="1346"/>
      <point x="492" y="1422"/>
      <point x="555" y="1468"/>
      <point x="636" y="1492"/>
      <point x="723" y="1500"/>
      <point x="810" y="1500"/>
      <point x="847" y="1500" type="qcurve"/>
    </contour>
  </outline>
</glyph>
<glyph name="zeta" format="1">
  <advance width="1000"/>
  <unicode hex="03B6"/>
  <outline>
    <contour>
      <point x="1184" y="1500" type="line"/>
      <point x="1136" y="1342" type="line"/>
      <point x="1067" y="1292"/>
      <point x="910" y="1176"/>
      <point x="752" y="1048"/>
      <point x="605" y="907"/>
      <point x="488" y="757"/>
      <point x="411" y="599"/>
      <point x="403" y="517" type="qcurve"/>
      <point x="396" y="446"/>
      <point x="392" y="343"/>
      <point x="417" y="262"/>
      <point x="483" y="197"/>
      <point x="545" y="164" type="qcurve"/>
      <point x="612" y="129"/>
      <point x="723" y="64"/>
      <point x="805" y="-16"/>
      <point x="855" y="-124"/>
      <point x="860" y="-203" type="qcurve"/>
      <point x="863" y="-255"/>
      <point x="812" y="-354"/>
      <point x="722" y="-438"/>
      <point x="604" y="-501"/>
      <point x="542" y="-517" type="qcurve"/>
      <point x="475" y="-386" type="line"/>
      <point x="529" y="-371"/>
      <point x="599" y="-332"/>
      <point x="640" y="-288"/>
      <point x="658" y="-243"/>
      <point x="660" y="-222" type="qcurve"/>
      <point x="663" y="-185"/>
      <point x="643" y="-121"/>
      <point x="585" y="-61"/>
      <point x="483" y="-2"/>
      <point x="405" y="30" type="qcurve"/>
      <point x="324" y="63"/>
      <point x="233" y="158"/>
      <point x="191" y="275"/>
      <point x="190" y="414"/>
      <point x="201" y="492" type="qcurve"/>
      <point x="212" y="577"/>
      <point x="267" y="733"/>
      <point x="343" y="872"/>
      <point x="433" y="995"/>
      <point x="527" y="1100"/>
      <point x="620" y="1189"/>
      <point x="660" y="1224" type="qcurve"/>
      <point x="949" y="1369" type="line"/>
      <point x="776" y="1342" type="line"/>
      <point x="416" y="1342" type="line"/>
      <point x="464" y="1500" type="line"/>
    </contour>
  </outline>
</glyph>
<glyph name="eta" format="1">
  <advance width="1200"/>
  <unicode hex="03B7"/>
  <outline>
    <contour>
      <point x="390" y="0" type="line"/>
      <point x="206" y="0" type="line"/>
      <point x="399" y="1100" type="line"/>
      <point x="587" y="1120" type="line"/>
      <point x="555" y="937" type="line"/>
      <point x="635" y="1044" type="line"/>
      <point x="667" y="1065"/>
      <point x="728" y="1093"/>
      <point x="792" y="1110"/>
      <point x="866" y="1117"/>
      <point x="911" y="1117" type="qcurve"/>
      <point x="989" y="1117"/>
      <point x="1084" y="1048"/>
      <point x="1131" y="941"/>
      <point x="1137" y="811"/>
      <point x="1126" y="750" type="qcurve"/>
      <point x="905" y="-500" type="line"/>
      <point x="721" y="-500" type="line"/>
      <point x="942" y="750" type="line"/>
      <point x="951" y="800"/>
      <point x="939" y="878"/>
      <point x="905" y="931"/>
      <point x="851" y="958"/>
      <point x="818" y="957" type="qcurve"/>
      <point x="733" y="954"/>
      <point x="598" y="895"/>
      <point x="538" y="844" type="qcurve"/>
    </contour>
  </outline>
</glyph>
<glyph name="theta" format="1">
  <advance width="1200"/>
  <unicode hex="03B8"/>
  <outline>
    <contour>
      <point x="596" y="-20" type="qcurve"/>
      <point x="505" y="-11"/>
      <point x="376" y="60"/>
      <point x="290" y="172"/>
      <point x="242" y="318"/>
      <point x="222" y="483"/>
      <point x="224" y="661"/>
      <point x="232" y="750" type="qcurve"/>
      <point x="240" y="842"/>
      <point x="289" y="1032"/>
      <point x="369" y="1209"/>
      <point x="479" y="1363"/>
      <point x="615" y="1472"/>
      <point x="776" y="1529"/>
      <point x="868" y="1520" type="qcurve"/>
      <point x="960" y="1511"/>
      <point x="1091" y="1439"/>
      <point x="1180" y="1326"/>
      <point x="1229" y="1180"/>
      <point x="1248" y="1015"/>
      <point x="1243" y="837"/>
      <point x="1232" y="750" type="qcurve"/>
      <point x="1221" y="661"/>
      <point x="1168" y="474"/>
      <point x="1085" y="297"/>
      <point x="975" y="142"/>
      <point x="841" y="30"/>
      <point x="684" y="-28"/>
    </contour>
    <contour>
      <point x="839" y="1357" type="qcurve"/>
      <point x="784" y="1364"/>
      <point x="684" y="1324"/>
      <point x="596" y="1244"/>
      <point x="523" y="1133"/>
      <point x="468" y="1009"/>
      <point x="432" y="879"/>
      <point x="426" y="820" type="qcurve"/>
      <point x="1062" y="820" type="line"/>
      <point x="1063" y="878"/>
      <point x="1064" y="999"/>
      <point x="1053" y="1113"/>
      <point x="1028" y="1215"/>
      <point x="977" y="1296"/>
      <point x="898" y="1349"/>
    </contour>
    <contour>
      <point x="625" y="143" type="qcurve"/>
      <point x="670" y="134"/>
      <point x="760" y="166"/>
      <point x="843" y="236"/>
      <point x="917" y="337"/>
      <point x="978" y="460"/>
      <point x="1023" y="598"/>
      <point x="1035" y="670" type="qcurve"/>
      <point x="400" y="670" type="line"/>
      <point x="398" y="622"/>
      <point x="398" y="512"/>
      <point x="408" y="402"/>
      <point x="434" y="299"/>
      <point x="485" y="214"/>
      <point x="566" y="154"/>
    </contour>
  </outline>
</glyph>
<glyph name="kappa" format="1">
  <advance width="1000"/>
  <unicode hex="03BA"/>
  <outline>
    <contour>
      <point x="200" y="0" type="line"/>
      <point x="362" y="919" type="line"/>
      <point x="373" y="1099" type="line"/>
      <point x="577" y="1119" type="line"/>
      <point x="493" y="644" type="line"/>
      <point x="943" y="1100" type="line"/>
      <point x="1147" y="1121" type="line"/>
      <point x="718" y="670" type="line"/>
      <point x="551" y="600" type="line"/>
      <point x="693" y="530" type="line"/>
      <point x="1000" y="2" type="line"/>
      <point x="800" y="2" type="line"/>
      <point x="477" y="554" type="line"/>
      <point x="380" y="0" type="line"/>
    </contour>
  </outline>
</glyph>
<glyph name="lambda" format="1">
  <advance width="1100"/>
  <unicode hex="03BB"/>
  <outline>
    <contour>
      <point x="720" y="968" type="line"/>
      <point x="627" y="736" type="line"/>
      <point x="230" y="0" type="line"/>
      <point x="34" y="0" type="line"/>
      <point x="653" y="1147" type="line"/>
      <point x="641" y="1205"/>
      <point x="612" y="1311"/>
      <point x="573" y="1389"/>
      <point x="518" y="1432"/>
      <point x="481" y="1428" type="qcurve"/>
      <point x="457" y="1426"/>
      <point x="410" y="1408"/>
      <point x="391" y="1396" type="qcurve"/>
      <point x="337" y="1503" type="line"/>
      <point x="385" y="1539"/>
      <point x="489" y="1577"/>
      <point x="540" y="1580" type="qcurve"/>
      <point x="597" y="1583"/>
      <point x="683" y="1513"/>
      <point x="751" y="1387"/>
      <point x="806" y="1215"/>
      <point x="833" y="1117" type="qcurve"/>
      <point x="1045" y="0" type="line"/>
      <point x="871" y="0" type="line"/>
      <point x="731" y="736" type="line"/>
    </contour>
  </outline>
</glyph>
<glyph name="mugreek" format="1">
  <advance width="1200"/>
  <unicode hex="03BC"/>
  <outline>
    <contour>
      <point x="393" y="1100" type="line"/>
      <point x="587" y="1120" type="line"/>
      <point x="461" y="406" type="line"/>
      <point x="455" y="358"/>
      <point x="449" y="262"/>
      <point x="475" y="183"/>
      <point x="547" y="131"/>
      <point x="618" y="127" type="qcurve"/>
      <point x="653" y="125"/>
      <point x="705" y="130"/>
      <point x="754" y="150"/>
      <point x="810" y="189"/>
      <point x="849" y="222" type="qcurve"/>
      <point x="1003" y="1100" type="line"/>
      <point x="1197" y="1120" type="line"/>
      <point x="1000" y="0" type="line"/>
      <point x="810" y="0" type="line"/>
      <point x="832" y="129" type="line"/>
      <point x="790" y="80"/>
      <point x="704" y="23"/>
      <point x="620" y="-6"/>
      <point x="542" y="-14"/>
      <point x="507" y="-15" type="qcurve"/>
      <point x="470" y="-15"/>
      <point x="398" y="-2"/>
      <point x="371" y="11" type="qcurve"/>
      <point x="363" y="-150" type="line"/>
      <point x="301" y="-500" type="line"/>
      <point x="111" y="-500" type="line"/>
    </contour>
  </outline>
</glyph>
<glyph name="xi" format="1">
  <advance width="1000"/>
  <unicode hex="03BE"/>
  <outline>
    <contour>
      <point x="405" y="30" type="qcurve"/>
      <point x="375" y="52"/>
      <point x="297" y="140"/>
      <point x="230" y="252"/>
      <point x="187" y="378"/>
      <point x="193" y="437" type="qcurve"/>
      <point x="200" y="509"/>
      <point x="238" y="621"/>
      <point x="299" y="703"/>
      <point x="384" y="760"/>
      <point x="437" y="778" type="qcurve"/>
      <point x="573" y="790" type="line"/>
      <point x="449" y="847" type="line"/>
      <point x="368" y="939"/>
      <point x="374" y="1097" type="qcurve"/>
      <point x="376" y="1152"/>
      <point x="401" y="1231"/>
      <point x="443" y="1291"/>
      <point x="503" y="1337"/>
      <point x="539" y="1359" type="qcurve"/>
      <point x="646" y="1400" type="line"/>
      <point x="582" y="1400"/>
      <point x="481" y="1422"/>
      <point x="414" y="1468"/>
      <point x="385" y="1538"/>
      <point x="394" y="1587" type="qcurve"/>
      <point x="589" y="1587" type="line"/>
      <point x="588" y="1580"/>
      <point x="596" y="1551"/>
      <point x="621" y="1522"/>
      <point x="666" y="1500"/>
      <point x="702" y="1500" type="qcurve"/>
      <point x="1185" y="1500" type="line"/>
      <point x="1136" y="1342" type="line"/>
      <point x="873" y="1342" type="line"/>
      <point x="850" y="1342"/>
      <point x="785" y="1332"/>
      <point x="714" y="1309"/>
      <point x="644" y="1272"/>
      <point x="590" y="1218"/>
      <point x="558" y="1144"/>
      <point x="560" y="1097" type="qcurve"/>
      <point x="562" y="1041"/>
      <point x="604" y="961"/>
      <point x="664" y="909"/>
      <point x="730" y="885"/>
      <point x="757" y="885" type="qcurve"/>
      <point x="986" y="885" type="line"/>
      <point x="935" y="739" type="line"/>
      <point x="881" y="746"/>
      <point x="760" y="747"/>
      <point x="641" y="727"/>
      <point x="532" y="685"/>
      <point x="449" y="615"/>
      <point x="399" y="515"/>
      <point x="399" y="447" type="qcurve"/>
      <point x="399" y="412"/>
      <point x="409" y="337"/>
      <point x="441" y="263"/>
      <point x="498" y="194"/>
      <point x="545" y="164" type="qcurve"/>
      <point x="609" y="123"/>
      <point x="722" y="57"/>
      <point x="806" y="-21"/>
      <point x="857" y="-124"/>
      <point x="860" y="-203" type="qcurve"/>
      <point x="861" y="-250"/>
      <point x="818" y="-342"/>
      <point x="736" y="-423"/>
      <point x="617" y="-492"/>
      <point x="542" y="-517" type="qcurve"/>
      <point x="475" y="-386" type="line"/>
      <point x="510" y="-370"/>
      <point x="573" y="-332"/>
      <point x="623" y="-291"/>
      <point x="656" y="-246"/>
      <point x="660" y="-222" type="qcurve"/>
      <point x="668" y="-177"/>
      <point x="629" y="-116"/>
      <point x="556" y="-63"/>
      <point x="457" y="-9"/>
    </contour>
  </outline>
</glyph>
<glyph name="pi" format="1">
  <advance width="1300"/>
  <unicode hex="03C0"/>
  <outline>
    <contour>
      <point x="1147" y="950" type="line"/>
      <point x="1049" y="393" type="line"/>
      <point x="1040" y="341"/>
      <point x="1024" y="245"/>
      <point x="1031" y="173"/>
      <point x="1074" y="131"/>
      <point x="1123" y="133" type="qcurve"/>
      <point x="1134" y="133"/>
      <point x="1159" y="137"/>
      <point x="1170" y="139" type="qcurve"/>
      <point x="1182" y="142"/>
      <point x="1194" y="145" type="qcurve"/>
      <point x="1252" y="19" type="line"/>
      <point x="1233" y="10"/>
      <point x="1160" y="-12"/>
      <point x="1097" y="-13" type="qcurve"/>
      <point x="1035" y="-14"/>
      <point x="949" y="17"/>
      <point x="892" y="74"/>
      <point x="862" y="152"/>
      <point x="853" y="246"/>
      <point x="861" y="352"/>
      <point x="871" y="407" type="qcurve"/>
      <point x="967" y="950" type="line"/>
      <point x="587" y="950" type="line"/>
      <point x="618" y="787" type="line"/>
      <point x="480" y="0" type="line"/>
      <point x="300" y="0" type="line"/>
      <point x="422" y="694" type="line"/>
      <point x="431" y="743"/>
      <point x="437" y="839"/>
      <point x="423" y="914"/>
      <point x="384" y="958"/>
      <point x="348" y="954" type="qcurve"/>
      <point x="337" y="952"/>
      <point x="312" y="949"/>
      <point x="301" y="947" type="qcurve"/>
      <point x="289" y="944"/>
      <point x="277" y="942" type="qcurve"/>
      <point x="219" y="1068" type="line"/>
      <point x="238" y="1077"/>
      <point x="310" y="1100"/>
      <point x="371" y="1100" type="qcurve"/>
      <point x="1312" y="1100" type="line"/>
      <point x="1266" y="950" type="line"/>
    </contour>
  </outline>
</glyph>
<glyph name="tau" format="1">
  <advance width="1100"/>
  <unicode hex="03C4"/>
  <outline>
    <contour>
      <point x="825" y="942" type="line"/>
      <point x="705" y="265" type="line"/>
      <point x="697" y="219"/>
      <point x="692" y="148"/>
      <point x="702" y="85"/>
      <point x="730" y="22"/>
      <point x="755" y="-17" type="qcurve"/>
      <point x="544" y="-17" type="line"/>
      <point x="525" y="2"/>
      <point x="508" y="77"/>
      <point x="505" y="168"/>
      <point x="513" y="264"/>
      <point x="520" y="303" type="qcurve"/>
      <point x="633" y="942" type="line"/>
      <point x="266" y="942" type="line"/>
      <point x="313" y="1100" type="line"/>
      <point x="1193" y="1100" type="line"/>
      <point x="1146" y="942" type="line"/>
    </contour>
  </outline>
</glyph>
<glyph name="phi" format="1">
  <advance width="1500"/>
  <unicode hex="03C6"/>
  <outline>
    <contour>
      <point x="652" y="1" type="line"/>
      <point x="620" y="5"/>
      <point x="556" y="19"/>
      <point x="526" y="28" type="qcurve"/>
      <point x="464" y="49"/>
      <point x="350" y="125"/>
      <point x="269" y="241"/>
      <point x="229" y="398"/>
      <point x="241" y="500" type="qcurve"/>
      <point x="253" y="607"/>
      <point x="336" y="764"/>
      <point x="460" y="876"/>
      <point x="615" y="948"/>
      <point x="699" y="971" type="qcurve"/>
      <point x="766" y="990"/>
      <point x="835" y="998" type="qcurve"/>
      <point x="849" y="1099" type="line"/>
      <point x="1043" y="1117" type="line"/>
      <point x="1025" y="998" type="line"/>
      <point x="1058" y="994"/>
      <point x="1122" y="982"/>
      <point x="1152" y="971" type="qcurve"/>
      <point x="1211" y="951"/>
      <point x="1326" y="875"/>
      <point x="1411" y="759"/>
      <point x="1453" y="601"/>
      <point x="1440" y="500" type="qcurve"/>
      <point x="1416" y="312"/>
      <point x="1177" y="73"/>
      <point x="981" y="28" type="qcurve"/>
      <point x="841" y="1" type="line"/>
      <point x="754" y="-500" type="line"/>
      <point x="564" y="-500" type="line"/>
    </contour>
    <contour>
      <point x="868" y="145" type="line"/>
      <point x="941" y="148"/>
      <point x="1082" y="201"/>
      <point x="1193" y="293"/>
      <point x="1265" y="421"/>
      <point x="1270" y="500" type="qcurve"/>
      <point x="1274" y="567"/>
      <point x="1252" y="679"/>
      <point x="1190" y="767"/>
      <point x="1082" y="833"/>
      <point x="998" y="855" type="qcurve"/>
    </contour>
    <contour>
      <point x="619" y="158" type="qcurve"/>
      <point x="634" y="155"/>
      <point x="663" y="147"/>
      <point x="678" y="145" type="qcurve"/>
      <point x="809" y="855" type="line"/>
      <point x="739" y="853"/>
      <point x="601" y="805"/>
      <point x="490" y="715"/>
      <point x="416" y="584"/>
      <point x="410" y="500" type="qcurve"/>
      <point x="405" y="429"/>
      <point x="438" y="311"/>
      <point x="498" y="222"/>
      <point x="578" y="167"/>
    </contour>
  </outline>
</glyph>
<glyph name="omega" format="1">
  <advance width="1600"/>
  <unicode hex="03C9"/>
  <outline>
    <contour>
      <point x="1014" y="725" type="line"/>
      <point x="971" y="482" type="line"/>
      <point x="959" y="411"/>
      <point x="959" y="290"/>
      <point x="993" y="199"/>
      <point x="1065" y="139"/>
      <point x="1125" y="129" type="qcurve"/>
      <point x="1190" y="118"/>
      <point x="1282" y="176"/>
      <point x="1346" y="289"/>
      <point x="1389" y="444"/>
      <point x="1406" y="530" type="qcurve"/>
      <point x="1428" y="647"/>
      <point x="1415" y="825"/>
      <point x="1373" y="945"/>
      <point x="1314" y="1007"/>
      <point x="1291" y="1007" type="qcurve"/>
      <point x="1310" y="1117" type="line"/>
      <point x="1365" y="1117"/>
      <point x="1456" y="1072"/>
      <point x="1527" y="993"/>
      <point x="1577" y="886"/>
      <point x="1605" y="763"/>
      <point x="1610" y="627"/>
      <point x="1601" y="560" type="qcurve"/>
      <point x="1594" y="510"/>
      <point x="1567" y="377"/>
      <point x="1520" y="240"/>
      <point x="1447" y="111"/>
      <point x="1340" y="16"/>
      <point x="1195" y="-31"/>
      <point x="1100" y="-17" type="qcurve"/>
      <point x="985" y="-1"/>
      <point x="848" y="60"/>
      <point x="814" y="120" type="qcurve"/>
      <point x="787" y="90"/>
      <point x="719" y="35"/>
      <point x="636" y="-5"/>
      <point x="538" y="-24"/>
      <point x="481" y="-17" type="qcurve"/>
      <point x="383" y="-6"/>
      <point x="259" y="58"/>
      <point x="188" y="149"/>
      <point x="162" y="261"/>
      <point x="161" y="382"/>
      <point x="176" y="504"/>
      <point x="182" y="560" type="qcurve"/>
      <point x="195" y="674"/>
      <point x="288" y="876"/>
      <point x="423" y="1028"/>
      <point x="586" y="1117"/>
      <point x="669" y="1117" type="qcurve"/>
      <point x="650" y="1007" type="line"/>
      <point x="627" y="1007"/>
      <point x="545" y="966"/>
      <point x="459" y="859"/>
      <point x="384" y="674"/>
      <point x="367" y="530" type="qcurve"/>
      <point x="357" y="443"/>
      <point x="347" y="304"/>
      <point x="371" y="203"/>
      <point x="439" y="140"/>
      <point x="506" y="129" type="qcurve"/>
      <point x="558" y="120"/>
      <point x="649" y="175"/>
      <point x="721" y="276"/>
      <point x="772" y="411"/>
      <point x="784" y="482" type="qcurve"/>
      <point x="831" y="745" type="line"/>
    </contour>
  </outline>
</glyph>
<glyph name="Upsilon1" format="1">
  <advance width="1300"/>
  <unicode hex="03D2"/>
  <outline>
    <contour>
      <point x="1448" y="1517" type="qcurve"/>
      <point x="1425" y="1387" type="line"/>
      <point x="1405" y="1389"/>
      <point x="1381" y="1380" type="qcurve"/>
      <point x="1361" y="1372"/>
      <point x="1308" y="1331"/>
      <point x="1280" y="1289" type="qcurve"/>
      <point x="859" y="658" type="line"/>
      <point x="743" y="0" type="line"/>
      <point x="551" y="0" type="line"/>
      <point x="667" y="658" type="line"/>
      <point x="468" y="1289" type="line"/>
      <point x="454" y="1331"/>
      <point x="416" y="1371"/>
      <point x="399" y="1379" type="qcurve"/>
      <point x="379" y="1389"/>
      <point x="357" y="1387" type="qcurve"/>
      <point x="380" y="1517" type="line"/>
      <point x="405" y="1517"/>
      <point x="468" y="1507"/>
      <point x="532" y="1471"/>
      <point x="593" y="1401"/>
      <point x="616" y="1340" type="qcurve"/>
      <point x="746" y="1000" type="line"/>
      <point x="783" y="751" type="line"/>
      <point x="900" y="1000" type="line"/>
      <point x="1150" y="1340" type="line"/>
      <point x="1204" y="1413"/>
      <point x="1283" y="1487"/>
      <point x="1350" y="1517"/>
      <point x="1412" y="1517"/>
    </contour>
  </outline>
</glyph>
<glyph name="phi1" format="1">
  <advance width="1500"/>
  <unicode hex="03D5"/>
  <outline>
    <contour>
      <point x="651" y="2" type="line"/>
      <point x="549" y="16"/>
      <point x="390" y="91"/>
      <point x="284" y="215"/>
      <point x="232" y="388"/>
      <point x="238" y="500" type="qcurve"/>
      <point x="243" y="594"/>
      <point x="311" y="740"/>
      <point x="407" y="844"/>
      <point x="516" y="908"/>
      <point x="562" y="922" type="qcurve"/>
      <point x="637" y="804" type="line"/>
      <point x="606" y="785"/>
      <point x="532" y="738"/>
      <point x="464" y="668"/>
      <point x="414" y="570"/>
      <point x="407" y="500" type="qcurve"/>
      <point x="401" y="436"/>
      <point x="435" y="317"/>
      <point x="507" y="221"/>
      <point x="611" y="155"/>
      <point x="676" y="145" type="qcurve"/>
      <point x="791" y="799" type="line"/>
      <point x="801" y="853"/>
      <point x="852" y="925"/>
      <point x="921" y="968"/>
      <point x="1001" y="986"/>
      <point x="1040" y="986" type="qcurve"/>
      <point x="1122" y="986"/>
      <point x="1269" y="911"/>
      <point x="1378" y="780"/>
      <point x="1439" y="602"/>
      <point x="1435" y="500" type="qcurve"/>
      <point x="1432" y="417"/>
      <point x="1379" y="281"/>
      <point x="1292" y="174"/>
      <point x="1178" y="94"/>
      <point x="1049" y="38"/>
      <point x="911" y="7"/>
      <point x="843" y="2" type="qcurve"/>
      <point x="754" y="-500" type="line"/>
      <point x="562" y="-500" type="line"/>
    </contour>
    <contour>
      <point x="1054" y="840" type="qcurve"/>
      <point x="1027" y="840"/>
      <point x="985" y="816"/>
      <point x="979" y="780" type="qcurve"/>
      <point x="867" y="143" type="line"/>
      <point x="898" y="143"/>
      <point x="978" y="161"/>
      <point x="1063" y="198"/>
      <point x="1146" y="255"/>
      <point x="1214" y="334"/>
      <point x="1259" y="436"/>
      <point x="1265" y="500" type="qcurve"/>
      <point x="1271" y="572"/>
      <point x="1238" y="696"/>
      <point x="1176" y="787"/>
      <point x="1096" y="840"/>
    </contour>
  </outline>
</glyph>
<glyph name="hyphentwo" format="1">
  <advance width="900"/>
  <unicode hex="2010"/>
  <outline>
    <contour>
      <point x="305" y="600" type="line"/>
      <point x="805" y="600" type="line"/>
      <point x="778" y="445" type="line"/>
      <point x="278" y="445" type="line"/>
    </contour>
  </outline>
</glyph>
<glyph name="endash" format="1">
  <advance width="1100"/>
  <unicode hex="2013"/>
  <outline>
    <contour>
      <point x="105" y="600" type="line"/>
      <point x="1105" y="600" type="line"/>
      <point x="1078" y="446" type="line"/>
      <point x="78" y="446" type="line"/>
    </contour>
  </outline>
</glyph>
<glyph name="quotesinglbase" format="1">
  <advance width="700"/>
  <unicode hex="201A"/>
  <outline>
    <contour>
      <point x="194" y="105" type="qcurve"/>
      <point x="195" y="131"/>
      <point x="219" y="178"/>
      <point x="258" y="213"/>
      <point x="310" y="230"/>
      <point x="339" y="226" type="qcurve"/>
      <point x="383" y="220"/>
      <point x="443" y="155"/>
      <point x="442" y="91" type="qcurve"/>
      <point x="442" y="61"/>
      <point x="422" y="-20"/>
      <point x="372" y="-113"/>
      <point x="285" y="-212"/>
      <point x="218" y="-260" type="qcurve"/>
      <point x="177" y="-240" type="line"/>
      <point x="204" y="-207"/>
      <point x="226" y="-170" type="qcurve"/>
      <point x="245" y="-138"/>
      <point x="280" y="-58"/>
      <point x="285" y="-16" type="qcurve"/>
      <point x="243" y="-14"/>
      <point x="192" y="47"/>
    </contour>
  </outline>
</glyph>
<glyph name="perthousand" format="1">
  <advance width="2600"/>
  <unicode hex="2030"/>
  <outline>
    <contour>
      <point x="2033" y="-18" type="qcurve"/>
      <point x="1885" y="3"/>
      <point x="1761" y="192"/>
      <point x="1767" y="362" type="qcurve"/>
      <point x="1770" y="443"/>
      <point x="1840" y="588"/>
      <point x="1952" y="692"/>
      <point x="2092" y="745"/>
      <point x="2166" y="735" type="qcurve"/>
      <point x="2312" y="715"/>
      <point x="2447" y="525"/>
      <point x="2432" y="362" type="qcurve"/>
      <point x="2424" y="271"/>
      <point x="2347" y="123"/>
      <point x="2235" y="21"/>
      <point x="2100" y="-27"/>
    </contour>
    <contour>
      <point x="2274" y="351" type="qcurve"/>
      <point x="2280" y="391"/>
      <point x="2275" y="473"/>
      <point x="2245" y="540"/>
      <point x="2187" y="588"/>
      <point x="2140" y="596" type="qcurve"/>
      <point x="2098" y="603"/>
      <point x="2026" y="573"/>
      <point x="1972" y="511"/>
      <point x="1937" y="426"/>
      <point x="1930" y="377" type="qcurve"/>
      <point x="1924" y="333"/>
      <point x="1928" y="251"/>
      <point x="1957" y="186"/>
      <point x="2016" y="141"/>
      <point x="2064" y="134" type="qcurve"/>
      <point x="2108" y="128"/>
      <point x="2180" y="163"/>
      <point x="2234" y="228"/>
      <point x="2268" y="310"/>
    </contour>
    <contour>
      <point x="590" y="0" type="line"/>
      <point x="400" y="0" type="line"/>
      <point x="1484" y="1500" type="line"/>
      <point x="1664" y="1500" type="line"/>
    </contour>
    <contour>
      <point x="935" y="1197" type="qcurve"/>
      <point x="935" y="1106"/>
      <point x="875" y="946"/>
      <point x="773" y="827"/>
      <point x="641" y="758"/>
      <point x="569" y="758" type="qcurve"/>
      <point x="491" y="758"/>
      <point x="377" y="808"/>
      <point x="302" y="901"/>
      <point x="266" y="1030"/>
      <point x="266" y="1110" type="qcurve"/>
      <point x="266" y="1190"/>
      <point x="323" y="1337"/>
      <point x="420" y="1450"/>
      <point x="552" y="1517"/>
      <point x="627" y="1517" type="qcurve"/>
      <point x="700" y="1517"/>
      <point x="814" y="1471"/>
      <point x="893" y="1387"/>
      <point x="935" y="1269"/>
    </contour>
    <contour>
      <point x="615" y="1377" type="qcurve"/>
      <point x="569" y="1377"/>
      <point x="498" y="1325"/>
      <point x="450" y="1244"/>
      <point x="426" y="1145"/>
      <point x="426" y="1097" type="qcurve"/>
      <point x="426" y="1062"/>
      <point x="443" y="995"/>
      <point x="480" y="943"/>
      <point x="541" y="911"/>
      <point x="585" y="911" type="qcurve"/>
      <point x="633" y="911"/>
      <point x="705" y="965"/>
      <point x="754" y="1047"/>
      <point x="778" y="1143"/>
      <point x="778" y="1186" type="qcurve"/>
      <point x="778" y="1222"/>
      <point x="760" y="1291"/>
      <point x="720" y="1344"/>
      <point x="658" y="1377"/>
    </contour>
    <contour>
      <point x="1398" y="-18" type="qcurve"/>
      <point x="1257" y="2"/>
      <point x="1131" y="176"/>
      <point x="1131" y="331" type="qcurve"/>
      <point x="1131" y="339"/>
      <point x="1132" y="354"/>
      <point x="1132" y="362" type="qcurve"/>
      <point x="1135" y="438"/>
      <point x="1197" y="575"/>
      <point x="1296" y="678"/>
      <point x="1424" y="738"/>
      <point x="1492" y="738" type="qcurve"/>
      <point x="1511" y="738"/>
      <point x="1531" y="735" type="qcurve"/>
      <point x="1664" y="716"/>
      <point x="1800" y="556"/>
      <point x="1800" y="418" type="qcurve"/>
      <point x="1800" y="390"/>
      <point x="1797" y="362" type="qcurve"/>
      <point x="1789" y="277"/>
      <point x="1721" y="136"/>
      <point x="1620" y="35"/>
      <point x="1497" y="-21"/>
      <point x="1434" y="-21" type="qcurve"/>
      <point x="1416" y="-21"/>
    </contour>
    <contour>
      <point x="1639" y="351" type="qcurve"/>
      <point x="1641" y="365"/>
      <point x="1643" y="393"/>
      <point x="1643" y="407" type="qcurve"/>
      <point x="1643" y="440"/>
      <point x="1629" y="503"/>
      <point x="1596" y="554"/>
      <point x="1544" y="590"/>
      <point x="1505" y="596" type="qcurve"/>
      <point x="1499" y="597"/>
      <point x="1486" y="598"/>
      <point x="1480" y="598" type="qcurve"/>
      <point x="1442" y="598"/>
      <point x="1380" y="563"/>
      <point x="1333" y="502"/>
      <point x="1301" y="422"/>
      <point x="1295" y="377" type="qcurve"/>
      <point x="1293" y="360"/>
      <point x="1290" y="329"/>
      <point x="1290" y="314" type="qcurve"/>
      <point x="1290" y="280"/>
      <point x="1304" y="220"/>
      <point x="1336" y="172"/>
      <point x="1390" y="140"/>
      <point x="1429" y="134" type="qcurve"/>
      <point x="1434" y="133"/>
      <point x="1445" y="132"/>
      <point x="1450" y="132" type="qcurve"/>
      <point x="1490" y="132"/>
      <point x="1555" y="172"/>
      <point x="1603" y="235"/>
      <point x="1633" y="313"/>
    </contour>
  </outline>
</glyph>
<glyph name="minute" format="1">
  <advance width="500"/>
  <unicode hex="2032"/>
  <outline>
    <contour>
      <point x="567" y="1245" type="line"/>
      <point x="340" y="885" type="line"/>
      <point x="255" y="885" type="line"/>
      <point x="388" y="1245" type="line"/>
      <point x="436" y="1517" type="line"/>
      <point x="611" y="1493" type="line"/>
    </contour>
  </outline>
</glyph>
<glyph name="guilsinglleft" format="1">
  <advance width="900"/>
  <unicode hex="2039"/>
  <outline>
    <contour>
      <point x="850" y="1026" type="line"/>
      <point x="878" y="901" type="line"/>
      <point x="502" y="610" type="line"/>
      <point x="353" y="550" type="line"/>
      <point x="480" y="490" type="line"/>
      <point x="757" y="201" type="line"/>
      <point x="679" y="66" type="line"/>
      <point x="284" y="478" type="line"/>
      <point x="308" y="617" type="line"/>
    </contour>
  </outline>
</glyph>
<glyph name="zerosuperior" format="1">
  <advance width="800"/>
  <unicode hex="2070"/>
  <outline>
    <contour>
      <point x="299" y="711" type="qcurve"/>
      <point x="257" y="716"/>
      <point x="195" y="753"/>
      <point x="151" y="809"/>
      <point x="125" y="881"/>
      <point x="112" y="962"/>
      <point x="112" y="1051"/>
      <point x="116" y="1095" type="qcurve"/>
      <point x="120" y="1140"/>
      <point x="145" y="1235"/>
      <point x="185" y="1323"/>
      <point x="240" y="1400"/>
      <point x="308" y="1455"/>
      <point x="388" y="1483"/>
      <point x="434" y="1478" type="qcurve"/>
      <point x="476" y="1474"/>
      <point x="538" y="1438"/>
      <point x="582" y="1382"/>
      <point x="609" y="1309"/>
      <point x="623" y="1227"/>
      <point x="623" y="1138"/>
      <point x="618" y="1095" type="qcurve"/>
      <point x="612" y="1049"/>
      <point x="586" y="954"/>
      <point x="544" y="865"/>
      <point x="489" y="788"/>
      <point x="422" y="733"/>
      <point x="343" y="706"/>
    </contour>
    <contour>
      <point x="219" y="1116" type="qcurve"/>
      <point x="215" y="1087"/>
      <point x="208" y="1020"/>
      <point x="207" y="951"/>
      <point x="216" y="887"/>
      <point x="241" y="836"/>
      <point x="284" y="802"/>
      <point x="318" y="799" type="qcurve"/>
      <point x="347" y="796"/>
      <point x="398" y="817"/>
      <point x="440" y="857"/>
      <point x="473" y="912"/>
      <point x="497" y="975"/>
      <point x="512" y="1042"/>
      <point x="514" y="1073" type="qcurve"/>
      <point x="516" y="1102"/>
      <point x="522" y="1170"/>
      <point x="522" y="1239"/>
      <point x="513" y="1303"/>
      <point x="490" y="1354"/>
      <point x="448" y="1387"/>
      <point x="415" y="1390" type="qcurve"/>
      <point x="384" y="1393"/>
      <point x="334" y="1373"/>
      <point x="294" y="1333"/>
      <point x="262" y="1277"/>
      <point x="239" y="1214"/>
      <point x="223" y="1148"/>
    </contour>
  </outline>
</glyph>
<glyph name="foursuperior" format="1">
  <advance width="600"/>
  <unicode hex="2074"/>
  <outline>
    <contour>
      <point x="563" y="870" type="line"/>
      <point x="473" y="870" type="line"/>
      <point x="447" y="720" type="line"/>
      <point x="347" y="720" type="line"/>
      <point x="373" y="870" type="line"/>
      <point x="76" y="870" type="line"/>
      <point x="91" y="955" type="line"/>
      <point x="426" y="1480" type="line"/>
      <point x="518" y="1470" type="line"/>
      <point x="231" y="1020" type="line"/>
      <point x="173" y="950" type="line"/>
      <point x="388" y="950" type="line"/>
      <point x="423" y="1153" type="line"/>
      <point x="522" y="1145" type="line"/>
      <point x="488" y="950" type="line"/>
      <point x="585" y="950" type="line"/>
    </contour>
  </outline>
</glyph>
<glyph name="eightsuperior" format="1">
  <advance width="600"/>
  <unicode hex="2078"/>
  <outline>
    <contour>
      <point x="439" y="1478" type="qcurve"/>
      <point x="482" y="1476"/>
      <point x="551" y="1451"/>
      <point x="597" y="1405"/>
      <point x="618" y="1340"/>
      <point x="614" y="1297" type="qcurve"/>
      <point x="611" y="1267"/>
      <point x="587" y="1221"/>
      <point x="552" y="1185"/>
      <point x="507" y="1156"/>
      <point x="483" y="1143" type="qcurve"/>
      <point x="517" y="1126"/>
      <point x="563" y="1084"/>
      <point x="591" y="1031"/>
      <point x="600" y="965"/>
      <point x="597" y="925" type="qcurve"/>
      <point x="593" y="887"/>
      <point x="566" y="825"/>
      <point x="523" y="776"/>
      <point x="468" y="740"/>
      <point x="406" y="717"/>
      <point x="339" y="709"/>
      <point x="307" y="711" type="qcurve"/>
      <point x="260" y="715"/>
      <point x="181" y="744"/>
      <point x="127" y="798"/>
      <point x="101" y="878"/>
      <point x="106" y="932" type="qcurve"/>
      <point x="110" y="972"/>
      <point x="142" y="1037"/>
      <point x="191" y="1089"/>
      <point x="254" y="1129"/>
      <point x="289" y="1145" type="qcurve"/>
      <point x="268" y="1159"/>
      <point x="236" y="1191"/>
      <point x="215" y="1226"/>
      <point x="206" y="1267"/>
      <point x="208" y="1292" type="qcurve"/>
      <point x="211" y="1341"/>
      <point x="255" y="1413"/>
      <point x="320" y="1459"/>
      <point x="399" y="1480"/>
    </contour>
    <contour>
      <point x="367" y="1100" type="qcurve"/>
      <point x="333" y="1086"/>
      <point x="273" y="1054"/>
      <point x="228" y="1013"/>
      <point x="200" y="961"/>
      <point x="199" y="927" type="qcurve"/>
      <point x="197" y="896"/>
      <point x="214" y="849"/>
      <point x="247" y="816"/>
      <point x="293" y="797"/>
      <point x="321" y="793" type="qcurve"/>
      <point x="353" y="789"/>
      <point x="417" y="806"/>
      <point x="469" y="841"/>
      <point x="502" y="894"/>
      <point x="503" y="927" type="qcurve"/>
      <point x="504" y="962"/>
      <point x="483" y="1014"/>
      <point x="445" y="1055"/>
      <point x="395" y="1087"/>
    </contour>
    <contour>
      <point x="401" y="1181" type="qcurve"/>
      <point x="426" y="1192"/>
      <point x="470" y="1216"/>
      <point x="503" y="1245"/>
      <point x="523" y="1280"/>
      <point x="523" y="1301" type="qcurve"/>
      <point x="524" y="1327"/>
      <point x="509" y="1361"/>
      <point x="483" y="1383"/>
      <point x="451" y="1394"/>
      <point x="434" y="1396" type="qcurve"/>
      <point x="411" y="1398"/>
      <point x="364" y="1385"/>
      <point x="326" y="1359"/>
      <point x="301" y="1323"/>
      <point x="301" y="1303" type="qcurve"/>
      <point x="301" y="1280"/>
      <point x="316" y="1244"/>
      <point x="342" y="1216"/>
      <point x="379" y="1192"/>
    </contour>
  </outline>
</glyph>
<glyph name="ninesuperior" format="1">
  <advance width="600"/>
  <unicode hex="2079"/>
  <outline>
    <contour>
      <point x="482" y="1051" type="line"/>
      <point x="465" y="1040"/>
      <point x="434" y="1023"/>
      <point x="402" y="1011"/>
      <point x="369" y="1006"/>
      <point x="350" y="1006" type="qcurve"/>
      <point x="307" y="1007"/>
      <point x="235" y="1038"/>
      <point x="185" y="1096"/>
      <point x="158" y="1180"/>
      <point x="160" y="1235" type="qcurve"/>
      <point x="161" y="1291"/>
      <point x="208" y="1385"/>
      <point x="286" y="1452"/>
      <point x="388" y="1485"/>
      <point x="445" y="1478" type="qcurve"/>
      <point x="494" y="1473"/>
      <point x="562" y="1438"/>
      <point x="606" y="1388"/>
      <point x="629" y="1326"/>
      <point x="638" y="1259"/>
      <point x="637" y="1191"/>
      <point x="635" y="1160" type="qcurve"/>
      <point x="631" y="1100"/>
      <point x="592" y="988"/>
      <point x="529" y="888"/>
      <point x="446" y="805"/>
      <point x="347" y="745"/>
      <point x="237" y="711"/>
      <point x="179" y="711" type="qcurve"/>
      <point x="178" y="795" type="line"/>
      <point x="241" y="796"/>
      <point x="358" y="842"/>
      <point x="454" y="924"/>
      <point x="521" y="1039"/>
      <point x="532" y="1110" type="qcurve"/>
    </contour>
    <contour>
      <point x="542" y="1196" type="qcurve"/>
      <point x="543" y="1233"/>
      <point x="536" y="1301"/>
      <point x="512" y="1355"/>
      <point x="467" y="1390"/>
      <point x="431" y="1393" type="qcurve"/>
      <point x="395" y="1397"/>
      <point x="335" y="1375"/>
      <point x="290" y="1334"/>
      <point x="262" y="1277"/>
      <point x="258" y="1244" type="qcurve"/>
      <point x="255" y="1211"/>
      <point x="263" y="1158"/>
      <point x="289" y="1119"/>
      <point x="334" y="1095"/>
      <point x="368" y="1091" type="qcurve"/>
      <point x="394" y="1088"/>
      <point x="446" y="1102"/>
      <point x="492" y="1130"/>
      <point x="530" y="1171"/>
    </contour>
  </outline>
</glyph>
<glyph name="minussuperior" format="1">
  <advance width="600"/>
  <unicode hex="207B"/>
  <outline>
    <contour>
      <point x="111" y="1070" type="line"/>
      <point x="561" y="1070" type="line"/>
      <point x="548" y="992" type="line"/>
      <point x="98" y="992" type="line"/>
    </contour>
  </outline>
</glyph>
<glyph name="nsuperior" format="1">
  <advance width="600"/>
  <unicode hex="207F"/>
  <outline>
    <contour>
      <point x="191" y="720" type="line"/>
      <point x="100" y="720" type="line"/>
      <point x="196" y="1270" type="line"/>
      <point x="289" y="1280" type="line"/>
      <point x="273" y="1188" type="line"/>
      <point x="313" y="1242" type="line"/>
      <point x="326" y="1250"/>
      <point x="351" y="1265"/>
      <point x="381" y="1275"/>
      <point x="420" y="1280"/>
      <point x="447" y="1278" type="qcurve"/>
      <point x="483" y="1276"/>
      <point x="531" y="1246"/>
      <point x="558" y="1196"/>
      <point x="564" y="1131"/>
      <point x="558" y="1095" type="qcurve"/>
      <point x="492" y="720" type="line"/>
      <point x="401" y="720" type="line"/>
      <point x="467" y="1095" type="line"/>
      <point x="475" y="1141"/>
      <point x="444" y="1196"/>
      <point x="405" y="1198" type="qcurve"/>
      <point x="388" y="1199"/>
      <point x="352" y="1192"/>
      <point x="315" y="1176"/>
      <point x="280" y="1155"/>
      <point x="265" y="1142" type="qcurve"/>
    </contour>
  </outline>
</glyph>
<glyph name="zeroinferior" format="1">
  <advance width="600"/>
  <unicode hex="2080"/>
  <outline>
    <contour>
      <point x="299" y="-509" type="qcurve"/>
      <point x="257" y="-504"/>
      <point x="195" y="-467"/>
      <point x="151" y="-411"/>
      <point x="125" y="-339"/>
      <point x="112" y="-258"/>
      <point x="112" y="-169"/>
      <point x="116" y="-125" type="qcurve"/>
      <point x="120" y="-80"/>
      <point x="145" y="15"/>
      <point x="185" y="103"/>
      <point x="240" y="180"/>
      <point x="308" y="235"/>
      <point x="388" y="263"/>
      <point x="434" y="258" type="qcurve"/>
      <point x="476" y="254"/>
      <point x="538" y="218"/>
      <point x="582" y="162"/>
      <point x="609" y="89"/>
      <point x="623" y="7"/>
      <point x="623" y="-82"/>
      <point x="618" y="-125" type="qcurve"/>
      <point x="612" y="-171"/>
      <point x="586" y="-266"/>
      <point x="544" y="-355"/>
      <point x="489" y="-432"/>
      <point x="422" y="-487"/>
      <point x="343" y="-514"/>
    </contour>
    <contour>
      <point x="219" y="-104" type="qcurve"/>
      <point x="215" y="-133"/>
      <point x="208" y="-200"/>
      <point x="207" y="-269"/>
      <point x="216" y="-333"/>
      <point x="241" y="-384"/>
      <point x="284" y="-418"/>
      <point x="318" y="-421" type="qcurve"/>
      <point x="347" y="-424"/>
      <point x="398" y="-403"/>
      <point x="440" y="-363"/>
      <point x="473" y="-308"/>
      <point x="497" y="-245"/>
      <point x="512" y="-178"/>
      <point x="514" y="-147" type="qcurve"/>
      <point x="516" y="-118"/>
      <point x="522" y="-50"/>
      <point x="522" y="19"/>
      <point x="513" y="83"/>
      <point x="490" y="134"/>
      <point x="448" y="167"/>
      <point x="415" y="170" type="qcurve"/>
      <point x="384" y="173"/>
      <point x="334" y="153"/>
      <point x="294" y="113"/>
      <point x="262" y="57"/>
      <point x="239" y="-6"/>
      <point x="223" y="-72"/>
    </contour>
  </outline>
</glyph>
<glyph name="twoinferior" format="1">
  <advance width="600"/>
  <unicode hex="2082"/>
  <outline>
    <contour>
      <point x="76" y="-500" type="line"/>
      <point x="90" y="-416" type="line"/>
      <point x="121" y="-371"/>
      <point x="190" y="-293"/>
      <point x="259" y="-226"/>
      <point x="325" y="-171"/>
      <point x="351" y="-149" type="qcurve"/>
      <point x="385" y="-121"/>
      <point x="445" y="-72"/>
      <point x="490" y="-23"/>
      <point x="515" y="28"/>
      <point x="515" y="57" type="qcurve"/>
      <point x="515" y="103"/>
      <point x="466" y="164"/>
      <point x="413" y="174" type="qcurve"/>
      <point x="385" y="179"/>
      <point x="337" y="166"/>
      <point x="297" y="138"/>
      <point x="265" y="100"/>
      <point x="253" y="80" type="qcurve"/>
      <point x="188" y="110" type="line"/>
      <point x="206" y="147"/>
      <point x="256" y="205"/>
      <point x="319" y="243"/>
      <point x="394" y="261"/>
      <point x="436" y="258" type="qcurve"/>
      <point x="483" y="255"/>
      <point x="551" y="217"/>
      <point x="595" y="159"/>
      <point x="614" y="88"/>
      <point x="612" y="52" type="qcurve"/>
      <point x="610" y="13"/>
      <point x="572" y="-57"/>
      <point x="518" y="-119"/>
      <point x="455" y="-174"/>
      <point x="427" y="-198" type="qcurve"/>
      <point x="396" y="-224"/>
      <point x="334" y="-278"/>
      <point x="277" y="-333"/>
      <point x="226" y="-390"/>
      <point x="207" y="-420" type="qcurve"/>
      <point x="542" y="-420" type="line"/>
      <point x="528" y="-500" type="line"/>
    </contour>
  </outline>
</glyph>
<glyph name="fiveinferior" format="1">
  <advance width="600"/>
  <unicode hex="2085"/>
  <outline>
    <contour>
      <point x="285" y="-9" type="line"/>
      <point x="289" y="-7"/>
      <point x="307" y="2"/>
      <point x="331" y="11"/>
      <point x="359" y="17"/>
      <point x="372" y="17" type="qcurve"/>
      <point x="426" y="17"/>
      <point x="503" y="-15"/>
      <point x="551" y="-71"/>
      <point x="571" y="-147"/>
      <point x="569" y="-191" type="qcurve"/>
      <point x="565" y="-246"/>
      <point x="525" y="-334"/>
      <point x="458" y="-403"/>
      <point x="370" y="-453"/>
      <point x="268" y="-485"/>
      <point x="156" y="-500"/>
      <point x="100" y="-500" type="qcurve"/>
      <point x="114" y="-420" type="line"/>
      <point x="185" y="-420"/>
      <point x="311" y="-388"/>
      <point x="407" y="-330"/>
      <point x="465" y="-250"/>
      <point x="469" y="-201" type="qcurve"/>
      <point x="471" y="-175"/>
      <point x="456" y="-127"/>
      <point x="424" y="-90"/>
      <point x="377" y="-67"/>
      <point x="348" y="-67" type="qcurve"/>
      <point x="307" y="-67"/>
      <point x="251" y="-84"/>
      <point x="227" y="-100" type="qcurve"/>
      <point x="170" y="-100" type="line"/>
      <point x="232" y="250" type="line"/>
      <point x="603" y="250" type="line"/>
      <point x="589" y="170" type="line"/>
      <point x="317" y="170" type="line"/>
    </contour>
  </outline>
</glyph>
<glyph name="seveninferior" format="1">
  <advance width="600"/>
  <unicode hex="2087"/>
  <outline>
    <contour>
      <point x="232" y="250" type="line"/>
      <point x="678" y="250" type="line"/>
      <point x="667" y="185" type="line"/>
      <point x="663" y="164"/>
      <point x="619" y="101"/>
      <point x="555" y="23"/>
      <point x="479" y="-70"/>
      <point x="408" y="-172"/>
      <point x="349" y="-280"/>
      <point x="334" y="-336" type="qcurve"/>
      <point x="329" y="-356"/>
      <point x="318" y="-400"/>
      <point x="309" y="-443"/>
      <point x="302" y="-483"/>
      <point x="299" y="-500" type="qcurve"/>
      <point x="200" y="-500" type="line"/>
      <point x="202" y="-485"/>
      <point x="212" y="-435"/>
      <point x="225" y="-379"/>
      <point x="239" y="-324"/>
      <point x="245" y="-304" type="qcurve"/>
      <point x="263" y="-250"/>
      <point x="319" y="-145"/>
      <point x="384" y="-50"/>
      <point x="452" y="34"/>
      <point x="510" y="103"/>
      <point x="551" y="155"/>
      <point x="557" y="170" type="qcurve"/>
      <point x="218" y="170" type="line"/>
    </contour>
  </outline>
</glyph>
<glyph name="heightinferior" format="1">
  <advance width="600"/>
  <unicode hex="2088"/>
  <outline>
    <contour>
      <point x="439" y="258" type="qcurve"/>
      <point x="482" y="256"/>
      <point x="551" y="231"/>
      <point x="597" y="185"/>
      <point x="618" y="120"/>
      <point x="614" y="77" type="qcurve"/>
      <point x="611" y="47"/>
      <point x="587" y="1"/>
      <point x="552" y="-35"/>
      <point x="507" y="-64"/>
      <point x="483" y="-77" type="qcurve"/>
      <point x="517" y="-94"/>
      <point x="563" y="-136"/>
      <point x="591" y="-189"/>
      <point x="600" y="-255"/>
      <point x="597" y="-295" type="qcurve"/>
      <point x="593" y="-333"/>
      <point x="566" y="-395"/>
      <point x="523" y="-444"/>
      <point x="468" y="-480"/>
      <point x="406" y="-503"/>
      <point x="339" y="-511"/>
      <point x="307" y="-509" type="qcurve"/>
      <point x="260" y="-505"/>
      <point x="181" y="-476"/>
      <point x="127" y="-422"/>
      <point x="101" y="-342"/>
      <point x="106" y="-288" type="qcurve"/>
      <point x="110" y="-248"/>
      <point x="142" y="-183"/>
      <point x="191" y="-131"/>
      <point x="254" y="-91"/>
      <point x="289" y="-75" type="qcurve"/>
      <point x="268" y="-61"/>
      <point x="236" y="-29"/>
      <point x="215" y="6"/>
      <point x="206" y="47"/>
      <point x="208" y="72" type="qcurve"/>
      <point x="211" y="121"/>
      <point x="255" y="193"/>
      <point x="320" y="239"/>
      <point x="399" y="260"/>
    </contour>
    <contour>
      <point x="367" y="-120" type="qcurve"/>
      <point x="333" y="-134"/>
      <point x="273" y="-166"/>
      <point x="228" y="-207"/>
      <point x="200" y="-259"/>
      <point x="199" y="-293" type="qcurve"/>
      <point x="197" y="-324"/>
      <point x="214" y="-371"/>
      <point x="247" y="-404"/>
      <point x="293" y="-423"/>
      <point x="321" y="-427" type="qcurve"/>
      <point x="353" y="-431"/>
      <point x="417" y="-414"/>
      <point x="469" y="-379"/>
      <point x="502" y="-326"/>
      <point x="503" y="-293" type="qcurve"/>
      <point x="504" y="-258"/>
      <point x="483" y="-206"/>
      <point x="445" y="-165"/>
      <point x="395" y="-133"/>
    </contour>
    <contour>
      <point x="401" y="-39" type="qcurve"/>
      <point x="426" y="-28"/>
      <point x="470" y="-4"/>
      <point x="503" y="25"/>
      <point x="523" y="60"/>
      <point x="523" y="81" type="qcurve"/>
      <point x="524" y="107"/>
      <point x="509" y="141"/>
      <point x="483" y="163"/>
      <point x="451" y="174"/>
      <point x="434" y="176" type="qcurve"/>
      <point x="411" y="178"/>
      <point x="364" y="165"/>
      <point x="326" y="139"/>
      <point x="301" y="103"/>
      <point x="301" y="83" type="qcurve"/>
      <point x="301" y="60"/>
      <point x="316" y="24"/>
      <point x="342" y="-4"/>
      <point x="379" y="-28"/>
    </contour>
  </outline>
</glyph>
<glyph name="nineinferior" format="1">
  <advance width="600"/>
  <unicode hex="2089"/>
  <outline>
    <contour>
      <point x="482" y="-169" type="line"/>
      <point x="465" y="-180"/>
      <point x="434" y="-197"/>
      <point x="402" y="-209"/>
      <point x="369" y="-214"/>
      <point x="350" y="-214" type="qcurve"/>
      <point x="307" y="-213"/>
      <point x="235" y="-182"/>
      <point x="185" y="-124"/>
      <point x="158" y="-40"/>
      <point x="160" y="15" type="qcurve"/>
      <point x="161" y="71"/>
      <point x="208" y="165"/>
      <point x="286" y="232"/>
      <point x="388" y="265"/>
      <point x="445" y="258" type="qcurve"/>
      <point x="494" y="253"/>
      <point x="562" y="218"/>
      <point x="606" y="168"/>
      <point x="629" y="106"/>
      <point x="638" y="39"/>
      <point x="637" y="-29"/>
      <point x="635" y="-60" type="qcurve"/>
      <point x="631" y="-120"/>
      <point x="592" y="-232"/>
      <point x="529" y="-332"/>
      <point x="446" y="-415"/>
      <point x="347" y="-475"/>
      <point x="237" y="-509"/>
      <point x="179" y="-509" type="qcurve"/>
      <point x="178" y="-425" type="line"/>
      <point x="241" y="-424"/>
      <point x="358" y="-378"/>
      <point x="454" y="-296"/>
      <point x="521" y="-181"/>
      <point x="532" y="-110" type="qcurve"/>
    </contour>
    <contour>
      <point x="542" y="-24" type="qcurve"/>
      <point x="543" y="13"/>
      <point x="536" y="81"/>
      <point x="512" y="135"/>
      <point x="467" y="170"/>
      <point x="431" y="173" type="qcurve"/>
      <point x="395" y="177"/>
      <point x="335" y="155"/>
      <point x="290" y="114"/>
      <point x="262" y="57"/>
      <point x="258" y="24" type="qcurve"/>
      <point x="255" y="-9"/>
      <point x="263" y="-62"/>
      <point x="289" y="-101"/>
      <point x="334" y="-125"/>
      <point x="368" y="-129" type="qcurve"/>
      <point x="394" y="-132"/>
      <point x="446" y="-118"/>
      <point x="492" y="-90"/>
      <point x="530" y="-49"/>
    </contour>
  </outline>
</glyph>
<glyph name="plusinferior" format="1">
  <advance width="600"/>
  <unicode hex="208A"/>
  <outline>
    <contour>
      <point x="111" y="-150" type="line"/>
      <point x="298" y="-150" type="line"/>
      <point x="335" y="61" type="line"/>
      <point x="413" y="61" type="line"/>
      <point x="375" y="-150" type="line"/>
      <point x="561" y="-150" type="line"/>
      <point x="548" y="-228" type="line"/>
      <point x="362" y="-228" type="line"/>
      <point x="324" y="-439" type="line"/>
      <point x="247" y="-439" type="line"/>
      <point x="284" y="-228" type="line"/>
      <point x="98" y="-228" type="line"/>
    </contour>
  </outline>
</glyph>
<glyph name="minusinferior" format="1">
  <advance width="600"/>
  <unicode hex="208B"/>
  <outline>
    <contour>
      <point x="111" y="-150" type="line"/>
      <point x="561" y="-150" type="line"/>
      <point x="548" y="-228" type="line"/>
      <point x="98" y="-228" type="line"/>
    </contour>
  </outline>
</glyph>
<glyph name="equalinferior" format="1">
  <advance width="600"/>
  <unicode hex="208C"/>
  <outline>
    <contour>
      <point x="170" y="-100" type="line"/>
      <point x="520" y="-100" type="line"/>
      <point x="506" y="-178" type="line"/>
      <point x="156" y="-178" type="line"/>
    </contour>
    <contour>
      <point x="135" y="-300" type="line"/>
      <point x="485" y="-300" type="line"/>
      <point x="471" y="-378" type="line"/>
      <point x="121" y="-378" type="line"/>
    </contour>
  </outline>
</glyph>
<glyph name="parenleftinferior" format="1">
  <advance width="400"/>
  <unicode hex="208D"/>
  <outline>
    <contour>
      <point x="204" y="90" type="line"/>
      <point x="214" y="150"/>
      <point x="238" y="231"/>
      <point x="277" y="279"/>
      <point x="339" y="300"/>
      <point x="388" y="300" type="qcurve"/>
      <point x="397" y="300"/>
      <point x="418" y="298"/>
      <point x="436" y="295"/>
      <point x="451" y="290"/>
      <point x="455" y="287" type="qcurve"/>
      <point x="409" y="224" type="line"/>
      <point x="402" y="225" type="line"/>
      <point x="399" y="226"/>
      <point x="390" y="227"/>
      <point x="385" y="227" type="qcurve"/>
      <point x="357" y="227"/>
      <point x="328" y="206"/>
      <point x="313" y="170"/>
      <point x="306" y="123"/>
      <point x="302" y="97" type="qcurve"/>
      <point x="195" y="-507" type="line"/>
      <point x="191" y="-533"/>
      <point x="182" y="-580"/>
      <point x="185" y="-616"/>
      <point x="206" y="-637"/>
      <point x="232" y="-637" type="qcurve"/>
      <point x="238" y="-637"/>
      <point x="247" y="-637"/>
      <point x="251" y="-636" type="qcurve"/>
      <point x="258" y="-635" type="line"/>
      <point x="281" y="-698" type="line"/>
      <point x="276" y="-701"/>
      <point x="259" y="-706"/>
      <point x="240" y="-710"/>
      <point x="219" y="-711"/>
      <point x="209" y="-710" type="qcurve"/>
      <point x="175" y="-708"/>
      <point x="129" y="-689"/>
      <point x="102" y="-659"/>
      <point x="91" y="-619"/>
      <point x="89" y="-574"/>
      <point x="95" y="-525"/>
      <point x="100" y="-500" type="qcurve"/>
    </contour>
  </outline>
</glyph>
<glyph name="Ifraktur" format="1">
  <advance width="1100"/>
  <unicode hex="2111"/>
  <outline>
    <contour>
      <point x="248" y="1400" type="qcurve"/>
      <point x="958" y="1400" type="line"/>
      <point x="932" y="1216" type="line"/>
      <point x="893" y="1193"/>
      <point x="817" y="1124"/>
      <point x="757" y="1044"/>
      <point x="720" y="962"/>
      <point x="720" y="926" type="qcurve"/>
      <point x="720" y="882"/>
      <point x="761" y="785"/>
      <point x="824" y="680"/>
      <point x="896" y="567"/>
      <point x="959" y="446"/>
      <point x="1000" y="318"/>
      <point x="1000" y="251" type="qcurve"/>
      <point x="1000" y="177"/>
      <point x="932" y="75"/>
      <point x="830" y="11"/>
      <point x="712" y="-17"/>
      <point x="662" y="-17" type="qcurve"/>
      <point x="611" y="-17"/>
      <point x="508" y="7"/>
      <point x="417" y="43"/>
      <point x="342" y="84"/>
      <point x="318" y="102" type="qcurve"/>
      <point x="300" y="200" type="line"/>
      <point x="150" y="66" type="line"/>
      <point x="31" y="156" type="line"/>
      <point x="260" y="353" type="line"/>
      <point x="299" y="316"/>
      <point x="409" y="248"/>
      <point x="526" y="195"/>
      <point x="637" y="164"/>
      <point x="678" y="164" type="qcurve"/>
      <point x="700" y="164"/>
      <point x="740" y="174"/>
      <point x="771" y="195"/>
      <point x="790" y="228"/>
      <point x="790" y="252" type="qcurve"/>
      <point x="790" y="289"/>
      <point x="747" y="386"/>
      <point x="683" y="497"/>
      <point x="607" y="617"/>
      <point x="543" y="736"/>
      <point x="500" y="850"/>
      <point x="500" y="900" type="qcurve"/>
      <point x="500" y="926"/>
      <point x="523" y="1000"/>
      <point x="576" y="1084"/>
      <point x="662" y="1174"/>
      <point x="724" y="1216" type="qcurve"/>
      <point x="300" y="1216" type="line"/>
      <point x="277" y="1193"/>
      <point x="261" y="1137"/>
      <point x="261" y="1107" type="qcurve"/>
      <point x="261" y="1090"/>
      <point x="270" y="1054"/>
      <point x="275" y="1040" type="qcurve"/>
      <point x="281" y="1023"/>
      <point x="290" y="1007" type="qcurve"/>
      <point x="184" y="947" type="line"/>
      <point x="125" y="1030"/>
      <point x="125" y="1121" type="qcurve"/>
      <point x="125" y="1251"/>
    </contour>
  </outline>
</glyph>
<glyph name="weierstrass" format="1">
  <advance width="1667"/>
  <unicode hex="2118"/>
  <outline>
    <contour>
      <point x="339" y="-361" type="qcurve"/>
      <point x="364" y="-361"/>
      <point x="404" y="-325"/>
      <point x="431" y="-269"/>
      <point x="446" y="-199"/>
      <point x="446" y="-164" type="qcurve"/>
      <point x="446" y="-128"/>
      <point x="435" y="-38"/>
      <point x="417" y="52"/>
      <point x="394" y="136"/>
      <point x="382" y="168" type="qcurve"/>
      <point x="382" y="254" type="line"/>
      <point x="350" y="200"/>
      <point x="294" y="79"/>
      <point x="253" y="-48"/>
      <point x="229" y="-177"/>
      <point x="229" y="-239" type="qcurve"/>
      <point x="229" y="-298"/>
      <point x="288" y="-361"/>
    </contour>
    <contour>
      <point x="720" y="1031" type="line"/>
      <point x="658" y="1019"/>
      <point x="534" y="954"/>
      <point x="434" y="851"/>
      <point x="371" y="709"/>
      <point x="371" y="620" type="qcurve"/>
      <point x="371" y="578"/>
      <point x="382" y="528" type="qcurve"/>
      <point x="382" y="406" type="line"/>
      <point x="453" y="517"/>
      <point x="618" y="730"/>
      <point x="807" y="896"/>
      <point x="1021" y="997"/>
      <point x="1143" y="997" type="qcurve"/>
      <point x="1219" y="997"/>
      <point x="1343" y="954"/>
      <point x="1430" y="864"/>
      <point x="1477" y="726"/>
      <point x="1477" y="630" type="qcurve"/>
      <point x="1477" y="487"/>
      <point x="1402" y="249"/>
      <point x="1266" y="78"/>
      <point x="1073" y="-17"/>
      <point x="955" y="-17" type="qcurve"/>
      <point x="909" y="-17"/>
      <point x="817" y="15"/>
      <point x="744" y="77"/>
      <point x="698" y="165"/>
      <point x="698" y="221" type="qcurve"/>
      <point x="698" y="296"/>
      <point x="739" y="410"/>
      <point x="803" y="495"/>
      <point x="881" y="553"/>
      <point x="956" y="589"/>
      <point x="1019" y="607"/>
      <point x="1035" y="610" type="qcurve"/>
      <point x="1065" y="470" type="line"/>
      <point x="1040" y="459"/>
      <point x="960" y="419"/>
      <point x="883" y="353"/>
      <point x="827" y="258"/>
      <point x="827" y="194" type="qcurve"/>
      <point x="827" y="169"/>
      <point x="846" y="131"/>
      <point x="879" y="105"/>
      <point x="921" y="91"/>
      <point x="945" y="91" type="qcurve"/>
      <point x="1011" y="91"/>
      <point x="1115" y="143"/>
      <point x="1193" y="230"/>
      <point x="1247" y="342"/>
      <point x="1280" y="463"/>
      <point x="1295" y="583"/>
      <point x="1295" y="633" type="qcurve"/>
      <point x="1295" y="676"/>
      <point x="1279" y="758"/>
      <point x="1239" y="821"/>
      <point x="1171" y="860"/>
      <point x="1119" y="860" type="qcurve"/>
      <point x="1045" y="860"/>
      <point x="908" y="813"/>
      <point x="783" y="735"/>
      <point x="669" y="631"/>
      <point x="568" y="519"/>
      <point x="482" y="404"/>
      <point x="446" y="353" type="qcurve"/>
      <point x="476" y="288"/>
      <point x="532" y="161"/>
      <point x="575" y="35"/>
      <point x="600" y="-92"/>
      <point x="600" y="-157" type="qcurve"/>
      <point x="600" y="-218"/>
      <point x="572" y="-346"/>
      <point x="506" y="-450"/>
      <point x="396" y="-517"/>
      <point x="314" y="-517" type="qcurve"/>
      <point x="255" y="-517"/>
      <point x="174" y="-476"/>
      <point x="123" y="-408"/>
      <point x="101" y="-318"/>
      <point x="101" y="-269" type="qcurve"/>
      <point x="101" y="-186"/>
      <point x="138" y="-29"/>
      <point x="198" y="115"/>
      <point x="274" y="244"/>
      <point x="313" y="299" type="qcurve"/>
      <point x="298" y="333"/>
      <point x="266" y="410"/>
      <point x="240" y="490"/>
      <point x="223" y="569"/>
      <point x="223" y="605" type="qcurve"/>
      <point x="223" y="683"/>
      <point x="266" y="820"/>
      <point x="339" y="934"/>
      <point x="434" y="1023"/>
      <point x="540" y="1085"/>
      <point x="650" y="1117"/>
      <point x="700" y="1117" type="qcurve"/>
    </contour>
  </outline>
</glyph>
<glyph name="Rfraktur" format="1">
  <advance width="1600"/>
  <unicode hex="211C"/>
  <outline>
    <contour>
      <point x="751" y="588" type="line"/>
      <point x="831" y="660" type="line"/>
      <point x="955" y="689" type="line"/>
      <point x="986" y="696"/>
      <point x="1040" y="744"/>
      <point x="1086" y="811"/>
      <point x="1122" y="892"/>
      <point x="1147" y="973"/>
      <point x="1160" y="1048"/>
      <point x="1160" y="1076" type="qcurve"/>
      <point x="1160" y="1108"/>
      <point x="1145" y="1165"/>
      <point x="1136" y="1186" type="qcurve"/>
      <point x="1125" y="1211"/>
      <point x="1112" y="1232" type="qcurve"/>
      <point x="1026" y="1232"/>
      <point x="906" y="1207"/>
      <point x="826" y="1165"/>
      <point x="780" y="1110"/>
      <point x="757" y="1048"/>
      <point x="751" y="983"/>
      <point x="751" y="953" type="qcurve"/>
    </contour>
    <contour>
      <point x="1192" y="1400" type="line"/>
      <point x="1231" y="1374"/>
      <point x="1299" y="1302"/>
      <point x="1349" y="1217"/>
      <point x="1378" y="1126"/>
      <point x="1378" y="1083" type="qcurve"/>
      <point x="1378" y="1055"/>
      <point x="1366" y="974"/>
      <point x="1344" y="883"/>
      <point x="1313" y="789"/>
      <point x="1276" y="707"/>
      <point x="1232" y="644"/>
      <point x="1209" y="629" type="qcurve"/>
      <point x="1246" y="591"/>
      <point x="1266" y="505"/>
      <point x="1266" y="447" type="qcurve"/>
      <point x="1266" y="290" type="line"/>
      <point x="1266" y="273"/>
      <point x="1271" y="237"/>
      <point x="1283" y="204"/>
      <point x="1301" y="177"/>
      <point x="1314" y="168" type="qcurve"/>
      <point x="1467" y="221" type="line"/>
      <point x="1520" y="125" type="line"/>
      <point x="1270" y="-17" type="line"/>
      <point x="1234" y="-8"/>
      <point x="1154" y="20"/>
      <point x="1085" y="68"/>
      <point x="1040" y="143"/>
      <point x="1040" y="200" type="qcurve"/>
      <point x="1040" y="371" type="line"/>
      <point x="1040" y="412"/>
      <point x="1039" y="467"/>
      <point x="1033" y="507"/>
      <point x="1019" y="539"/>
      <point x="1007" y="556" type="qcurve"/>
      <point x="751" y="493" type="line"/>
      <point x="751" y="300" type="line"/>
      <point x="751" y="245"/>
      <point x="726" y="132"/>
      <point x="667" y="41"/>
      <point x="571" y="-17"/>
      <point x="500" y="-17" type="qcurve"/>
      <point x="466" y="-17"/>
      <point x="401" y="6"/>
      <point x="375" y="20" type="qcurve"/>
      <point x="345" y="36"/>
      <point x="318" y="57" type="qcurve"/>
      <point x="297" y="157" type="line"/>
      <point x="150" y="26" type="line"/>
      <point x="31" y="116" type="line"/>
      <point x="261" y="313" type="line"/>
      <point x="458" y="169" type="line"/>
      <point x="481" y="181"/>
      <point x="508" y="214"/>
      <point x="523" y="250"/>
      <point x="528" y="286"/>
      <point x="528" y="300" type="qcurve"/>
      <point x="528" y="953" type="line"/>
      <point x="528" y="980"/>
      <point x="546" y="1049"/>
      <point x="597" y="1121"/>
      <point x="691" y="1189"/>
      <point x="768" y="1216" type="qcurve"/>
      <point x="301" y="1216" type="line"/>
      <point x="278" y="1196"/>
      <point x="261" y="1142"/>
      <point x="261" y="1112" type="qcurve"/>
      <point x="261" y="1092"/>
      <point x="270" y="1055"/>
      <point x="275" y="1040" type="qcurve"/>
      <point x="281" y="1022"/>
      <point x="290" y="1007" type="qcurve"/>
      <point x="184" y="947" type="line"/>
      <point x="148" y="994"/>
      <point x="125" y="1080"/>
      <point x="125" y="1130" type="qcurve"/>
      <point x="125" y="1167"/>
      <point x="145" y="1240"/>
      <point x="179" y="1309"/>
      <point x="224" y="1373"/>
      <point x="248" y="1400" type="qcurve"/>
    </contour>
  </outline>
</glyph>
<glyph name="Ohm" format="1">
  <advance width="1600"/>
  <unicode hex="2126"/>
  <outline>
    <contour>
      <point x="130" y="160" type="line"/>
      <point x="328" y="160" type="line"/>
      <point x="518" y="100" type="line"/>
      <point x="345" y="304" type="line"/>
      <point x="312" y="356"/>
      <point x="273" y="470"/>
      <point x="255" y="590"/>
      <point x="254" y="713"/>
      <point x="260" y="775" type="qcurve"/>
      <point x="276" y="940"/>
      <point x="400" y="1219"/>
      <point x="606" y="1418"/>
      <point x="890" y="1525"/>
      <point x="1067" y="1517" type="qcurve"/>
      <point x="1193" y="1511"/>
      <point x="1406" y="1405"/>
      <point x="1556" y="1214"/>
      <point x="1628" y="944"/>
      <point x="1612" y="775" type="qcurve"/>
      <point x="1603" y="683"/>
      <point x="1554" y="534"/>
      <point x="1491" y="417"/>
      <point x="1426" y="332"/>
      <point x="1402" y="304" type="qcurve"/>
      <point x="1116" y="100" type="line"/>
      <point x="1327" y="160" type="line"/>
      <point x="1525" y="160" type="line"/>
      <point x="1497" y="0" type="line"/>
      <point x="949" y="0" type="line"/>
      <point x="984" y="200" type="line"/>
      <point x="1050" y="219"/>
      <point x="1189" y="307"/>
      <point x="1308" y="443"/>
      <point x="1390" y="628"/>
      <point x="1399" y="744" type="qcurve"/>
      <point x="1409" y="884"/>
      <point x="1379" y="1103"/>
      <point x="1290" y="1256"/>
      <point x="1140" y="1341"/>
      <point x="1031" y="1347" type="qcurve"/>
      <point x="936" y="1352"/>
      <point x="781" y="1312"/>
      <point x="660" y="1236"/>
      <point x="571" y="1131"/>
      <point x="511" y="1008"/>
      <point x="478" y="875"/>
      <point x="474" y="810" type="qcurve"/>
      <point x="467" y="697"/>
      <point x="481" y="511"/>
      <point x="530" y="361"/>
      <point x="618" y="244"/>
      <point x="685" y="200" type="qcurve"/>
      <point x="650" y="0" type="line"/>
      <point x="102" y="0" type="line"/>
    </contour>
  </outline>
</glyph>
<glyph name="twothirds" format="1">
  <advance width="1500"/>
  <unicode hex="2154"/>
  <outline>
    <contour>
      <point x="454" y="0" type="line"/>
      <point x="319" y="0" type="line"/>
      <point x="1094" y="1500" type="line"/>
      <point x="1220" y="1500" type="line"/>
    </contour>
    <contour>
      <point x="76" y="720" type="line"/>
      <point x="90" y="804" type="line"/>
      <point x="121" y="849"/>
      <point x="190" y="927"/>
      <point x="259" y="994"/>
      <point x="325" y="1049"/>
      <point x="351" y="1071" type="qcurve"/>
      <point x="385" y="1099"/>
      <point x="445" y="1148"/>
      <point x="490" y="1197"/>
      <point x="515" y="1248"/>
      <point x="515" y="1277" type="qcurve"/>
      <point x="515" y="1323"/>
      <point x="466" y="1384"/>
      <point x="413" y="1394" type="qcurve"/>
      <point x="385" y="1399"/>
      <point x="337" y="1386"/>
      <point x="297" y="1358"/>
      <point x="265" y="1320"/>
      <point x="253" y="1300" type="qcurve"/>
      <point x="188" y="1330" type="line"/>
      <point x="206" y="1367"/>
      <point x="256" y="1425"/>
      <point x="319" y="1463"/>
      <point x="394" y="1481"/>
      <point x="436" y="1478" type="qcurve"/>
      <point x="483" y="1475"/>
      <point x="551" y="1437"/>
      <point x="595" y="1379"/>
      <point x="614" y="1308"/>
      <point x="612" y="1272" type="qcurve"/>
      <point x="610" y="1233"/>
      <point x="572" y="1163"/>
      <point x="518" y="1101"/>
      <point x="455" y="1046"/>
      <point x="427" y="1022" type="qcurve"/>
      <point x="396" y="996"/>
      <point x="334" y="942"/>
      <point x="277" y="887"/>
      <point x="226" y="830"/>
      <point x="207" y="800" type="qcurve"/>
      <point x="542" y="800" type="line"/>
      <point x="528" y="720" type="line"/>
    </contour>
    <contour>
      <point x="1078" y="670" type="line"/>
      <point x="1100" y="750" type="line"/>
      <point x="1465" y="750" type="line"/>
      <point x="1452" y="680" type="line"/>
      <point x="1443" y="660"/>
      <point x="1407" y="616"/>
      <point x="1360" y="572"/>
      <point x="1307" y="529"/>
      <point x="1281" y="509" type="qcurve"/>
      <point x="1208" y="472" type="line"/>
      <point x="1213" y="473"/>
      <point x="1229" y="473"/>
      <point x="1236" y="474" type="qcurve"/>
      <point x="1273" y="475"/>
      <point x="1345" y="448"/>
      <point x="1400" y="396"/>
      <point x="1431" y="322"/>
      <point x="1425" y="276" type="qcurve"/>
      <point x="1419" y="224"/>
      <point x="1374" y="142"/>
      <point x="1305" y="81"/>
      <point x="1216" y="38"/>
      <point x="1115" y="12"/>
      <point x="1006" y="0"/>
      <point x="953" y="0" type="qcurve"/>
      <point x="967" y="80" type="line"/>
      <point x="1006" y="80"/>
      <point x="1089" y="89"/>
      <point x="1167" y="107"/>
      <point x="1237" y="136"/>
      <point x="1290" y="178"/>
      <point x="1322" y="235"/>
      <point x="1324" y="271" type="qcurve"/>
      <point x="1326" y="303"/>
      <point x="1302" y="351"/>
      <point x="1255" y="382"/>
      <point x="1190" y="396"/>
      <point x="1150" y="395" type="qcurve"/>
      <point x="1134" y="394"/>
      <point x="1096" y="393"/>
      <point x="1081" y="392" type="qcurve"/>
      <point x="1095" y="470" type="line"/>
      <point x="1118" y="485"/>
      <point x="1173" y="523"/>
      <point x="1229" y="564"/>
      <point x="1283" y="607"/>
      <point x="1328" y="645"/>
      <point x="1360" y="679"/>
      <point x="1366" y="690" type="qcurve"/>
      <point x="1286" y="670" type="line"/>
    </contour>
  </outline>
</glyph>
<glyph name="twofifths" format="1">
  <advance width="1500"/>
  <unicode hex="2156"/>
  <outline>
    <contour>
      <point x="454" y="0" type="line"/>
      <point x="319" y="0" type="line"/>
      <point x="1094" y="1500" type="line"/>
      <point x="1220" y="1500" type="line"/>
    </contour>
    <contour>
      <point x="76" y="720" type="line"/>
      <point x="90" y="804" type="line"/>
      <point x="121" y="849"/>
      <point x="190" y="927"/>
      <point x="259" y="994"/>
      <point x="325" y="1049"/>
      <point x="351" y="1071" type="qcurve"/>
      <point x="385" y="1099"/>
      <point x="445" y="1148"/>
      <point x="490" y="1197"/>
      <point x="515" y="1248"/>
      <point x="515" y="1277" type="qcurve"/>
      <point x="515" y="1323"/>
      <point x="466" y="1384"/>
      <point x="413" y="1394" type="qcurve"/>
      <point x="385" y="1399"/>
      <point x="337" y="1386"/>
      <point x="297" y="1358"/>
      <point x="265" y="1320"/>
      <point x="253" y="1300" type="qcurve"/>
      <point x="188" y="1330" type="line"/>
      <point x="206" y="1367"/>
      <point x="256" y="1425"/>
      <point x="319" y="1463"/>
      <point x="394" y="1481"/>
      <point x="436" y="1478" type="qcurve"/>
      <point x="483" y="1475"/>
      <point x="551" y="1437"/>
      <point x="595" y="1379"/>
      <point x="614" y="1308"/>
      <point x="612" y="1272" type="qcurve"/>
      <point x="610" y="1233"/>
      <point x="572" y="1163"/>
      <point x="518" y="1101"/>
      <point x="455" y="1046"/>
      <point x="427" y="1022" type="qcurve"/>
      <point x="396" y="996"/>
      <point x="334" y="942"/>
      <point x="277" y="887"/>
      <point x="226" y="830"/>
      <point x="207" y="800" type="qcurve"/>
      <point x="542" y="800" type="line"/>
      <point x="528" y="720" type="line"/>
    </contour>
    <contour>
      <point x="1138" y="491" type="line"/>
      <point x="1142" y="493"/>
      <point x="1160" y="502"/>
      <point x="1184" y="511"/>
      <point x="1212" y="517"/>
      <point x="1225" y="517" type="qcurve"/>
      <point x="1279" y="517"/>
      <point x="1356" y="485"/>
      <point x="1404" y="429"/>
      <point x="1424" y="353"/>
      <point x="1422" y="309" type="qcurve"/>
      <point x="1418" y="254"/>
      <point x="1378" y="166"/>
      <point x="1311" y="97"/>
      <point x="1223" y="47"/>
      <point x="1121" y="15"/>
      <point x="1009" y="0"/>
      <point x="953" y="0" type="qcurve"/>
      <point x="967" y="80" type="line"/>
      <point x="1038" y="80"/>
      <point x="1164" y="112"/>
      <point x="1260" y="170"/>
      <point x="1318" y="250"/>
      <point x="1322" y="299" type="qcurve"/>
      <point x="1324" y="325"/>
      <point x="1309" y="373"/>
      <point x="1277" y="410"/>
      <point x="1230" y="433"/>
      <point x="1201" y="433" type="qcurve"/>
      <point x="1160" y="433"/>
      <point x="1104" y="416"/>
      <point x="1080" y="400" type="qcurve"/>
      <point x="1023" y="400" type="line"/>
      <point x="1085" y="750" type="line"/>
      <point x="1456" y="750" type="line"/>
      <point x="1442" y="670" type="line"/>
      <point x="1170" y="670" type="line"/>
    </contour>
  </outline>
</glyph>
<glyph name="fivesixths" format="1">
  <advance width="1500"/>
  <unicode hex="215A"/>
  <outline>
    <contour>
      <point x="454" y="0" type="line"/>
      <point x="319" y="0" type="line"/>
      <point x="1094" y="1500" type="line"/>
      <point x="1220" y="1500" type="line"/>
    </contour>
    <contour>
      <point x="1435" y="672" type="line"/>
      <point x="1432" y="673"/>
      <point x="1419" y="673"/>
      <point x="1413" y="673" type="qcurve"/>
      <point x="1369" y="673"/>
      <point x="1292" y="651"/>
      <point x="1225" y="610"/>
      <point x="1168" y="553"/>
      <point x="1123" y="484"/>
      <point x="1088" y="406"/>
      <point x="1077" y="365" type="qcurve"/>
      <point x="1129" y="423" type="line"/>
      <point x="1143" y="431"/>
      <point x="1179" y="447"/>
      <point x="1218" y="458"/>
      <point x="1257" y="465"/>
      <point x="1274" y="463" type="qcurve"/>
      <point x="1317" y="460"/>
      <point x="1386" y="436"/>
      <point x="1435" y="388"/>
      <point x="1459" y="312"/>
      <point x="1458" y="256" type="qcurve"/>
      <point x="1457" y="220"/>
      <point x="1434" y="150"/>
      <point x="1396" y="89"/>
      <point x="1343" y="39"/>
      <point x="1278" y="5"/>
      <point x="1204" y="-12"/>
      <point x="1164" y="-9" type="qcurve"/>
      <point x="1120" y="-5"/>
      <point x="1055" y="29"/>
      <point x="1011" y="80"/>
      <point x="984" y="145"/>
      <point x="971" y="214"/>
      <point x="970" y="281"/>
      <point x="972" y="310" type="qcurve"/>
      <point x="977" y="370"/>
      <point x="1015" y="483"/>
      <point x="1076" y="582"/>
      <point x="1158" y="665"/>
      <point x="1257" y="725"/>
      <point x="1371" y="758"/>
      <point x="1433" y="758" type="qcurve"/>
      <point x="1440" y="758"/>
      <point x="1458" y="758"/>
      <point x="1463" y="757" type="qcurve"/>
    </contour>
    <contour>
      <point x="1070" y="298" type="qcurve"/>
      <point x="1067" y="284"/>
      <point x="1064" y="261"/>
      <point x="1062" y="239"/>
      <point x="1062" y="217"/>
      <point x="1063" y="203" type="qcurve"/>
      <point x="1065" y="181"/>
      <point x="1081" y="139"/>
      <point x="1110" y="104"/>
      <point x="1152" y="80"/>
      <point x="1180" y="76" type="qcurve"/>
      <point x="1214" y="71"/>
      <point x="1276" y="93"/>
      <point x="1323" y="139"/>
      <point x="1354" y="208"/>
      <point x="1358" y="251" type="qcurve"/>
      <point x="1362" y="304"/>
      <point x="1307" y="373"/>
      <point x="1251" y="378" type="qcurve"/>
      <point x="1194" y="384"/>
      <point x="1103" y="344"/>
    </contour>
    <contour>
      <point x="285" y="1211" type="line"/>
      <point x="289" y="1213"/>
      <point x="307" y="1222"/>
      <point x="331" y="1231"/>
      <point x="359" y="1237"/>
      <point x="372" y="1237" type="qcurve"/>
      <point x="426" y="1237"/>
      <point x="503" y="1205"/>
      <point x="551" y="1149"/>
      <point x="571" y="1073"/>
      <point x="569" y="1029" type="qcurve"/>
      <point x="565" y="974"/>
      <point x="525" y="886"/>
      <point x="458" y="817"/>
      <point x="370" y="767"/>
      <point x="268" y="735"/>
      <point x="156" y="720"/>
      <point x="100" y="720" type="qcurve"/>
      <point x="114" y="800" type="line"/>
      <point x="185" y="800"/>
      <point x="311" y="832"/>
      <point x="407" y="890"/>
      <point x="465" y="970"/>
      <point x="469" y="1019" type="qcurve"/>
      <point x="471" y="1045"/>
      <point x="456" y="1093"/>
      <point x="424" y="1130"/>
      <point x="377" y="1153"/>
      <point x="348" y="1153" type="qcurve"/>
      <point x="307" y="1153"/>
      <point x="251" y="1136"/>
      <point x="227" y="1120" type="qcurve"/>
      <point x="170" y="1120" type="line"/>
      <point x="232" y="1470" type="line"/>
      <point x="603" y="1470" type="line"/>
      <point x="589" y="1390" type="line"/>
      <point x="317" y="1390" type="line"/>
    </contour>
  </outline>
</glyph>
<glyph name="fiveeighths" format="1">
  <advance width="1500"/>
  <unicode hex="215D"/>
  <outline>
    <contour>
      <point x="454" y="0" type="line"/>
      <point x="319" y="0" type="line"/>
      <point x="1094" y="1500" type="line"/>
      <point x="1220" y="1500" type="line"/>
    </contour>
    <contour>
      <point x="1292" y="758" type="qcurve"/>
      <point x="1335" y="756"/>
      <point x="1404" y="731"/>
      <point x="1450" y="685"/>
      <point x="1471" y="620"/>
      <point x="1467" y="577" type="qcurve"/>
      <point x="1464" y="547"/>
      <point x="1440" y="501"/>
      <point x="1405" y="465"/>
      <point x="1360" y="436"/>
      <point x="1336" y="423" type="qcurve"/>
      <point x="1370" y="406"/>
      <point x="1416" y="364"/>
      <point x="1444" y="311"/>
      <point x="1453" y="245"/>
      <point x="1450" y="205" type="qcurve"/>
      <point x="1446" y="167"/>
      <point x="1419" y="105"/>
      <point x="1376" y="56"/>
      <point x="1321" y="20"/>
      <point x="1259" y="-3"/>
      <point x="1192" y="-11"/>
      <point x="1160" y="-9" type="qcurve"/>
      <point x="1113" y="-5"/>
      <point x="1034" y="24"/>
      <point x="980" y="78"/>
      <point x="954" y="158"/>
      <point x="959" y="212" type="qcurve"/>
      <point x="963" y="252"/>
      <point x="995" y="317"/>
      <point x="1044" y="369"/>
      <point x="1107" y="409"/>
      <point x="1142" y="425" type="qcurve"/>
      <point x="1121" y="439"/>
      <point x="1089" y="471"/>
      <point x="1068" y="506"/>
      <point x="1059" y="547"/>
      <point x="1061" y="572" type="qcurve"/>
      <point x="1064" y="621"/>
      <point x="1108" y="693"/>
      <point x="1173" y="739"/>
      <point x="1252" y="760"/>
    </contour>
    <contour>
      <point x="1220" y="380" type="qcurve"/>
      <point x="1186" y="366"/>
      <point x="1126" y="334"/>
      <point x="1081" y="293"/>
      <point x="1053" y="241"/>
      <point x="1052" y="207" type="qcurve"/>
      <point x="1050" y="176"/>
      <point x="1067" y="129"/>
      <point x="1100" y="96"/>
      <point x="1146" y="77"/>
      <point x="1174" y="73" type="qcurve"/>
      <point x="1206" y="69"/>
      <point x="1270" y="86"/>
      <point x="1322" y="121"/>
      <point x="1355" y="174"/>
      <point x="1356" y="207" type="qcurve"/>
      <point x="1357" y="242"/>
      <point x="1336" y="294"/>
      <point x="1298" y="335"/>
      <point x="1248" y="367"/>
    </contour>
    <contour>
      <point x="1254" y="461" type="qcurve"/>
      <point x="1279" y="472"/>
      <point x="1323" y="496"/>
      <point x="1356" y="525"/>
      <point x="1376" y="560"/>
      <point x="1376" y="581" type="qcurve"/>
      <point x="1377" y="607"/>
      <point x="1362" y="641"/>
      <point x="1336" y="663"/>
      <point x="1304" y="674"/>
      <point x="1287" y="676" type="qcurve"/>
      <point x="1264" y="678"/>
      <point x="1217" y="665"/>
      <point x="1179" y="639"/>
      <point x="1154" y="603"/>
      <point x="1154" y="583" type="qcurve"/>
      <point x="1154" y="560"/>
      <point x="1169" y="524"/>
      <point x="1195" y="496"/>
      <point x="1232" y="472"/>
    </contour>
    <contour>
      <point x="285" y="1211" type="line"/>
      <point x="289" y="1213"/>
      <point x="307" y="1222"/>
      <point x="331" y="1231"/>
      <point x="359" y="1237"/>
      <point x="372" y="1237" type="qcurve"/>
      <point x="426" y="1237"/>
      <point x="503" y="1205"/>
      <point x="551" y="1149"/>
      <point x="571" y="1073"/>
      <point x="569" y="1029" type="qcurve"/>
      <point x="565" y="974"/>
      <point x="525" y="886"/>
      <point x="458" y="817"/>
      <point x="370" y="767"/>
      <point x="268" y="735"/>
      <point x="156" y="720"/>
      <point x="100" y="720" type="qcurve"/>
      <point x="114" y="800" type="line"/>
      <point x="185" y="800"/>
      <point x="311" y="832"/>
      <point x="407" y="890"/>
      <point x="465" y="970"/>
      <point x="469" y="1019" type="qcurve"/>
      <point x="471" y="1045"/>
      <point x="456" y="1093"/>
      <point x="424" y="1130"/>
      <point x="377" y="1153"/>
      <point x="348" y="1153" type="qcurve"/>
      <point x="307" y="1153"/>
      <point x="251" y="1136"/>
      <point x="227" y="1120" type="qcurve"/>
      <point x="170" y="1120" type="line"/>
      <point x="232" y="1470" type="line"/>
      <point x="603" y="1470" type="line"/>
      <point x="589" y="1390" type="line"/>
      <point x="317" y="1390" type="line"/>
    </contour>
  </outline>
</glyph>
<glyph name="oneroman" format="1">
  <advance width="600"/>
  <unicode hex="2170"/>
  <outline>
    <contour>
      <point x="390" y="0" type="line"/>
      <point x="200" y="0" type="line"/>
      <point x="393" y="1100" type="line"/>
      <point x="587" y="1120" type="line"/>
    </contour>
  </outline>
</glyph>
<glyph name="arrowleft" format="1">
  <advance width="1500"/>
  <unicode hex="2190"/>
  <outline>
    <contour>
      <point x="547" y="500" type="line"/>
      <point x="443" y="512" type="line"/>
      <point x="500" y="437" type="line"/>
      <point x="500" y="200" type="line"/>
      <point x="199" y="500" type="line"/>
      <point x="80" y="600" type="line"/>
      <point x="200" y="700" type="line"/>
      <point x="500" y="1000" type="line"/>
      <point x="500" y="765" type="line"/>
      <point x="443" y="690" type="line"/>
      <point x="547" y="700" type="line"/>
      <point x="1400" y="700" type="line"/>
      <point x="1400" y="500" type="line"/>
    </contour>
  </outline>
</glyph>
<glyph name="leftwardsarrowwithhook" format="1">
  <advance width="1400"/>
  <unicode hex="21A9"/>
  <outline>
    <contour>
      <point x="547" y="400" type="line"/>
      <point x="443" y="412" type="line"/>
      <point x="500" y="337" type="line"/>
      <point x="500" y="100" type="line"/>
      <point x="199" y="400" type="line"/>
      <point x="80" y="500" type="line"/>
      <point x="200" y="600" type="line"/>
      <point x="500" y="900" type="line"/>
      <point x="500" y="665" type="line"/>
      <point x="443" y="590" type="line"/>
      <point x="547" y="600" type="line"/>
      <point x="1000" y="600" type="line"/>
      <point x="1027" y="600"/>
      <point x="1074" y="615"/>
      <point x="1110" y="642"/>
      <point x="1130" y="679"/>
      <point x="1130" y="700" type="qcurve"/>
      <point x="1130" y="721"/>
      <point x="1110" y="757"/>
      <point x="1074" y="784"/>
      <point x="1027" y="800"/>
      <point x="1000" y="800" type="qcurve"/>
      <point x="1000" y="1000" type="line"/>
      <point x="1056" y="1000"/>
      <point x="1164" y="962"/>
      <point x="1248" y="887"/>
      <point x="1300" y="775"/>
      <point x="1300" y="700" type="qcurve"/>
      <point x="1300" y="625"/>
      <point x="1248" y="512"/>
      <point x="1164" y="437"/>
      <point x="1056" y="400"/>
      <point x="1000" y="400" type="qcurve"/>
    </contour>
  </outline>
</glyph>
<glyph name="arrowdblupdown" format="1">
  <advance width="1200"/>
  <unicode hex="21D5"/>
  <outline>
    <contour>
      <point x="600" y="0" type="line"/>
      <point x="509" y="107" type="line"/>
      <point x="143" y="473" type="line"/>
      <point x="143" y="643" type="line"/>
      <point x="388" y="398" type="line"/>
      <point x="400" y="498" type="line"/>
      <point x="400" y="1102" type="line"/>
      <point x="388" y="1202" type="line"/>
      <point x="143" y="957" type="line"/>
      <point x="143" y="1127" type="line"/>
      <point x="509" y="1493" type="line"/>
      <point x="600" y="1600" type="line"/>
      <point x="691" y="1493" type="line"/>
      <point x="1057" y="1127" type="line"/>
      <point x="1057" y="957" type="line"/>
      <point x="813" y="1202" type="line"/>
      <point x="800" y="1102" type="line"/>
      <point x="800" y="498" type="line"/>
      <point x="813" y="398" type="line"/>
      <point x="1057" y="643" type="line"/>
      <point x="1057" y="473" type="line"/>
      <point x="691" y="107" type="line"/>
    </contour>
    <contour>
      <point x="516" y="952" type="line"/>
      <point x="516" y="648" type="line"/>
      <point x="488" y="298" type="line"/>
      <point x="600" y="167" type="line"/>
      <point x="712" y="298" type="line"/>
      <point x="684" y="648" type="line"/>
      <point x="684" y="952" type="line"/>
      <point x="712" y="1302" type="line"/>
      <point x="600" y="1433" type="line"/>
      <point x="488" y="1302" type="line"/>
    </contour>
  </outline>
</glyph>
<glyph name="emptyset" format="1">
  <advance width="1400"/>
  <unicode hex="2205"/>
  <outline>
    <contour>
      <point x="699" y="-17" type="qcurve"/>
      <point x="561" y="-17"/>
      <point x="343" y="83"/>
      <point x="190" y="262"/>
      <point x="109" y="506"/>
      <point x="109" y="650" type="qcurve"/>
      <point x="109" y="794"/>
      <point x="188" y="1038"/>
      <point x="338" y="1217"/>
      <point x="558" y="1317"/>
      <point x="699" y="1317" type="qcurve"/>
      <point x="837" y="1317"/>
      <point x="1055" y="1217"/>
      <point x="1208" y="1038"/>
      <point x="1289" y="794"/>
      <point x="1289" y="650" type="qcurve"/>
      <point x="1289" y="506"/>
      <point x="1210" y="262"/>
      <point x="1060" y="83"/>
      <point x="840" y="-17"/>
    </contour>
    <contour>
      <point x="1107" y="623" type="qcurve"/>
      <point x="1107" y="728"/>
      <point x="1062" y="924"/>
      <point x="964" y="1077"/>
      <point x="806" y="1169"/>
      <point x="694" y="1169" type="qcurve"/>
      <point x="586" y="1169"/>
      <point x="434" y="1087"/>
      <point x="336" y="950"/>
      <point x="291" y="774"/>
      <point x="291" y="680" type="qcurve"/>
      <point x="291" y="574"/>
      <point x="336" y="376"/>
      <point x="435" y="223"/>
      <point x="592" y="131"/>
      <point x="704" y="131" type="qcurve"/>
      <point x="810" y="131"/>
      <point x="963" y="215"/>
      <point x="1061" y="353"/>
      <point x="1107" y="530"/>
    </contour>
    <contour>
      <point x="474" y="-200" type="line"/>
      <point x="319" y="-200" type="line"/>
      <point x="928" y="1500" type="line"/>
      <point x="1074" y="1500" type="line"/>
    </contour>
  </outline>
</glyph>
<glyph name="gradient" format="1">
  <advance width="1600"/>
  <unicode hex="2207"/>
  <outline>
    <contour>
      <point x="65" y="1500" type="line"/>
      <point x="1537" y="1500" type="line"/>
      <point x="914" y="0" type="line"/>
      <point x="687" y="0" type="line"/>
    </contour>
    <contour>
      <point x="392" y="1340" type="line"/>
      <point x="269" y="1392" type="line"/>
      <point x="351" y="1300" type="line"/>
      <point x="767" y="242" type="line"/>
      <point x="802" y="75" type="line"/>
      <point x="837" y="242" type="line"/>
      <point x="1253" y="1300" type="line"/>
      <point x="1338" y="1392" type="line"/>
      <point x="1212" y="1340" type="line"/>
    </contour>
  </outline>
</glyph>
<glyph name="sphericalangle" format="1">
  <advance width="1400"/>
  <unicode hex="2222"/>
  <outline>
    <contour>
      <point x="100" y="600" type="line"/>
      <point x="1115" y="1187" type="line"/>
      <point x="1237" y="1096" type="line"/>
      <point x="965" y="939" type="line"/>
      <point x="1021" y="846"/>
      <point x="1077" y="647"/>
      <point x="1077" y="544" type="qcurve"/>
      <point x="1077" y="443"/>
      <point x="1023" y="242"/>
      <point x="966" y="145" type="qcurve"/>
      <point x="1208" y="5" type="line"/>
      <point x="1100" y="-81" type="line"/>
      <point x="100" y="483" type="line"/>
    </contour>
    <contour>
      <point x="862" y="205" type="line"/>
      <point x="908" y="284"/>
      <point x="952" y="454"/>
      <point x="952" y="540" type="qcurve"/>
      <point x="952" y="630"/>
      <point x="906" y="801"/>
      <point x="861" y="879" type="qcurve"/>
      <point x="268" y="542" type="line"/>
    </contour>
  </outline>
</glyph>
<glyph name="logicalor" format="1">
  <advance width="1300"/>
  <unicode hex="2228"/>
  <outline>
    <contour>
      <point x="522" y="0" type="line"/>
      <point x="93" y="1300" type="line"/>
      <point x="248" y="1320" type="line"/>
      <point x="592" y="320" type="line"/>
      <point x="657" y="80" type="line"/>
      <point x="722" y="320" type="line"/>
      <point x="1058" y="1300" type="line"/>
      <point x="1229" y="1320" type="line"/>
      <point x="787" y="0" type="line"/>
    </contour>
  </outline>
</glyph>
<glyph name="integral" format="1">
  <advance width="1200"/>
  <unicode hex="222B"/>
  <outline>
    <contour>
      <point x="500" y="1117" type="line"/>
      <point x="500" y="1202"/>
      <point x="531" y="1348"/>
      <point x="607" y="1456"/>
      <point x="734" y="1517"/>
      <point x="830" y="1517" type="qcurve"/>
      <point x="876" y="1517"/>
      <point x="941" y="1510"/>
      <point x="992" y="1497"/>
      <point x="1033" y="1480"/>
      <point x="1054" y="1470" type="qcurve"/>
      <point x="991" y="1347" type="line"/>
      <point x="972" y="1358"/>
      <point x="907" y="1374"/>
      <point x="882" y="1374" type="qcurve"/>
      <point x="874" y="1374"/>
      <point x="858" y="1374"/>
      <point x="801" y="1365"/>
      <point x="742" y="1325"/>
      <point x="710" y="1261"/>
      <point x="700" y="1172"/>
      <point x="700" y="1117" type="qcurve"/>
      <point x="700" y="-21" type="line"/>
      <point x="700" y="-106"/>
      <point x="669" y="-252"/>
      <point x="593" y="-360"/>
      <point x="466" y="-421"/>
      <point x="370" y="-421" type="qcurve"/>
      <point x="324" y="-421"/>
      <point x="195" y="-401"/>
      <point x="126" y="-374" type="qcurve"/>
      <point x="209" y="-251" type="line"/>
      <point x="228" y="-262"/>
      <point x="293" y="-278"/>
      <point x="318" y="-278" type="qcurve"/>
      <point x="326" y="-278"/>
      <point x="399" y="-269"/>
      <point x="458" y="-229"/>
      <point x="490" y="-165"/>
      <point x="500" y="-76"/>
      <point x="500" y="-21" type="qcurve"/>
    </contour>
  </outline>
</glyph>
<glyph name="asymptoticallyequal" format="1">
  <advance width="1000"/>
  <unicode hex="2243"/>
  <outline>
    <contour>
      <point x="170" y="400" type="line"/>
      <point x="970" y="400" type="line"/>
      <point x="945" y="260" type="line"/>
      <point x="145" y="260" type="line"/>
    </contour>
    <contour>
      <point x="747" y="500" type="qcurve"/>
      <point x="712" y="500"/>
      <point x="654" y="525"/>
      <point x="604" y="563"/>
      <point x="559" y="607"/>
      <point x="515" y="645"/>
      <point x="469" y="670"/>
      <point x="442" y="670" type="qcurve"/>
      <point x="411" y="670"/>
      <point x="353" y="655"/>
      <point x="294" y="627"/>
      <point x="232" y="586"/>
      <point x="198" y="560" type="qcurve"/>
      <point x="215" y="660" type="line"/>
      <point x="236" y="688"/>
      <point x="285" y="738"/>
      <point x="347" y="777"/>
      <point x="427" y="800"/>
      <point x="480" y="800" type="qcurve"/>
      <point x="515" y="800"/>
      <point x="573" y="775"/>
      <point x="623" y="737"/>
      <point x="669" y="693"/>
      <point x="713" y="655"/>
      <point x="759" y="630"/>
      <point x="785" y="630" type="qcurve"/>
      <point x="846" y="630"/>
      <point x="960" y="687"/>
      <point x="1029" y="740" type="qcurve"/>
      <point x="1012" y="640" type="line"/>
      <point x="992" y="610"/>
      <point x="943" y="559"/>
      <point x="880" y="521"/>
      <point x="799" y="500"/>
    </contour>
  </outline>
</glyph>
<glyph name="equivalence" format="1">
  <advance width="1000"/>
  <unicode hex="2261"/>
  <outline>
    <contour>
      <point x="205" y="600" type="line"/>
      <point x="1005" y="600" type="line"/>
      <point x="981" y="460" type="line"/>
      <point x="181" y="460" type="line"/>
    </contour>
    <contour>
      <point x="152" y="300" type="line"/>
      <point x="952" y="300" type="line"/>
      <point x="928" y="160" type="line"/>
      <point x="128" y="160" type="line"/>
    </contour>
    <contour>
      <point x="258" y="900" type="line"/>
      <point x="1058" y="900" type="line"/>
      <point x="1034" y="760" type="line"/>
      <point x="234" y="760" type="line"/>
    </contour>
  </outline>
</glyph>
<glyph name="lessequal" format="1">
  <advance width="1300"/>
  <unicode hex="2264"/>
  <outline>
    <contour>
      <point x="223" y="135" type="line"/>
      <point x="1123" y="135" type="line"/>
      <point x="1080" y="0" type="line"/>
      <point x="200" y="0" type="line"/>
    </contour>
    <contour>
      <point x="1297" y="1119" type="line"/>
      <point x="1272" y="979" type="line"/>
      <point x="533" y="686" type="line"/>
      <point x="453" y="670" type="line"/>
      <point x="527" y="654" type="line"/>
      <point x="1164" y="363" type="line"/>
      <point x="1139" y="223" type="line"/>
      <point x="303" y="588" type="line"/>
      <point x="333" y="756" type="line"/>
    </contour>
  </outline>
</glyph>
<glyph name="greaterequal" format="1">
  <advance width="1300"/>
  <unicode hex="2265"/>
  <outline>
    <contour>
      <point x="223" y="135" type="line"/>
      <point x="1123" y="135" type="line"/>
      <point x="1080" y="0" type="line"/>
      <point x="200" y="0" type="line"/>
    </contour>
    <contour>
      <point x="1235" y="756" type="line"/>
      <point x="1205" y="588" type="line"/>
      <point x="241" y="223" type="line"/>
      <point x="266" y="363" type="line"/>
      <point x="1005" y="654" type="line"/>
      <point x="1085" y="670" type="line"/>
      <point x="1009" y="686" type="line"/>
      <point x="374" y="979" type="line"/>
      <point x="399" y="1119" type="line"/>
    </contour>
  </outline>
</glyph>
<glyph name="reflexsuperset" format="1">
  <advance width="1500"/>
  <unicode hex="2287"/>
  <outline>
    <contour>
      <point x="1300" y="1" type="line"/>
      <point x="80" y="1" type="line"/>
      <point x="100" y="155" type="line"/>
      <point x="1300" y="155" type="line"/>
    </contour>
    <contour>
      <point x="100" y="453" type="line"/>
      <point x="653" y="453" type="line"/>
      <point x="784" y="453"/>
      <point x="994" y="512"/>
      <point x="1141" y="634"/>
      <point x="1180" y="728" type="qcurve"/>
      <point x="1208" y="793"/>
      <point x="1208" y="1006"/>
      <point x="1180" y="1071" type="qcurve"/>
      <point x="1141" y="1165"/>
      <point x="994" y="1287"/>
      <point x="784" y="1346"/>
      <point x="653" y="1346" type="qcurve"/>
      <point x="100" y="1346" type="line"/>
      <point x="80" y="1500" type="line"/>
      <point x="657" y="1500" type="line"/>
      <point x="828" y="1500"/>
      <point x="1103" y="1419"/>
      <point x="1296" y="1256"/>
      <point x="1400" y="1012"/>
      <point x="1400" y="900" type="qcurve"/>
      <point x="1400" y="788"/>
      <point x="1296" y="544"/>
      <point x="1103" y="381"/>
      <point x="828" y="300"/>
      <point x="657" y="300" type="qcurve"/>
      <point x="80" y="300" type="line"/>
    </contour>
  </outline>
</glyph>
<glyph name="circleplus" format="1">
  <advance width="1667"/>
  <unicode hex="2295"/>
  <outline>
    <contour>
      <point x="83" y="750" type="qcurve"/>
      <point x="83" y="856"/>
      <point x="138" y="1052"/>
      <point x="238" y="1222"/>
      <point x="378" y="1362"/>
      <point x="548" y="1462"/>
      <point x="744" y="1517"/>
      <point x="850" y="1517" type="qcurve"/>
      <point x="956" y="1517"/>
      <point x="1152" y="1462"/>
      <point x="1322" y="1362"/>
      <point x="1462" y="1222"/>
      <point x="1562" y="1052"/>
      <point x="1617" y="856"/>
      <point x="1617" y="750" type="qcurve"/>
      <point x="1617" y="644"/>
      <point x="1562" y="448"/>
      <point x="1462" y="278"/>
      <point x="1322" y="138"/>
      <point x="1152" y="38"/>
      <point x="956" y="-17"/>
      <point x="850" y="-17" type="qcurve"/>
      <point x="744" y="-17"/>
      <point x="548" y="38"/>
      <point x="378" y="138"/>
      <point x="238" y="278"/>
      <point x="138" y="448"/>
      <point x="83" y="644"/>
    </contour>
    <contour>
      <point x="236" y="675" type="line"/>
      <point x="249" y="570"/>
      <point x="341" y="384"/>
      <point x="484" y="241"/>
      <point x="670" y="149"/>
      <point x="775" y="136" type="qcurve"/>
      <point x="775" y="675" type="line"/>
    </contour>
    <contour>
      <point x="775" y="1362" type="line"/>
      <point x="670" y="1349"/>
      <point x="484" y="1257"/>
      <point x="341" y="1115"/>
      <point x="249" y="930"/>
      <point x="236" y="825" type="qcurve"/>
      <point x="775" y="825" type="line"/>
    </contour>
    <contour>
      <point x="925" y="136" type="line"/>
      <point x="1030" y="149"/>
      <point x="1215" y="241"/>
      <point x="1357" y="384"/>
      <point x="1449" y="570"/>
      <point x="1462" y="675" type="qcurve"/>
      <point x="925" y="675" type="line"/>
    </contour>
    <contour>
      <point x="1462" y="825" type="line"/>
      <point x="1449" y="930"/>
      <point x="1357" y="1115"/>
      <point x="1215" y="1257"/>
      <point x="1030" y="1349"/>
      <point x="925" y="1362" type="qcurve"/>
      <point x="925" y="825" type="line"/>
    </contour>
  </outline>
</glyph>
<glyph name="circleminus" format="1">
  <advance width="1667"/>
  <unicode hex="2296"/>
  <outline>
    <contour>
      <point x="83" y="750" type="qcurve"/>
      <point x="83" y="856"/>
      <point x="138" y="1052"/>
      <point x="238" y="1222"/>
      <point x="378" y="1362"/>
      <point x="548" y="1462"/>
      <point x="744" y="1517"/>
      <point x="850" y="1517" type="qcurve"/>
      <point x="956" y="1517"/>
      <point x="1152" y="1462"/>
      <point x="1322" y="1362"/>
      <point x="1462" y="1222"/>
      <point x="1562" y="1052"/>
      <point x="1617" y="856"/>
      <point x="1617" y="750" type="qcurve"/>
      <point x="1617" y="644"/>
      <point x="1562" y="448"/>
      <point x="1462" y="278"/>
      <point x="1322" y="138"/>
      <point x="1152" y="38"/>
      <point x="956" y="-17"/>
      <point x="850" y="-17" type="qcurve"/>
      <point x="744" y="-17"/>
      <point x="548" y="38"/>
      <point x="378" y="138"/>
      <point x="238" y="278"/>
      <point x="138" y="448"/>
      <point x="83" y="644"/>
    </contour>
    <contour>
      <point x="850" y="132" type="qcurve"/>
      <point x="968" y="132"/>
      <point x="1178" y="216"/>
      <point x="1342" y="362"/>
      <point x="1448" y="560"/>
      <point x="1462" y="675" type="qcurve"/>
      <point x="236" y="675" type="line"/>
      <point x="245" y="598"/>
      <point x="300" y="459"/>
      <point x="383" y="338"/>
      <point x="493" y="240"/>
      <point x="624" y="170"/>
      <point x="771" y="132"/>
    </contour>
    <contour>
      <point x="850" y="1367" type="qcurve"/>
      <point x="771" y="1367"/>
      <point x="624" y="1329"/>
      <point x="493" y="1259"/>
      <point x="383" y="1161"/>
      <point x="300" y="1041"/>
      <point x="245" y="901"/>
      <point x="236" y="825" type="qcurve"/>
      <point x="1462" y="825" type="line"/>
      <point x="1448" y="939"/>
      <point x="1342" y="1137"/>
      <point x="1178" y="1283"/>
      <point x="968" y="1367"/>
    </contour>
  </outline>
</glyph>
<glyph name="circlemultiply" format="1">
  <advance width="1667"/>
  <unicode hex="2297"/>
  <outline>
    <contour>
      <point x="83" y="750" type="qcurve"/>
      <point x="83" y="856"/>
      <point x="138" y="1052"/>
      <point x="238" y="1222"/>
      <point x="378" y="1362"/>
      <point x="548" y="1462"/>
      <point x="744" y="1517"/>
      <point x="850" y="1517" type="qcurve"/>
      <point x="956" y="1517"/>
      <point x="1152" y="1462"/>
      <point x="1322" y="1362"/>
      <point x="1462" y="1222"/>
      <point x="1562" y="1052"/>
      <point x="1617" y="856"/>
      <point x="1617" y="750" type="qcurve"/>
      <point x="1617" y="644"/>
      <point x="1562" y="448"/>
      <point x="1462" y="278"/>
      <point x="1322" y="138"/>
      <point x="1152" y="38"/>
      <point x="956" y="-17"/>
      <point x="850" y="-17" type="qcurve"/>
      <point x="744" y="-17"/>
      <point x="548" y="38"/>
      <point x="378" y="138"/>
      <point x="238" y="278"/>
      <point x="138" y="448"/>
      <point x="83" y="644"/>
    </contour>
    <contour>
      <point x="232" y="750" type="qcurve"/>
      <point x="232" y="641"/>
      <point x="301" y="448"/>
      <point x="363" y="369" type="qcurve"/>
      <point x="744" y="750" type="line"/>
      <point x="363" y="1130" type="line"/>
      <point x="301" y="1051"/>
      <point x="232" y="858"/>
    </contour>
    <contour>
      <point x="850" y="132" type="qcurve"/>
      <point x="958" y="132"/>
      <point x="1151" y="201"/>
      <point x="1230" y="263" type="qcurve"/>
      <point x="850" y="644" type="line"/>
      <point x="469" y="263" type="line"/>
      <point x="548" y="201"/>
      <point x="741" y="132"/>
    </contour>
    <contour>
      <point x="850" y="1367" type="qcurve"/>
      <point x="741" y="1367"/>
      <point x="549" y="1298"/>
      <point x="470" y="1236" type="qcurve"/>
      <point x="850" y="856" type="line"/>
      <point x="1230" y="1236" type="line"/>
      <point x="1151" y="1298"/>
      <point x="958" y="1367"/>
    </contour>
    <contour>
      <point x="1467" y="750" type="qcurve"/>
      <point x="1467" y="858"/>
      <point x="1398" y="1051"/>
      <point x="1336" y="1130" type="qcurve"/>
      <point x="956" y="750" type="line"/>
      <point x="1336" y="370" type="line"/>
      <point x="1398" y="449"/>
      <point x="1467" y="641"/>
    </contour>
  </outline>
</glyph>
<glyph name="circledivide" format="1">
  <advance width="1667"/>
  <unicode hex="2298"/>
  <outline>
    <contour>
      <point x="83" y="750" type="qcurve"/>
      <point x="83" y="856"/>
      <point x="138" y="1052"/>
      <point x="238" y="1222"/>
      <point x="378" y="1362"/>
      <point x="548" y="1462"/>
      <point x="744" y="1517"/>
      <point x="850" y="1517" type="qcurve"/>
      <point x="956" y="1517"/>
      <point x="1152" y="1462"/>
      <point x="1322" y="1362"/>
      <point x="1462" y="1222"/>
      <point x="1562" y="1052"/>
      <point x="1617" y="856"/>
      <point x="1617" y="750" type="qcurve"/>
      <point x="1617" y="644"/>
      <point x="1562" y="448"/>
      <point x="1462" y="278"/>
      <point x="1322" y="138"/>
      <point x="1152" y="38"/>
      <point x="956" y="-17"/>
      <point x="850" y="-17" type="qcurve"/>
      <point x="744" y="-17"/>
      <point x="548" y="38"/>
      <point x="378" y="138"/>
      <point x="238" y="278"/>
      <point x="138" y="448"/>
      <point x="83" y="644"/>
    </contour>
    <contour>
      <point x="232" y="750" type="qcurve"/>
      <point x="232" y="641"/>
      <point x="301" y="448"/>
      <point x="363" y="369" type="qcurve"/>
      <point x="1230" y="1236" type="line"/>
      <point x="1151" y="1298"/>
      <point x="958" y="1367"/>
      <point x="850" y="1367" type="qcurve"/>
      <point x="722" y="1367"/>
      <point x="497" y="1270"/>
      <point x="329" y="1103"/>
      <point x="232" y="878"/>
    </contour>
    <contour>
      <point x="1467" y="750" type="qcurve"/>
      <point x="1467" y="858"/>
      <point x="1398" y="1051"/>
      <point x="1336" y="1130" type="qcurve"/>
      <point x="469" y="263" type="line"/>
      <point x="548" y="201"/>
      <point x="741" y="132"/>
      <point x="850" y="132" type="qcurve"/>
      <point x="978" y="132"/>
      <point x="1203" y="229"/>
      <point x="1370" y="397"/>
      <point x="1467" y="622"/>
    </contour>
  </outline>
</glyph>
